<?xml version="1.0" standalone="no"?>
<!DOCTYPE svg PUBLIC "-//W3C//DTD SVG 1.1//EN" "http://www.w3.org/Graphics/SVG/1.1/DTD/svg11.dtd" >
<svg xmlns="http://www.w3.org/2000/svg">
<metadata></metadata>
<defs>
<font id="kredit_shineregular" horiz-adv-x="1105" >
<font-face units-per-em="2048" ascent="1518" descent="-530" />
<missing-glyph horiz-adv-x="655" />
<glyph horiz-adv-x="2048" />
<glyph horiz-adv-x="2048" />
<glyph unicode="&#xd;" horiz-adv-x="1525" />
<glyph horiz-adv-x="655" />
<glyph unicode=" "  horiz-adv-x="655" />
<glyph unicode="&#x09;" horiz-adv-x="655" />
<glyph unicode="&#xa0;" horiz-adv-x="655" />
<glyph unicode="!" horiz-adv-x="505" d="M98 133v66l80 16v-39q0 -10 5 -24.5t16 -18.5l28 -12l-65 -76q-29 4 -42.5 24.5t-21.5 63.5zM109 1315q14 35 40.5 50t59.5 15l43 -667l-100 -88zM162 600l96 88l8 -18l39 -29l-49 14l23 -45l-52 29l25 -43l-43 18l29 -41l-54 19l23 -39l-37 20z" />
<glyph unicode="&#x22;" horiz-adv-x="1087" d="M102 1315l101 55l86 -442q-20 -33 -50 -48.5t-59 -15.5zM180 834l39 6l62 24l32 31l19 -27l51 -18l-59 -2l28 -27l-45 10l23 -34l-64 12l35 -39l-65 21l26 -41l-57 34zM629 1184l92 94l78 -354q-4 -41 -34 -62.5t-60 -21.5zM709 813l41 4l51 35l30 33l19 -29l53 -16 l-61 -4l32 -25l-47 8l21 -35l-62 13l35 -39l-67 20l28 -41l-57 35z" />
<glyph unicode="#" horiz-adv-x="1052" d="M74 670q31 49 62.5 70.5t82.5 21.5l-12 -10q-8 -8 -15.5 -21.5t-7.5 -38.5q-4 0 -9 1t-13 1q-12 0 -34 -4t-54 -20zM74 1032q31 49 62.5 71.5t80.5 22.5q-10 -4 -21.5 -23.5t-11.5 -47.5h-37q-25 0 -73 -23zM78 627q33 23 52.5 33t59.5 10q8 -16 12.5 -18.5t10.5 -2.5 v-10h-14l4 -18l-13 6l5 -19l-19 6l8 -20l-18 14l10 -26l-24 12l10 -31l-25 19l15 -31q-29 0 -51.5 24.5t-22.5 51.5zM78 991q33 23 52.5 32t59.5 9q4 -12 23 -18v-15h-14l4 -16l-13 8l5 -24l-19 10l8 -21l-18 11l10 -23l-24 12l10 -26l-25 14l15 -31q-29 0 -51.5 25 t-22.5 53zM246 1317q29 49 61.5 71.5t85.5 22.5q-16 -10 -26.5 -25.5t-10.5 -46.5q-4 0 -9 1t-11 1q-16 0 -36.5 -4t-53.5 -20zM252 786v80l104 90v-170h-104zM258 369v139l98 113l2 -201q-6 -23 -25.5 -40.5t-47.5 -17.5q-14 0 -27 7zM260 1145v104q53 29 69.5 35t26.5 14 l2 -153h-98zM584 1317q29 49 59.5 71.5t85.5 22.5q-10 -10 -22.5 -23.5t-12.5 -48.5q-4 0 -10 1t-12 1q-16 0 -36 -4t-52 -20zM594 362v140l100 112v-198q-4 -23 -23.5 -42.5t-47.5 -19.5q-20 0 -29 8zM594 786v101l100 96v-197h-100zM594 1249q39 49 100 49v-153h-98z" />
<glyph unicode="$" horiz-adv-x="1038" d="M66 449q31 49 63.5 71.5t81.5 22.5l-22.5 -22.5t-12.5 -47.5h-18q-16 0 -38 -4t-54 -20zM70 408q31 23 51 32t61 9q8 -18 23 -19v-10h-15l5 -19l-13 7l4 -21l-18 8l8 -20l-18 12l10 -27l-23 15l9 -31l-25 16l16 -26q-29 0 -52 23.5t-23 50.5zM78 721v303q10 23 31.5 37 t44.5 14q4 0 9 -1t13 -3l4 -291q-25 0 -54.5 -18.5t-47.5 -40.5zM416 137v168l102 96v-200q-35 0 -60.5 -20.5t-41.5 -43.5zM418 1147v151q27 61 100 62v-213h-100z" />
<glyph unicode="%" horiz-adv-x="1056" d="M76 276q0 14 10 41l107 27q-6 -10 -7 -20q0 -16 9.5 -27.5t19.5 -11.5q8 0 10 2l-92 -86q-23 8 -40 27.5t-17 47.5zM90 1151v129l82 16v-102l21 -45l26 -12l-63 -76q-29 10 -43.5 29.5t-22.5 60.5zM90 1321q45 94 129 94l4 -8q0 -4 -8 -10t-17.5 -15.5t-17.5 -20.5 t-8 -24q-10 6 -14 6q-8 0 -26.5 -6t-41.5 -16zM100 348l701 885q16 10 30 10q20 0 37 -8l-669 -860l-43 -8l-52 -23q0 2 -2 2zM598 133v127l80 16v-100l22 -43l27 -12l-65 -76q-29 4 -42.5 25.5t-21.5 62.5zM598 301q13 34 33 59q31 37 84 37q2 -2 2 -10q-4 -10 -21.5 -21.5 t-17.5 -46.5h-16q-14 0 -27.5 -3t-36.5 -15z" />
<glyph unicode="&#x26;" horiz-adv-x="1071" d="M98 305v141q33 20 49.5 25.5t30.5 5.5q4 0 6 -1t6 -1t6.5 1t6.5 1q-2 -10 -3 -28.5t-1 -30.5q0 -43 16 -104.5t64 -116.5q0 -37 -24 -61.5t-52 -31.5q-68 47 -86.5 100.5t-18.5 100.5zM98 866v148q29 115 92.5 166t149.5 59q-61 -23 -99 -80t-38 -117v-108zM106 811 l121 76l168 -182l-164 126l125 -135l-151 115l112 -123l-141 107l98 -113l-133 109l56 -78zM434 440l103 113l180 -186l-172 137l106 -121l-135 104l105 -127l-132 99l80 -109l-98 84l41 -74zM596 1014l84 98q14 -10 28.5 -29.5t14.5 -42.5l-113 -59q2 2 2 10q0 18 -16 23z M764 477l55 43q8 12 23 12q4 0 15 -4t15 -20l-75 -62z" />
<glyph unicode="'" horiz-adv-x="557" d="M92 1309q14 66 48 89t96 23v-4q0 -14 -8.5 -26.5t-8.5 -40.5q-49 0 -81 -12.5t-46 -28.5zM96 723v526q4 47 34 62.5t95 15.5v-483z" />
<glyph unicode="(" horiz-adv-x="638" d="M72 541v6q0 10 2 12v320q0 92 28.5 151.5t65.5 102.5l104 122l86 17l-104 -121q-53 -41 -69.5 -84t-16.5 -109v-333q8 -80 39 -142.5t59 -107.5l187 -228l-164 168l137 -168l-176 175l133 -175l-174 183l129 -183l-176 197l139 -197l-133 158q-53 74 -74.5 131.5 t-21.5 104.5zM287 1296q60 107 166 107q0 -8 -2 -10q-47 -37 -63.5 -51.5t-16.5 -30.5q-12 6 -21 6q-10 0 -28.5 -6t-34.5 -15z" />
<glyph unicode=")" horiz-adv-x="638" d="M96 1305q14 47 45 75.5t76 28.5q8 0 13.5 -1t13.5 -1q-25 -18 -25 -47q0 -18 8 -33l-39 2q-31 2 -49 -9t-43 -15zM100 1270l11 12q20 16 42.5 21.5t47.5 5.5q10 0 20 -1t21 -3l190 -230l-207 191l133 -156l-174 158l115 -138l-154 140l101 -125l-123 117l41 -74zM102 141 q0 10 7 39l106 27q-6 -6 -6 -21q0 -23 11 -31t24 -8h4l-92 -86q-29 12 -41.5 34t-12.5 46zM139 225l199 254q16 23 23.5 37t9.5 25.5t2 19.5t4 19v301l82 32v-309q0 -41 -15.5 -80t-52.5 -71l-149 -197z" />
<glyph unicode="*" horiz-adv-x="1044" d="M70 420q0 29 18 61.5t45 48.5l217 187l113 33l-275 -242q-18 -16 -18 -35q0 -39 39 -41l-111 -84q-29 35 -28 72zM70 977l14 24l22 15l52 6l49 -2l260 -221l-244 174l142 -142l-185 136l96 -109l-143 105l64 -76l-103 69l37 -51l-49 39zM70 1038q16 27 31.5 44.5 t29.5 27.5l6 4l-2 4l4 -2q31 14 72 14q-6 -4 -18.5 -20t-12.5 -49q-4 0 -10 1t-12 1q-16 0 -36 -4t-52 -21zM408 256v139l100 113v-199q-4 -25 -23.5 -42t-48.5 -17q-14 0 -28 6zM410 1038v92q31 10 60.5 15.5t49.5 5.5v-215zM410 1163q23 53 52.5 73.5t90.5 20.5 q-16 -16 -24.5 -27t-8.5 -42q-4 0 -9 1t-15 1q-14 0 -36 -5t-50 -22zM655 465v174l224 -193l-181 121l125 -110l-145 90l100 -98l-108 65l78 -80l-78 35l63 -66zM655 985l138 113q18 8 30.5 10t22.5 2q8 0 17 -1t20 -3l-226 -184z" />
<glyph unicode="+" horiz-adv-x="1003" d="M49 741q31 51 62.5 73t78.5 22q-8 -6 -19 -22.5t-11 -49.5q-4 0 -9.5 1t-11.5 1q-14 0 -35.5 -4t-54.5 -21zM53 700q33 25 52.5 33t60.5 8l12 -14q0 -2 2 -2h8v-14h-14l4 -17l-12 6l4 -20l-18 6l8 -16l-17 10l9 -27l-23 17l10 -31l-26 14l16 -28q-29 0 -52.5 25.5 t-23.5 49.5zM393 1077q29 49 60.5 71.5t85.5 22.5l-13 -10q-8 -8 -15 -22.5t-7 -36.5h-23q-16 0 -36.5 -4t-51.5 -21zM399 354q0 6 1 11.5t3 13.5v203l103 112v-252l-41 -63l-39 -70q-14 8 -20.5 22.5t-6.5 22.5zM403 860v178q16 16 41 23.5t31 7.5q14 0 29 -8l2 -201h-103z " />
<glyph unicode="," horiz-adv-x="712" d="M47 596q25 49 56.5 70.5t84.5 21.5l-10 -6q-8 -10 -16 -24.5t-8 -36.5h-19q-14 0 -35.5 -4.5t-52.5 -20.5zM49 553q16 12 28.5 20.5t23 13.5t23.5 7t34 2q4 -6 9 -11t15 -10v-12h-12l2 -14l-14 4l6 -18l-17 8l7 -21l-19 13l10 -27l-20 14l8 -30l-24 16l16 -29 q-31 0 -53.5 24.5t-22.5 49.5zM397 139v297l99 113v-348l-82 -113q-12 20 -17 51z" />
<glyph unicode="-" horiz-adv-x="1097" d="M104 670v18l80 25q0 -23 16.5 -43.5t45.5 -20.5l-35 -98q-53 8 -80 45t-27 74zM104 748q14 49 51.5 70.5t90.5 21.5v-6q-31 -10 -46.5 -30t-15.5 -40q-23 0 -40 -4t-40 -12z" />
<glyph unicode="." horiz-adv-x="587" d="M94 133v125l80 16v-102l23 -41l28 -14l-65 -74q-29 10 -43.5 28.5t-22.5 61.5zM94 299q29 53 57.5 73.5t84.5 20.5v-8l-41 -35q-8 -6 -14.5 -14t-6.5 -17l-10 3q-6 0 -70 -23z" />
<glyph unicode="/" horiz-adv-x="978" d="M41 139q0 31 22 58l691 1183q16 18 31.5 22.5t23.5 4.5q23 0 39 -16l-674 -1143q-10 -16 -14 -21.5t-4 -29.5v-15q0 -12 2 -14l-95 -86q-23 23 -22 57z" />
<glyph unicode="0" horiz-adv-x="1107" d="M96 217v1002q0 43 31 60t96 17v-1020q0 -43 11.5 -62t41.5 -48l-38 -35q-47 -41 -78 -43q-16 12 -38 47t-26 82zM125 1311q37 37 56.5 55t33.5 27.5t28.5 10.5t39.5 1l-52.5 -52.5t-11.5 -15.5q0 -2 2 -3t2 -7q-4 4 -7 5t-15 1q-33 0 -76 -22zM188 63q23 23 54.5 45.5 t60.5 47.5q14 -8 31 -9h12q0 -8 -6 -22t-18.5 -30.5t-30 -33t-37.5 -26.5q-16 0 -33.5 6t-32.5 22zM780 276v908l127 127v-1012q0 -20 -13 -28.5t-60 -8.5q-14 0 -33 8zM868 109q0 16 9.5 21t15.5 5q12 0 22 -10q0 -4 1.5 -6t1.5 -4t2 -4q0 -25 -25 -25q-14 0 -20.5 8 t-6.5 15z" />
<glyph unicode="1" horiz-adv-x="1071" d="M96 158q31 51 62.5 72.5t85.5 21.5q-12 -10 -22.5 -23.5t-12.5 -48.5q-4 0 -9 1t-14 1q-16 0 -36.5 -4t-53.5 -20zM102 119q29 23 51.5 31t59.5 8q2 -8 14 -15h-2h2q2 0 3 -1t6 -1v-14h-13l4 -16l-14 8l4 -25l-16 10l8 -18l-21 8l9 -22l-21 14l8 -31l-26 17l18 -31 q-29 0 -51.5 24.5t-22.5 53.5zM111 1317q29 49 61.5 71.5t81.5 22.5l-10 -10q-8 -8 -15.5 -23.5t-7.5 -38.5q-4 0 -9 1t-11 1q-16 0 -38 -4t-52 -20zM115 1274q43 43 110 43q2 -6 8.5 -12.5t12.5 -6.5v-12h-10l4 -18l-15 6l2 -21l-14 9l8 -21l-18 12l8 -24l-23 12l9 -29 l-25 17l16 -29q-31 0 -52 24.5t-21 49.5zM440 266v908l125 126v-1011q0 -23 -14 -30t-55 -7l-23 4q-10 2 -19.5 4t-13.5 6zM772 276v271l82 26v-297h-82zM772 592q29 53 58.5 72.5t82.5 19.5v-6l-43 -35q0 -2 -8 -14.5t-8 -16.5h-10q-2 0 -4 2q-6 0 -68 -22zM924 102 q0 16 8 21.5t14 5.5q18 0 21.5 -11.5t5.5 -13.5q0 -25 -21 -24h-4q-16 0 -20 7t-4 15z" />
<glyph unicode="2" horiz-adv-x="1112" d="M102 25v614q4 41 34 59.5t95 18.5v-557zM102 1317q31 49 62 71.5t84 22.5l-10 -10q-8 -8 -15.5 -23.5t-7.5 -38.5q-4 0 -9 1t-13 1q-14 0 -35 -4t-56 -20zM109 1274q43 43 110 43q2 -6 14 -19h9v-12h-13l4 -18l-14 6l4 -21l-16 9l8 -21l-20 12l8 -24l-21 12l8 -29l-26 17 l18 -29q-29 0 -51 24.5t-22 49.5zM135 735q37 37 57.5 55.5t35 26.5t27.5 9t36 1v-8q-41 -29 -51.5 -42t-10.5 -17t1 -4t1 -4l-4 4h-16q-10 0 -28.5 -5.5t-47.5 -15.5zM791 866v312l127 127v-416q0 -20 -14.5 -28.5t-61.5 -8.5q-6 0 -16.5 4t-34.5 10zM915 700 q0 16 9.5 22.5t13.5 6.5q25 0 25 -20v-4q0 -23 -7.5 -21t-15.5 -6q-12 0 -18.5 8t-6.5 14zM936 111q0 16 9 22t16 6q16 0 18 -9t8 -15q0 -14 -9 -20.5t-15 -6.5q-16 0 -21.5 8t-5.5 15z" />
<glyph unicode="3" horiz-adv-x="1107" d="M111 158q29 53 60.5 73.5t78.5 20.5q-6 -4 -17.5 -20.5t-11.5 -49.5q-4 0 -9 1t-11 1q-16 0 -38 -5t-52 -21zM111 1317q29 49 61.5 71.5t81.5 22.5l-10 -10q-8 -8 -15.5 -23.5t-7.5 -38.5q-4 0 -9 1t-11 1q-16 0 -38 -4t-52 -20zM115 119q23 23 48 31t62 8q2 -14 21 -15 v-14h-10l4 -18l-15 8l2 -23l-14 8l8 -18l-18 10l8 -24l-23 14l9 -31l-25 17l16 -29q-31 0 -52 24.5t-21 51.5zM115 1274q43 43 110 43q2 -6 8.5 -12.5t12.5 -6.5v-12h-10l4 -18l-15 6l2 -21l-14 9l8 -21l-18 12l8 -24l-23 12l9 -29l-25 17l16 -29q-31 0 -52 24.5t-21 49.5z M274 741q29 51 61 73t85 22q-14 -4 -24.5 -23.5t-10.5 -48.5q-4 0 -10 1t-15 1q-12 0 -33.5 -4t-52.5 -21zM279 700l28 23q16 10 38 13t46 5q2 -4 6 -10t9 -6h8v-14h-15l4 -17l-12 6l2 -20l-16 6l8 -16l-20 10l10 -27l-23 17l8 -31l-22 14l14 -28q-29 0 -51 25.5t-22 49.5z M786 276v297l84 97q10 -23 13.5 -42.5t3.5 -25.5v-7t-2 -13v-306h-99zM786 868v289l111 111v-307q-35 -70 -111 -93zM922 125q0 14 8 19.5t14 5.5q12 0 19.5 -9.5t7.5 -13.5q0 -10 -7.5 -19.5t-17.5 -9.5q-12 0 -18 10.5t-6 16.5z" />
<glyph unicode="4" horiz-adv-x="952" d="M59 1296q16 66 51 89.5t95 23.5v-4q0 -14 -9.5 -25.5t-9.5 -44.5l-47 -4q-51 -6 -80 -35zM66 473v764q4 45 32.5 61.5t94.5 16.5v-717zM571 111v335l113 129v-395q0 -14 3 -22t18 -19q-10 -29 -33 -57.5t-39 -40.5q-18 6 -38 23.5t-24 46.5zM571 723v379q0 41 34 58.5 t93 17.5v-455h-127zM571 1155q18 61 53 87t95 26q-2 -2 -2 -6v-5q-12 -16 -15.5 -27t-3.5 -34q-86 0 -127 -41zM737 102q0 16 7.5 21.5t13.5 5.5q20 0 23 -11.5t5 -13.5q0 -25 -20 -24h-4q-16 0 -20.5 7t-4.5 15zM825 541q0 14 8.5 20t14.5 6q18 0 21.5 -10t7.5 -14 q0 -12 -12.5 -17.5t-12.5 -7.5q-16 0 -21.5 9.5t-5.5 13.5z" />
<glyph unicode="5" horiz-adv-x="1075" d="M68 238q31 47 60.5 69.5t78.5 24.5q-8 -6 -19.5 -24.5t-11.5 -47.5q-4 0 -9 1t-11 1q-12 0 -34 -4t-54 -20zM72 197q23 25 49 33t61 8q4 -12 23 -19v-12h-12l4 -17l-15 7l2 -23l-14 10l6 -20l-16 10l8 -24l-21 14l7 -29l-23 15l16 -29q-33 0 -54 24.5t-21 51.5zM242 614 v660l118 112v-647zM752 274v340l108 111v-451h-108zM899 131q0 16 8 20.5t15 4.5q14 -1 22 -9q0 -6 1 -8t1 -4q0 -29 -22 -29q-16 0 -20.5 9.5t-4.5 15.5zM907 1260q0 14 8.5 20t16.5 6q25 0 24 -24q0 -18 -8 -18.5t-14 -8.5q-16 0 -21.5 9t-5.5 16z" />
<glyph unicode="6" horiz-adv-x="1054" d="M102 160v1081q4 41 34 59.5t95 18.5v-1096q0 -68 35 -80l17 -6q-27 -47 -49.5 -68.5t-47.5 -27.5q-35 16 -57.5 40.5t-26.5 78.5zM119 1321q29 55 59.5 74.5t79.5 19.5v-10q-29 -18 -34 -34.5t-5 -33.5q-2 4 -4 5t-18 1q-14 0 -35 -6t-43 -16zM231 27l35 32q20 25 43 78 q6 -6 21 -6q6 0 17 3t18 3q-14 -51 -24.5 -74.5t-37.5 -35.5h-72zM352 1264q0 16 9.5 21t15.5 5q18 0 21 -11t5 -13q0 -14 -10 -25h-10q-2 0 -4 -2q-14 0 -20.5 9t-6.5 16zM358 463v110h535l-141 -110h-394zM791 276v158l100 84v-242h-100zM930 96q0 14 8 21.5t14 7.5 q16 0 17.5 -9.5t9.5 -17.5q0 -12 -11.5 -17t-11.5 -7q-16 0 -21 8t-5 14z" />
<glyph unicode="7" horiz-adv-x="1032" d="M53 1253q0 12 2 15l84 28q0 -20 15.5 -33.5t52.5 -35.5q-16 -10 -27.5 -30.5t-11.5 -43.5q0 -18 6 -25q-68 35 -94.5 63t-26.5 62zM55 1319q27 47 57.5 70.5t84.5 23.5v-8q-41 -29 -50.5 -45.5t-9.5 -24.5v-4q0 -2 2 -2q-8 8 -18 8q-27 0 -66 -18zM221 1167 q0 14 8.5 21.5t16.5 7.5q6 0 14 -8t8 -19q0 -18 -9 -19t-13 -5q-16 0 -20.5 8t-4.5 14zM403 131q29 23 52.5 32t60.5 9q6 -20 23 -20v-9h-13l2 -18l-12 6l4 -20l-16 8l8 -21l-20 13l10 -25l-23 12l8 -30l-24 18l16 -31q-29 0 -52.5 24.5t-23.5 51.5zM408 164v397 q16 16 37.5 23.5t37.5 7.5q12 0 15 -2v-387q-14 0 -23.5 -1t-19 -6.5t-19.5 -12.5t-28 -19zM408 592q25 53 49 68.5t47 15.5q16 0 21 -6t5 -21q0 -4 -6 -7t-28 -19q-8 -2 -9 -11h-4q-2 0 -4 2h-4q-10 0 -67 -22zM514 713l225 198v271l111 106v-352l-299 -242zM557 94 q0 16 8 21.5t17 5.5q14 0 19 -9.5t5 -15.5q1 -24 -22 -24q-16 0 -21.5 8t-5.5 14z" />
<glyph unicode="8" horiz-adv-x="1071" d="M90 213v457q10 16 30.5 23t43.5 7t26 -2v-422q0 -6 4.5 -19t10.5 -26.5t12 -25.5t12 -19q-14 -6 -41.5 -26.5t-50.5 -55.5q-4 10 -14 17.5t-14 25.5q-12 25 -15.5 40.5t-3.5 25.5zM109 721q29 53 57.5 73.5t81.5 20.5q-2 -2 -2 -8q-49 -29 -56 -68q-23 -2 -42 -4t-39 -14 zM262 858v410q14 20 43 30h43v-448zM262 1317q23 47 54.5 70.5t86.5 23.5q-41 -41 -51 -52t-10 -16q0 -2 1 -3t1 -5h-8q-2 0 -4 2q-6 0 -23.5 -5t-46.5 -15zM598 858v320l111 120v-440h-111zM770 276v332l100 90v-422h-100zM901 125q0 14 9.5 19.5t17.5 5.5q16 0 19 -7.5 t3 -15.5q0 -29 -22 -29q-14 0 -20.5 10.5t-6.5 16.5z" />
<glyph unicode="9" horiz-adv-x="1052" d="M59 868v412q41 23 74 23q4 0 10.5 -1.5t16.5 -3.5v-368zM66 1313q29 53 59.5 73.5t83.5 20.5l-6 -8q-37 -20 -46.5 -30.5t-9.5 -20.5v-19q-6 6 -12 6q-18 0 -69 -22zM72 842q31 31 56.5 43t41.5 12q0 -4 9 -15.5t26 -15.5v-12h-12l4 -18l-15 6l4 -19l-16 8l8 -18l-18 10 l8 -24l-21 14l9 -33l-25 19l16 -31q-31 0 -53 25.5t-22 48.5zM641 160q31 51 61.5 72.5t79.5 21.5q-8 -6 -19 -23.5t-11 -46.5q-4 0 -9.5 1t-11.5 1q-14 0 -35.5 -5t-54.5 -21zM645 121q23 23 50.5 31t62.5 8q2 -14 20 -17v-12h-10l2 -16l-12 6l2 -23l-17 11l9 -23l-17 12 l6 -24l-20 12l8 -29l-24 17l16 -29q-31 0 -53.5 23.5t-22.5 52.5zM735 293v455l101 102v-557h-101zM741 1008v166l95 106v-272h-95zM889 104q0 16 8 22.5t14 6.5q14 0 20.5 -10t6.5 -14q0 -18 -10 -25h-10l-3 -2q-14 0 -20 8t-6 14z" />
<glyph unicode=":" horiz-adv-x="589" d="M94 352v129l80 19v-105q0 -12 6 -24.5t17 -16.5l28 -12l-65 -78q-31 10 -44.5 30.5t-21.5 57.5zM94 526q29 53 57.5 74t84.5 21v-7q-33 -18 -47.5 -40.5t-14.5 -30.5q-16 -2 -35.5 -4t-44.5 -13zM94 934v127l80 18v-104q0 -12 6 -24.5t17 -16.5l28 -12l-65 -78 q-29 10 -43.5 29.5t-22.5 60.5zM94 1102q39 94 142 94q-25 -12 -43.5 -31.5t-18.5 -42.5zM416 889q0 16 8 21t16 5q12 0 23 -10v-10q0 -2 2 -4q0 -25 -21 -25h-2q-14 0 -20 8.5t-6 14.5zM426 309q0 16 9 21.5t14 5.5q18 0 21 -11.5t5 -13.5q0 -18 -12 -24h-8q-2 0 -4 -2 q-12 0 -18.5 8t-6.5 16z" />
<glyph unicode=";" horiz-adv-x="698" d="M57 598q31 49 63 71.5t85 22.5q-12 -12 -24.5 -26t-12.5 -45q-4 0 -10 1t-11 1q-16 0 -36.5 -4.5t-53.5 -20.5zM63 555q25 25 50.5 34t60.5 9q2 -4 7 -11t16 -7v-15h-13l4 -16l-14 6l2 -18l-16 6l8 -19l-18 13l8 -25l-19 12l8 -30l-26 18l18 -33q-33 0 -54.5 25.5 t-21.5 50.5zM70 1008v127l80 18v-104l18 -37l31 -19q-20 -8 -31.5 -18t-18 -21.5t-9.5 -19.5t-5 -14q-31 10 -44 28.5t-21 59.5zM70 1178q23 53 54.5 73.5t84.5 20.5v-6q-20 -16 -32.5 -24.5t-18.5 -14.5t-7 -11.5t-1 -17.5q-4 0 -5.5 1t-3.5 1t-2 2q-10 0 -29.5 -5 t-39.5 -19zM379 965q0 16 9 21t15 5q16 0 21.5 -8t5.5 -16q0 -16 -10 -20.5t-12 -4.5q-16 0 -22.5 8t-6.5 15zM397 172v270l103 107v-375q-29 -16 -46.5 -42t-27.5 -52q-16 16 -22.5 39.5t-6.5 52.5zM553 92q0 16 9 21.5t16 5.5q16 0 22 -10.5t6 -14.5q0 -12 -9 -18t-15 -6 q-16 0 -22.5 8t-6.5 14z" />
<glyph unicode="&#x3c;" horiz-adv-x="1044" d="M63 743q0 29 12.5 45.5t41.5 45.5h69v-54l-114 -63q-8 8 -9 26zM102 606q4 35 41 49.5t74 14.5h29l641 -377l-613 323l529 -307l-582 299l490 -282l-537 278l449 -262l-484 254l336 -209zM135 862l682 406l43 -33l-647 -373h-78zM895 240q0 12 9 17t16 5q16 0 20 -8 t4 -14q0 -25 -24 -25q-12 0 -18.5 8t-6.5 17zM909 1114q0 16 9.5 20.5t15.5 4.5q16 0 18 -10.5t6 -10.5q0 -16 -12 -21t-12 -7q-16 0 -20.5 9t-4.5 15z" />
<glyph unicode="=" horiz-adv-x="1101" d="M100 600q29 49 61 71.5t85 22.5q-14 -4 -24.5 -22.5t-10.5 -46.5h-39q-27 0 -72 -25zM100 958q29 53 59.5 74t84.5 21q-12 -6 -22.5 -23.5t-10.5 -46.5q-4 0 -9 1t-14 1q-14 0 -34.5 -5t-53.5 -22zM102 559l33 23q16 10 35.5 13t46.5 5q2 -4 5 -9t16 -9v-15h-13l2 -16 l-10 8l4 -20l-16 8l6 -19l-21 11l11 -25l-23 14l10 -30l-26 16l16 -31q-29 0 -52.5 26t-23.5 50zM102 920l33 20q16 10 35.5 13t46.5 5q4 -16 21 -16v-12h-13l2 -17l-10 7l4 -23l-16 8l6 -18l-21 10l11 -25l-23 15l10 -31l-26 16l16 -30q-29 0 -52.5 25.5t-23.5 52.5z M928 532q0 16 9 20.5t15 4.5q18 0 19.5 -10t5.5 -10q0 -14 -10.5 -21.5t-12.5 -7.5q-14 0 -20 9t-6 15zM928 897q0 16 9 22.5t15 6.5q14 0 17.5 -12.5t7.5 -14.5q0 -16 -7 -16t-16 -9q-14 0 -20 8.5t-6 14.5z" />
<glyph unicode="&#x3e;" horiz-adv-x="1046" d="M98 1174q29 53 59 73.5t83 20.5q-43 -43 -61.5 -57.5t-28 -17.5t-18.5 -4t-34 -15zM102 307q31 47 61 70.5t83 23.5q-10 -4 -22.5 -21.5t-12.5 -45.5h-37q-27 0 -72 -27zM106 266q31 23 53.5 32t57.5 9q2 -16 25 -20v-11h-15l4 -16l-14 6l4 -20l-18 8l8 -21l-16 13l8 -25 l-23 12l10 -28l-26 16l16 -31q-29 0 -51.5 24t-22.5 52zM113 1102q4 37 39.5 50t74.5 13q25 0 27 -2l641 -375l-610 324l528 -307l-582 299l490 -283l-537 279l449 -264l-486 256l338 -207zM961 627q0 6 24 35q0 -4 1 -6.5t1 -4.5t2 -4q0 -16 -10 -22l-14 -2q-4 0 -4 4z" />
<glyph unicode="?" horiz-adv-x="1007" d="M61 889q29 49 61 71.5t85 22.5q-16 -16 -25.5 -28.5t-9.5 -41.5h-22q-16 0 -36 -4t-53 -20zM66 848q29 23 52 32t58 9q4 -12 23 -19v-12h-13l4 -16l-14 6l4 -21l-16 9l8 -19l-18 10l6 -24l-17 14l7 -31l-25 17l18 -31q-33 0 -55 23.5t-22 52.5zM160 1008l442 374l88 4 l-446 -378h-84zM203 786q0 16 9 21.5t13 5.5q16 0 21.5 -10t5.5 -15q0 -14 -8.5 -20t-14.5 -6q-14 0 -20 9t-6 15zM215 166q29 53 58.5 73.5t78.5 20.5q-6 -6 -16 -22.5t-10 -44.5h-39q-27 0 -72 -27zM219 127q23 23 49.5 31t61.5 8q4 -16 22 -16v-13h-12l4 -16l-14 6l4 -23 l-17 11l9 -21l-21 10l10 -24l-22 14l8 -31l-25 17l17 -31q-31 0 -52.5 25.5t-21.5 52.5zM244 606q4 8 11 19.5t17 23.5l21 29l455 397l83 10l-460 -407l-19 -23l-8 -166l-98 -61zM246 403q27 23 47 31t61 8q2 -4 8.5 -10t18.5 -6v-12h-12l2 -19l-13 8l4 -22l-16 8l8 -20 l-18 12l8 -27l-20 15l8 -27l-25 12l17 -28q-31 0 -54.5 24.5t-23.5 52.5zM375 66q0 14 9 20t15 6q10 0 21 -12l6 -12q0 -16 -11.5 -19.5t-11.5 -5.5q-16 0 -22 8t-6 15zM897 967q0 16 9 21t16 5q16 0 19 -11t5 -13q0 -25 -22 -25q-14 0 -20.5 8.5t-6.5 14.5z" />
<glyph unicode="@" horiz-adv-x="1093" d="M100 1130q25 25 46.5 34.5t62.5 9.5q2 -6 9 -12.5t18 -6.5v-12h-13l2 -17l-12 4l4 -18l-16 8l8 -20l-21 12l11 -27l-23 15l10 -31l-26 16l16 -30q-29 0 -52.5 25.5t-23.5 49.5zM106 260v416l103 49v-369q23 -90 55.5 -140t91.5 -69q-6 -25 -17 -53t-38 -57 q-72 16 -122 71.5t-73 151.5zM106 1157q12 49 37 91t57.5 73t70.5 49.5t77 18.5q-51 -27 -79.5 -54.5t-42 -54.5t-15.5 -50.5t-2 -41.5q-23 -2 -47.5 -8t-55.5 -23zM125 725q12 31 32.5 58.5t45 49t50.5 35t48 13.5v-9q-8 -8 -23.5 -21t-30 -28.5t-24.5 -30t-10 -24.5z M258 1114q0 16 9 20.5t14 4.5q23 0 23.5 -10.5t4.5 -10.5q0 -20 -7 -19t-17 -9q-14 0 -20.5 9t-6.5 15zM440 307v369l103 108v-417l-43 -35zM461 92q0 16 9 21.5t13 5.5q15 0 25 -10q0 -4 1 -6.5t1 -4.5t2 -4q0 -25 -27 -24q-12 0 -18 8t-6 14zM743 1155l93 94l28 -37 l10 -24v-821l-38 -35l-58 -25v805zM870 131q0 16 8.5 20.5t14.5 4.5q23 0 24 -10.5t5 -10.5q0 -10 -7.5 -19.5t-17.5 -9.5q-16 0 -21.5 9.5t-5.5 15.5z" />
<glyph unicode="A" horiz-adv-x="1030" d="M70 137q45 43 108 43q2 -4 8.5 -12t18.5 -12v-11h-12l2 -16l-13 8l4 -24l-16 10l8 -21l-20 11l10 -25l-21 14l9 -28l-25 14l16 -31q-31 0 -54 26t-23 54zM78 188l325 1092l82 18l-307 -1081zM227 88q0 12 9.5 18.5t13.5 6.5q16 0 19 -10.5t7 -14.5q0 -12 -10 -22h-10 q-2 0 -4 -3q-12 0 -18.5 9.5t-6.5 15.5zM416 1317q10 55 48 74.5t91 19.5v-8q-33 -14 -45 -37t-12 -31q-23 0 -46.5 -5t-35.5 -13zM543 893l41 207l153 -533h-98zM698 305l95 115l45 -203l-101 -47zM752 131q23 23 43 31t61 8q8 -12 29 -18v-11h-13l5 -16l-15 6l4 -22 l-16 10l6 -23l-18 13l10 -25l-21 12l9 -28l-25 16l16 -31q-31 0 -53 25.5t-22 52.5zM909 88q0 12 8.5 18.5t16.5 6.5q12 0 22 -13l2 -12q0 -12 -10 -22h-10q-2 0 -4 -3q-16 0 -20.5 9.5t-4.5 15.5z" />
<glyph unicode="B" horiz-adv-x="1103" d="M117 43v1239l100 94v-1224zM739 279q35 35 51.5 82t16.5 81v15q0 66 -49 118l92 62q20 -35 28.5 -71t8.5 -68q0 -125 -82 -185zM739 862q31 31 49.5 75t18.5 89v14q0 31 -11.5 62t-37.5 55l92 76q16 -37 26.5 -79t10.5 -73q0 -66 -23.5 -114.5t-58.5 -71.5zM860 156 q0 14 9.5 20t15.5 6q14 0 24 -12v-10l2 -2q0 -10 -8 -17.5t-14 -7.5q-16 0 -22.5 9.5t-6.5 13.5zM924 217q0 23 18 23q20 0 21 -19q-1 -10 -5 -14q-8 -8 -14 -8q-20 0 -20 18zM924 797q0 22 17 22h1q13 0 19 -6q2 -2 2 -12q0 -25 -17 -25q-23 0 -22 21z" />
<glyph unicode="C" horiz-adv-x="1073" d="M80 719q0 31 7 81t30 93l192 360l84 23l-178 -340q-43 -80 -43 -193q0 -47 9 -80.5t34 -76.5l195 -348l-103 -58l-190 387q-23 45 -30 82t-7 70zM326 145q45 55 116 56q0 -14 27 -23v-12h-14l4 -14l-13 4l5 -19l-17 8l8 -20l-18 12l10 -26l-24 14l10 -31l-27 17l17 -29 q-29 0 -45.5 15.5t-38.5 47.5zM332 1298q12 23 34.5 43.5t50 36t57.5 24.5t54 9l-18 -20q-59 -37 -76.5 -55.5t-17.5 -22.5q-12 6 -21 6q-10 0 -28.5 -7t-34.5 -14zM911 100q0 31 27 31q14 0 23.5 -9.5t9.5 -21.5q0 -26 -31 -26h-2q-27 0 -27 26zM911 1270q0 10 8.5 19 t18.5 9q29 0 29 -28q0 -11 -6 -17q-10 -12 -23 -12q-10 0 -18.5 7t-8.5 22z" />
<glyph unicode="D" horiz-adv-x="1073" d="M111 154q29 53 59.5 73.5t77.5 20.5q-4 -4 -15.5 -20.5t-11.5 -49.5q-4 0 -9 1t-11 1q-16 0 -38 -5t-52 -21zM111 1317q29 49 61.5 71.5t81.5 22.5l-10 -10q-8 -8 -15.5 -23.5t-7.5 -38.5q-4 0 -9 1t-11 1q-16 0 -38 -4t-52 -20zM115 113q25 25 48 33t62 8 q2 -4 9.5 -10.5t11.5 -6.5v-12h-10l4 -19l-15 7l2 -21l-14 8l8 -18l-18 10l8 -24l-23 14l9 -33l-25 19l16 -29q-31 0 -52 24.5t-21 49.5zM115 1274q43 43 110 43q2 -6 8.5 -12.5t12.5 -6.5v-12h-10l4 -18l-15 6l2 -21l-14 9l8 -21l-18 12l8 -24l-23 12l9 -29l-25 17l16 -29 q-31 0 -52 24.5t-21 49.5zM279 279v890l96 99v-989h-96zM547 1186l37 100q10 2 18 3t12 1q29 0 45.5 -15t22.5 -34l176 -348q23 -37 30 -74t7 -55q0 -35 -10.5 -63.5t-26.5 -57.5l-168 -319q-8 -14 -21.5 -26.5t-29.5 -14.5l-64 -7q20 16 35 38t23 38l137 291 q10 25 17.5 50.5t7.5 47.5q0 39 -19 74l-186 340q-14 27 -43 31zM688 119q0 27 21 26q10 0 19 -7t9 -17q1 -27 -24 -27t-25 25zM745 168q0 16 17 16q4 0 10 -6t6 -14q0 -4 -6 -9t-12 -5t-10.5 6t-4.5 12z" />
<glyph unicode="E" d="M113 39v1243l106 96v-1226zM575 700q0 27 25 27q27 0 27 -25q0 -12 -7.5 -18t-15.5 -6q-14 0 -21.5 7t-7.5 15zM641 727q0 6 6 11t10 5q20 0 21 -16q0 -4 -4 -8q-6 -8 -12 -8q-8 0 -14.5 6t-6.5 10zM909 1241q0 14 8.5 22.5t16.5 8.5q27 0 27 -31q-1 -8 -7 -14 q-8 -8 -18 -8t-18.5 7t-8.5 15zM918 92q0 14 10 21.5t16 7.5q25 0 29 -25v-4q0 -26 -25 -26h-2q-18 0 -23 11t-5 15zM965 1282q0 4 6 10t16 6q4 0 11.5 -5t7.5 -15q0 -4 -6.5 -10t-16.5 -6q-6 0 -12 6t-6 14zM973 129q0 2 6 9t10 7q18 0 19 -16q0 -6 -4 -10q-10 -6 -15 -6 q-16 0 -16 16z" />
<glyph unicode="F" horiz-adv-x="1038" d="M117 106q35 29 65.5 38.5t40.5 9.5q2 -4 9.5 -10.5t13.5 -6.5v-12h-13l5 -19l-15 7l2 -21l-14 8l8 -18l-18 10l8 -24l-23 14l9 -33l-25 19l16 -29q-29 0 -49 21.5t-20 45.5zM117 139v1135l98 84v-1157zM266 117q0 25 21 24q20 0 20 -22q0 -8 -10 -19l-8 -2q-23 0 -23 19z M731 815q0 27 25 27q27 0 26 -25q0 -14 -9 -21.5t-17 -7.5q-14 0 -19.5 9.5t-5.5 17.5zM899 1249q0 16 12.5 24.5t20.5 8.5q16 0 24.5 -12.5t8.5 -22.5q0 -16 -10.5 -23t-20.5 -7q-18 0 -26.5 10t-8.5 22zM975 1288q0 10 16 10q6 0 10 -12q0 -10 -12 -12q-14 0 -14 14z" />
<glyph unicode="G" horiz-adv-x="1089" d="M96 336v479q0 66 17.5 108t58.5 93l227 282q35 45 68 65.5t68 31.5l-58 -70l-252 -336q-16 -23 -27.5 -65.5t-11.5 -83.5v-471q0 -59 23.5 -112.5t73.5 -86.5l-84 -68q-63 35 -83 97.5t-20 136.5zM506 598q29 47 61.5 69.5t81.5 22.5q-4 -10 -18.5 -21t-14.5 -48 q-4 0 -9 1t-13 1q-14 0 -35.5 -4.5t-52.5 -20.5zM510 555q23 23 52.5 33t58.5 10q2 -8 16 -16h-4q0 -4 8 -4v-13h-10l6 -14l-16 4l4 -18l-17 6l8 -19l-18 13l8 -27l-20 14l8 -30l-27 16l19 -29q-29 0 -52.5 22.5t-23.5 51.5zM854 127q0 16 11.5 23.5t21.5 7.5 q16 0 24.5 -10.5t8.5 -20.5q0 -14 -10.5 -23.5t-22.5 -9.5q-14 0 -23.5 11.5t-9.5 21.5zM918 1268q0 8 9 17t13 9q12 0 21.5 -8t9.5 -20q0 -9 -8 -17q-10 -10 -21 -10q-10 0 -17 9t-7 20z" />
<glyph unicode="H" horiz-adv-x="1114" d="M102 1305q29 106 140 106v-6q-23 -16 -23 -45v-12q-29 -2 -56.5 -13.5t-60.5 -29.5zM111 160v1089q12 29 38.5 48.5t67.5 19.5v-1116q0 -63 51 -64q4 0 6 1t7 1q-35 -55 -57.5 -77.5t-37.5 -22.5q-43 23 -59 51.5t-16 69.5zM272 94q0 27 25 27q6 0 14 -6.5t8 -18.5 q0 -20 -22 -20q-25 0 -25 18zM782 156v438l115 115v-488q0 -88 53 -88q10 0 13 2l-37 -51q-37 -49 -60 -49q-35 16 -51 43.5t-33 77.5zM782 858v416l103 24v-440h-103zM791 1317q31 55 60.5 74.5t80.5 19.5v-6q-35 -23 -41 -39t-6 -31q-2 2 -19 2q-10 0 -28.5 -5t-46.5 -15z M975 96q0 6 7 13.5t17 7.5q6 0 13.5 -7.5t7.5 -15.5q0 -4 -6 -10t-15 -6q-10 0 -17 6t-7 12z" />
<glyph unicode="I" horiz-adv-x="1103" d="M109 154q29 53 61.5 73.5t81.5 20.5q-10 -10 -21.5 -23.5t-11.5 -46.5q-2 0 -7 1t-13 1q-14 0 -38 -5t-52 -21zM109 1317q29 49 61.5 71.5t81.5 22.5q-10 -12 -21.5 -26.5t-11.5 -45.5q-2 0 -7 1t-13 1q-14 0 -38 -4t-52 -20zM113 113q25 25 50 33t60 8q2 -8 23 -17v-12 h-13l5 -19l-15 7l2 -21l-14 8l8 -18l-18 10l8 -24l-23 14l9 -33l-25 19l16 -29q-29 0 -51 24.5t-22 49.5zM113 1274q25 25 50 34t60 9q4 -12 23 -19v-12h-13l5 -18l-15 6l2 -21l-14 9l8 -21l-18 12l8 -24l-23 12l9 -29l-25 17l16 -29q-29 0 -51 24.5t-22 49.5zM444 276v902 l109 116v-1018h-109zM887 1239q0 18 14 18q6 0 12.5 -3t6.5 -13q-1 -16 -17 -16t-16 14zM926 1280q0 6 6 15.5t18 9.5q6 0 16.5 -7.5t10.5 -17.5q0 -12 -6 -18q-10 -10 -19 -11q-8 0 -17 7.5t-9 21.5zM942 100q0 18 7 23.5t16 5.5q16 0 22 -8t6 -17q0 -16 -9 -21t-15 -5 q-16 0 -21.5 8t-5.5 14z" />
<glyph unicode="J" horiz-adv-x="884" d="M43 289v266q23 12 42 16t32 4h28v-188q0 -47 11.5 -84t27 -63.5t34 -44t34.5 -25.5l14 -8q2 -2 6 -4t27 -4q-25 -12 -45.5 -40t-30.5 -53q-41 6 -73.5 35t-56 65t-37 71.5t-13.5 56.5zM49 590q14 49 51 71.5t90 22.5v-6q-29 -23 -37 -39t-8 -31q-20 0 -43.5 -4t-52.5 -14 zM549 287q6 10 12 24.5t6 28.5v932q16 16 29.5 21t34.5 5h18v-929q0 -35 -19.5 -60.5t-54.5 -25.5q-6 0 -12 1t-14 3zM567 1321q14 49 48 71.5t81 22.5q-27 -10 -43 -30.5t-14 -47.5q-23 0 -38 -5t-34 -11zM657 137q0 23 23 23q27 0 27 -23q0 -10 -7.5 -17t-15.5 -7 q-27 0 -27 24zM723 184q0 4 6 10.5t10 6.5t10.5 -4.5t6.5 -14.5q0 -4 -5.5 -10t-11.5 -6q-4 0 -10 5t-6 13z" />
<glyph unicode="K" horiz-adv-x="1112" d="M98 1305q29 106 140 106l4 -8q-14 -4 -20.5 -14.5t-6.5 -16.5v-24q-37 -12 -61.5 -20.5t-55.5 -22.5zM109 160v1079q12 31 31.5 49.5t74.5 28.5v-1116q0 -31 10.5 -47.5t50.5 -16.5q-35 -53 -57 -75.5t-37 -22.5q-31 16 -50 41.5t-23 79.5zM344 459v176l436 -359 l-413 308l323 -299l-328 254l254 -250l-256 209l150 -179zM354 920v67l469 397q16 16 46 21.5t65 5.5zM911 1229q0 14 15 14q2 0 7 -4t5 -10q-4 0 -4 -8q0 -2 -6 -2h-2q-14 0 -15 10zM948 113q0 16 8.5 23t16.5 7q14 0 24 -10q6 -12 7 -18q0 -12 -10.5 -19.5t-18.5 -7.5 q-16 0 -21.5 8t-5.5 17zM954 1274q0 12 7.5 18t13.5 6q10 0 18 -4t8 -20q0 -12 -8 -16.5t-14 -4.5q-12 0 -18.5 7.5t-6.5 13.5z" />
<glyph unicode="L" horiz-adv-x="1042" d="M119 39v1235l90 24v-1140zM119 1321q8 47 41 70.5t82 23.5q-20 -23 -26.5 -40t-6.5 -38q-57 0 -90 -16zM891 72q0 16 12 16q20 0 21 -18q0 -5 -4 -9t-13 -4q-16 0 -16 15zM961 119q0 8 7 15t21 7q6 0 12.5 -6t6.5 -18q0 -8 -7.5 -15.5t-19.5 -7.5q-20 0 -20 25z" />
<glyph unicode="M" horiz-adv-x="1114" d="M123 106q35 29 65.5 38.5t40.5 9.5q2 -2 15 -13l6 -4v-12h-10l4 -19l-15 7l2 -21l-14 8l8 -18l-18 10l8 -24l-22 14l8 -33l-25 19l17 -29q-31 0 -50.5 21.5t-19.5 45.5zM123 139v1135l98 102v-1175zM348 1020v229l213 -262l-188 191l135 -191l-137 146l90 -146l-92 105 l55 -105l-59 57l22 -57zM451 836q35 29 66.5 40t41.5 11q4 -14 12 -17l2 -2q2 0 3.5 -1t5.5 -1v-12h-13l2 -18l-12 6l2 -19l-16 8l8 -18l-16 10l8 -24l-23 14l10 -33l-26 19l16 -31q-29 0 -50 22.5t-21 45.5zM575 1155l181 248h94l-229 -309zM608 831q0 16 9.5 21.5 t15.5 5.5q16 0 20 -9t4 -13q0 -16 -8 -21.5t-14 -5.5q-14 0 -20.5 8t-6.5 14zM797 106l43 27q53 20 65 21q2 -2 15 -13l8 -4v-12h-13l5 -19l-15 7l2 -21l-14 8l6 -18l-16 10l8 -24l-23 14l9 -33l-27 19l18 -29q-31 0 -51 21.5t-20 45.5zM797 139v955l98 139v-1032zM952 96 q0 25 23 25q27 0 26 -25l-8 -14q-8 -8 -18 -8q-23 0 -23 22z" />
<glyph unicode="N" horiz-adv-x="1110" d="M119 106q35 29 65.5 38.5t40.5 9.5q2 -2 15 -13l6 -4v-12h-10l4 -19l-15 7l2 -21l-14 8l8 -18l-18 10l8 -24l-23 14l9 -33l-25 19l16 -29q-31 0 -50 21.5t-19 45.5zM119 139v1135l98 84v-1157zM274 102q0 4 5.5 13.5t17.5 9.5q4 0 12 -6t8 -15q-4 -4 -4 -12 q-6 -12 -14 -12q-6 0 -15.5 5t-9.5 17zM342 1169l530 -1017l-503 907l393 -819l-395 735l307 -664l-312 592l187 -452l-199 397zM793 625v649l98 41v-893zM793 1315q16 53 53 77.5t88 24.5v-8q-49 -18 -62 -68q-12 0 -29.5 -5t-49.5 -21z" />
<glyph unicode="O" horiz-adv-x="1042" d="M72 719q0 35 11 83t26 91l194 360l86 23l-180 -340q-18 -41 -31.5 -87t-13.5 -106q0 -47 10 -81.5t35 -75.5l194 -348l-102 -58l-192 387q-20 45 -28.5 84t-8.5 68zM322 145q18 29 51 42.5t63 13.5q4 -10 17 -19l8 -4v-12h-10l2 -14l-13 4l4 -19l-16 8l8 -20l-20 12 l10 -26l-23 14l11 -31l-25 17l14 -29q-20 0 -34 8l-17 14q-14 14 -30 41zM328 1298q29 47 84 80t110 33l-20 -20q-41 -25 -67.5 -49.5t-26.5 -28.5q-10 6 -17 6q-14 0 -32.5 -7t-30.5 -14zM516 1186l35 100q10 2 18.5 3t12.5 1q29 0 45 -15t22 -34l178 -348q23 -37 29 -74 t6 -55q0 -20 -9 -56t-26 -65l-178 -315l-41 -45l-57 -7q27 16 40 37t17 39l129 291q18 37 20.5 58.5t2.5 37.5q0 14 -17 76l-186 340zM682 141q0 4 5 12.5t18 8.5q23 0 22 -21q0 -10 -6 -16t-16 -6q-23 0 -23 22zM713 188q0 4 5 10.5t11 6.5q2 0 7 -4.5t5 -10.5 q0 -14 -14 -14t-14 12z" />
<glyph unicode="P" horiz-adv-x="1054" d="M117 106q35 29 65.5 38.5t40.5 9.5q2 -4 9.5 -10.5t13.5 -6.5v-12h-13l5 -19l-15 7l2 -21l-14 8l8 -18l-18 10l8 -24l-23 14l9 -33l-25 19l16 -29q-29 0 -49 21.5t-20 45.5zM117 139v1135l98 84v-1157zM788 815v340l74 86q27 -29 27 -61v-281q0 -16 -12.5 -35.5 t-32.5 -27.5zM883 631q0 14 12 14q20 0 20 -16q0 -4 -4 -8q-4 -6 -12 -7q-16 0 -16 17zM932 694q0 12 8 17.5t14 5.5q7 0 17 -10q0 -12 4 -13q0 -8 -9.5 -13t-11.5 -5q-12 0 -17 7t-5 11z" />
<glyph unicode="Q" horiz-adv-x="1081" d="M88 297v479q0 66 14.5 113t61.5 88l409 352q25 20 44.5 33.5t39 21t40 12.5t46.5 11q-23 -14 -43 -30.5t-41 -33.5l-436 -380q-25 -23 -35 -79.5t-10 -121.5v-428q0 -63 26.5 -116.5t69.5 -82.5l-84 -69q-66 37 -84 96t-18 135zM422 586q14 53 48 73.5t77 20.5v-8 q-55 -37 -58 -66q-8 0 -22 -3t-45 -17zM434 543l15 16q23 16 53 16l45 -126l-58 -41zM573 170l86 92l52 -110l-90 -113zM760 606v555l94 107v-537q0 -18 -6 -40.5t-23 -37.5zM885 88q0 8 8 19.5t18 11.5q21 -1 27 -17q0 -6 1 -8t1 -4q0 -16 -11 -21.5t-11 -7.5 q-20 0 -26.5 10.5t-6.5 16.5zM952 127l4 6q2 8 11 8q6 0 12 -12q0 -4 -4 -10t-10 -6l-7 4q-6 2 -6 10z" />
<glyph unicode="R" horiz-adv-x="1101" d="M117 106q35 29 65.5 38.5t40.5 9.5q2 -2 15 -13l8 -4v-12h-13l5 -19l-15 7l2 -21l-14 8l8 -18l-18 10l8 -24l-23 14l9 -33l-25 19l16 -29q-29 0 -49 21.5t-20 45.5zM117 139v1112l98 107v-1157zM420 739l76 115l395 -678l-385 604l291 -518l-316 496l228 -424l-260 416 l190 -363zM788 1001v154l74 86q27 -29 27 -61v-95q0 -18 -14.5 -36.5t-30.5 -24.5zM913 78q0 16 10.5 28.5t26.5 12.5q14 0 26.5 -12.5t12.5 -24.5q0 -16 -12.5 -27.5t-26.5 -11.5q-16 0 -26.5 11.5t-10.5 23.5zM979 127q0 18 18 18q16 0 17 -18q-1 -21 -17 -21 q-6 0 -12 7.5t-6 13.5z" />
<glyph unicode="S" horiz-adv-x="1091" d="M102 279q0 53 32 84.5t93 31.5q-2 -6 -6 -10t-4 -6q-12 -20 -14 -27.5t-2 -17.5q0 -20 6 -41l8 -31q-12 -10 -41 -26.5t-57 -28.5q-14 29 -15 72zM131 162q35 20 62.5 36.5t39.5 28.5q6 -12 9.5 -16t4.5 -8t5 -9.5t14 -17.5l-18 4l2 -18l-12 6l4 -18l-17 6l8 -17l-18 11 l8 -25l-20 14l8 -33l-25 19l17 -31q-25 4 -43.5 27.5t-28.5 40.5zM139 1305q25 49 59.5 71.5t88.5 22.5h22q-27 -10 -48 -27.5t-34 -46.5q-4 2 -22 2q-47 0 -66 -22zM303 1061l567 -719q6 -10 7 -18q0 -23 -16.5 -35.5t-39.5 -12.5h-71l-209 271l219 -234l-371 478l402 -455 l-465 612l491 -600zM346 1245q0 4 5 12.5t16 8.5q18 -1 18 -17q0 -10 -7 -15t-16 -5q-16 0 -16 16zM791 1128q49 31 72.5 41.5t29.5 22.5q0 -10 14 -25l13 -12v-12h-13l4 -15l-14 5l4 -21l-16 10l8 -20l-19 10l7 -27l-21 17l8 -31l-24 14l16 -28q-31 0 -50 22.5t-19 48.5z M834 94q0 14 9 23.5t17 9.5q17 0 25 -14q8 -6 8 -17q0 -10 -7 -20t-24 -10q-14 0 -21 10t-7 18zM932 1098q0 20 18 20q4 0 12.5 -4t8.5 -16q0 -20 -21 -21q-18 0 -18 21z" />
<glyph unicode="T" horiz-adv-x="1026" d="M68 1149q53 14 78.5 29.5t25.5 19.5q2 -4 6 -10t8 -14l13 -15v-10h-15l6 -16l-12 6l2 -21l-16 10l8 -22l-18 12l8 -26l-21 14l6 -29l-24 15l18 -29q-25 0 -49 19.5t-24 66.5zM68 1186v96l104 80v-131zM225 1133q0 12 8.5 18t14.5 6q8 0 15 -7t7 -17q0 -6 -7 -13.5 t-15 -7.5q-10 0 -16.5 8t-6.5 13zM412 106q47 27 69.5 36.5t36.5 9.5q2 -4 7 -9.5t10 -5.5h6v-14h-11l2 -17l-14 7l6 -23l-16 10l8 -18l-20 8l10 -24l-23 16l9 -33l-25 17l16 -29q-31 0 -51 22.5t-20 46.5zM412 137v1065l100 82v-1085zM563 119q0 6 5 13t14 7q4 0 20 -10 q2 -2 2 -10q0 -6 -6 -14.5t-16 -8.5q-8 0 -13.5 7.5t-5.5 15.5zM748 1151q51 16 74.5 29.5t27.5 17.5l8 -12t21 -23v-12h-13l2 -16l-14 6l6 -21l-16 10l6 -20l-16 10l8 -24l-21 14l8 -31l-24 17l16 -31q-33 0 -53 21.5t-20 64.5zM907 1141q0 22 17 22h2q20 0 20 -20 q0 -11 -6 -13q-6 -6 -12 -6q-20 0 -21 17z" />
<glyph unicode="U" d="M100 301v956q0 41 34 59.5t93 18.5v-1018q0 -43 19.5 -69.5t36.5 -40.5q-49 -47 -75 -61.5t-42 -16.5q-18 16 -42 64.5t-24 107.5zM115 1335q18 29 50 45.5t62 16.5q2 -2 9 -2q-25 -10 -25 -37h-14q-18 0 -39 -7.5t-43 -15.5zM195 102q29 23 56.5 44.5t57.5 50.5 q10 -8 22.5 -17.5t18.5 -9.5q0 -10 -8 -25.5t-22.5 -31t-31 -28.5t-34.5 -22q-35 0 -59 39zM786 287v970q0 47 31 62.5t90 15.5v-966q-29 -82 -121 -82zM793 1335q20 29 52 45.5t62 16.5q2 -2 8 -2q-27 -8 -26 -37h-12q-18 0 -40 -7.5t-44 -15.5zM868 147q0 14 8.5 21.5 t16.5 7.5q12 0 19.5 -9.5t7.5 -19.5q0 -22 -25 -22h-2q-12 0 -18.5 9t-6.5 13zM948 219q0 14 13 14q4 0 11 -5t7 -11q0 -8 -6 -11t-10 -3q-14 0 -15 16z" />
<glyph unicode="V" horiz-adv-x="1044" d="M84 1008v272q20 29 43 35t29 6q8 0 14 -1t14 -3v-258l340 -875l-41 -43l-59 -14zM88 1317q29 53 58.5 73.5t82.5 20.5q-2 -2 -2 -8q-4 -4 -15 -12.5t-21.5 -17.5t-18.5 -19.5t-8 -18.5h-10l-2 2q-18 0 -64 -20zM539 70q0 12 8 21t22 9q12 0 21.5 -9t9.5 -21 q0 -16 -9.5 -23.5t-21.5 -7.5q-16 0 -23 10t-7 21zM539 492l211 540v248h12q12 25 34.5 35t34.5 10t29 -8v-242l-274 -704zM614 133q0 2 3.5 6t7.5 4q10 0 10 -10q0 -4 -2 -6q-4 -4 -8 -4q-10 0 -11 10zM750 1317q31 55 61.5 74.5t79.5 19.5q2 -2 2 -4v-4q-2 -4 -21.5 -25.5 t-19.5 -42.5q-2 2 -21 2q-14 0 -35.5 -5t-45.5 -15z" />
<glyph unicode="W" horiz-adv-x="1107" d="M100 254v1003q0 41 34 59.5t93 18.5v-1018q0 -35 23.5 -85t79.5 -103q-16 -41 -42 -62.5t-42 -23.5q-23 10 -40.5 38t-49.5 81zM115 1335q18 29 50 45.5t62 16.5q2 -2 9 -2q-25 -10 -25 -37h-14q-18 0 -39 -7.5t-43 -15.5zM442 276v551q4 43 35 60.5t92 17.5v-534 l-65 -95h-62zM453 905q20 29 54 44.5t62 15.5q0 -2 6 -2q-25 -10 -24 -33h-10q-20 0 -42 -8.5t-46 -16.5zM782 279v978q4 43 36 59.5t91 16.5v-919q-18 -41 -40.5 -77t-39.5 -61zM795 1333q49 61 114 62q2 -2 9 -2q-25 -10 -25 -39q-2 0 -2 2h-12q-27 0 -84 -23zM836 106 q0 14 12 23.5t20 9.5q18 0 25.5 -13.5t7.5 -19.5q0 -12 -10 -21t-23 -9q-12 0 -22 10t-10 20z" />
<glyph unicode="X" d="M92 1303q8 41 43 76.5t90 35.5q20 0 23 -2q-25 -18 -25 -67zM98 1274l127 49l316 -510l-308 447l250 -431l-278 404l188 -344l-231 340l133 -242zM100 170l314 551l135 59l-334 -565zM109 127q41 25 67.5 35t38.5 10q2 -8 14 -16l9 -4v-9h-13l4 -16l-14 6l2 -22l-14 10 l6 -23l-16 13l8 -25l-23 12l8 -28l-24 16l16 -31q-31 0 -50 22.5t-19 49.5zM246 94q0 14 10 23.5t20 9.5q14 0 24.5 -11.5t10.5 -21.5q0 -14 -11 -23.5t-24 -9.5q-14 0 -22 10.5t-8 22.5zM565 475l62 174l280 -467l-268 396l231 -388l-252 357l185 -316l-201 285l103 -182 l-113 162l51 -117zM580 987l172 293l102 18l-223 -383zM791 1317q25 53 55.5 73.5t85.5 20.5q-41 -41 -52.5 -52t-11.5 -16q0 -2 1 -3t1 -5l-12 2q-6 0 -22.5 -5t-44.5 -15zM885 70q0 4 2 4q2 -1 43 -19q-8 -8 -21 -8q-12 0 -18 8t-6 15zM946 119q0 10 8.5 18t16.5 8h2 q24 0 24 -26q0 -12 -9 -19.5t-17 -7.5q-25 0 -25 27z" />
<glyph unicode="Y" horiz-adv-x="1028" d="M59 1130v146l103 41v-119zM59 1296q23 115 142 115q2 -2 2 -4v-2q0 -2 2 -4q-6 -2 -13.5 -11.5t-14.5 -20.5t-11 -21.5t-4 -12.5q-35 -12 -57.5 -20t-45.5 -19zM412 106q47 27 69.5 36.5t36.5 9.5q2 -4 7 -9.5t10 -5.5h6v-14h-11l2 -17l-14 7l6 -23l-16 10l8 -18l-20 8 l10 -24l-23 16l9 -33l-25 17l16 -29q-31 0 -51 22.5t-20 46.5zM412 137v525l100 86v-549zM539 49q0 6 4 13.5t18 7.5q4 0 11.5 -5.5t7.5 -15.5v-4q0 -2 -1 -3t-1 -5q-6 -10 -21 -10q-4 0 -11 6t-7 16zM541 928l196 250v98l115 41v-94l-274 -344zM590 100q0 2 4 9.5t10 7.5 l2 -2q4 -4 10 -6q0 -4 1 -5.5t1 -3.5t3 -2q0 -12 -15 -12q-4 0 -10 5t-6 9zM737 1296q23 115 142 115q0 -6 2 -8q-23 -23 -28 -30t-5 -15q0 -4 1 -9.5t3 -13.5zM926 1118q0 12 16 12q12 0 14 -12q0 -4 -4 -12t-14 -8q-12 0 -12 20z" />
<glyph unicode="Z" horiz-adv-x="1107" d="M111 43v127l579 1004l141 100l-620 -1059v-45zM111 1317q29 49 61.5 71.5t81.5 22.5l-10 -10q-8 -8 -15.5 -23.5t-7.5 -38.5q-4 0 -9 1t-11 1q-16 0 -38 -4t-52 -20zM115 1274q43 43 110 43q2 -6 8.5 -12.5t12.5 -6.5v-12h-10l4 -18l-15 6l2 -21l-14 9l8 -21l-18 12 l8 -24l-23 12l9 -29l-25 17l16 -29q-31 0 -52 24.5t-21 49.5zM891 80q0 18 10 24.5t17 6.5q18 0 19 -8.5t11 -18.5q0 -23 -8 -22t-18 -9q-18 0 -24.5 10.5t-6.5 16.5zM961 123q0 6 8 13t16 7q4 0 11.5 -7t7.5 -13t-7.5 -14.5t-15.5 -8.5q-4 0 -12 6.5t-8 16.5z" />
<glyph unicode="[" horiz-adv-x="851" d="M96 160v1079q16 37 38 52.5t75 25.5v-1116q0 -63 53 -64q4 0 6 1t6 1l-34 -51q-23 -29 -39.5 -38t-22.5 -11q-43 20 -67 74zM96 1305q23 106 140 106q4 -4 2 -4t2 -4q-29 -29 -29 -31v-24q-33 -14 -59.5 -20.5t-55.5 -22.5zM635 90q0 12 7 21.5t17 9.5q6 0 18.5 -7.5 t12.5 -19.5t-9 -20t-22 -8q-25 0 -24 24zM649 1257q0 8 7.5 18.5t19.5 10.5q10 0 20.5 -7t10.5 -22q-1 -12 -9 -18q-10 -10 -22 -10q-8 0 -17.5 6t-9.5 22zM715 127q0 6 6 11t12 5q4 0 10.5 -5t6.5 -11q0 -4 -6.5 -11t-10.5 -7q-6 0 -12 7t-6 11zM715 1317q0 14 14 14 q4 0 11.5 -2t7.5 -12q0 -4 -6.5 -10.5t-12.5 -6.5q-14 0 -14 17z" />
<glyph unicode="\" horiz-adv-x="976" d="M41 1325q29 59 61.5 77.5t79.5 18.5l-2 -6q-25 -23 -39 -37t-16 -32l-14 4q-27 0 -70 -25zM49 1270l29 28l53 15l35 4l678 -1149l-656 1085l594 -1042l-628 1038l553 -977l-586 975l469 -850l-504 846l332 -610zM823 76q0 16 11.5 25.5t19.5 9.5q16 0 26.5 -11.5 t10.5 -23.5q0 -14 -10.5 -22.5t-24.5 -8.5q-16 0 -24.5 10.5t-8.5 20.5zM911 127q0 18 17 18q14 0 14 -18q0 -21 -14 -21q-16 0 -17 21z" />
<glyph unicode="]" horiz-adv-x="847" d="M96 162q31 53 61.5 73.5t78.5 20.5q-14 -6 -21.5 -21.5t-7.5 -48.5q-4 0 -9 1t-12 1q-16 0 -36.5 -5t-53.5 -21zM100 121q18 12 29.5 19t23 12.5t24.5 7.5t36 2q8 -10 12 -13.5t11 -3.5v-12h-15l4 -18l-12 6l4 -21l-18 9l8 -21l-19 12l11 -24l-25 12l10 -31l-26 19 l16 -31q-29 0 -51.5 24.5t-22.5 51.5zM104 1317q31 49 63 71.5t81 22.5l-10 -10q-8 -8 -15.5 -23.5t-7.5 -38.5q-4 0 -9 1t-11 1q-16 0 -37 -4t-54 -20zM109 1274q43 43 110 43q2 -6 8 -12.5t15 -6.5v-12h-13l4 -18l-14 6l2 -21l-14 9l8 -21l-18 12l8 -24l-23 12l8 -29 l-24 17l16 -29q-29 0 -51 24.5t-22 49.5zM528 279v895l105 112l-2 -1007h-103zM621 90q0 16 9 23.5t15 7.5q17 -1 25 -15q6 -4 6 -14q0 -14 -9.5 -20t-19.5 -6q-12 0 -19 9t-7 15zM705 119q0 4 5 11t13 7q4 0 10 -7t6 -11q0 -6 -6 -11.5t-12 -5.5q-4 0 -10 5.5t-6 11.5z" />
<glyph unicode="`" horiz-adv-x="745" d="M100 1749q27 47 56.5 65.5t81.5 18.5q-14 -12 -23.5 -22.5t-9.5 -41.5q-4 0 -9.5 1.5t-11.5 1.5q-16 0 -35.5 -4.5t-48.5 -18.5zM102 1712q25 18 48.5 27.5t58.5 9.5q2 -4 6 -9t14 -9v-11h-12l4 -14l-12 6l2 -20l-14 8l8 -19l-19 11l9 -23l-23 12l10 -26l-24 14l14 -27 q-29 0 -49.5 23t-20.5 47zM549 1546q0 20 22 21q23 0 23 -19q0 -12 -4 -16q-8 -8 -19 -8q-23 0 -22 22zM608 1585q0 2 3 6t7 4q12 0 13 -10q0 -4 -2 -6q-4 -4 -8 -4q-12 0 -13 10z" />
<glyph unicode="a" horiz-adv-x="1030" d="M70 137q45 43 108 43q2 -4 8.5 -12t18.5 -12v-11h-12l2 -16l-13 8l4 -24l-16 10l8 -21l-20 11l10 -25l-21 14l9 -28l-25 14l16 -31q-31 0 -54 26t-23 54zM78 188l325 1092l82 18l-307 -1081zM227 88q0 12 9.5 18.5t13.5 6.5q16 0 19 -10.5t7 -14.5q0 -12 -10 -22h-10 q-2 0 -4 -3q-12 0 -18.5 9.5t-6.5 15.5zM416 1317q10 55 48 74.5t91 19.5v-8q-33 -14 -45 -37t-12 -31q-23 0 -46.5 -5t-35.5 -13zM543 893l41 207l153 -533h-98zM698 305l95 115l45 -203l-101 -47zM752 131q23 23 43 31t61 8q8 -12 29 -18v-11h-13l5 -16l-15 6l4 -22 l-16 10l6 -23l-18 13l10 -25l-21 12l9 -28l-25 16l16 -31q-31 0 -53 25.5t-22 52.5zM909 88q0 12 8.5 18.5t16.5 6.5q12 0 22 -13l2 -12q0 -12 -10 -22h-10q-2 0 -4 -3q-16 0 -20.5 9.5t-4.5 15.5z" />
<glyph unicode="b" horiz-adv-x="1103" d="M117 43v1239l100 94v-1224zM739 279q35 35 51.5 82t16.5 81v15q0 66 -49 118l92 62q20 -35 28.5 -71t8.5 -68q0 -125 -82 -185zM739 862q31 31 49.5 75t18.5 89v14q0 31 -11.5 62t-37.5 55l92 76q16 -37 26.5 -79t10.5 -73q0 -66 -23.5 -114.5t-58.5 -71.5zM860 156 q0 14 9.5 20t15.5 6q14 0 24 -12v-10l2 -2q0 -10 -8 -17.5t-14 -7.5q-16 0 -22.5 9.5t-6.5 13.5zM924 217q0 23 18 23q20 0 21 -19q-1 -10 -5 -14q-8 -8 -14 -8q-20 0 -20 18zM924 797q0 22 17 22h1q13 0 19 -6q2 -2 2 -12q0 -25 -17 -25q-23 0 -22 21z" />
<glyph unicode="c" horiz-adv-x="1073" d="M80 719q0 31 7 81t30 93l192 360l84 23l-178 -340q-43 -80 -43 -193q0 -47 9 -80.5t34 -76.5l195 -348l-103 -58l-190 387q-23 45 -30 82t-7 70zM326 145q45 55 116 56q0 -14 27 -23v-12h-14l4 -14l-13 4l5 -19l-17 8l8 -20l-18 12l10 -26l-24 14l10 -31l-27 17l17 -29 q-29 0 -45.5 15.5t-38.5 47.5zM332 1298q12 23 34.5 43.5t50 36t57.5 24.5t54 9l-18 -20q-59 -37 -76.5 -55.5t-17.5 -22.5q-12 6 -21 6q-10 0 -28.5 -7t-34.5 -14zM911 100q0 31 27 31q14 0 23.5 -9.5t9.5 -21.5q0 -26 -31 -26h-2q-27 0 -27 26zM911 1270q0 10 8.5 19 t18.5 9q29 0 29 -28q0 -11 -6 -17q-10 -12 -23 -12q-10 0 -18.5 7t-8.5 22z" />
<glyph unicode="d" horiz-adv-x="1073" d="M111 154q29 53 59.5 73.5t77.5 20.5q-4 -4 -15.5 -20.5t-11.5 -49.5q-4 0 -9 1t-11 1q-16 0 -38 -5t-52 -21zM111 1317q29 49 61.5 71.5t81.5 22.5l-10 -10q-8 -8 -15.5 -23.5t-7.5 -38.5q-4 0 -9 1t-11 1q-16 0 -38 -4t-52 -20zM115 113q25 25 48 33t62 8 q2 -4 9.5 -10.5t11.5 -6.5v-12h-10l4 -19l-15 7l2 -21l-14 8l8 -18l-18 10l8 -24l-23 14l9 -33l-25 19l16 -29q-31 0 -52 24.5t-21 49.5zM115 1274q43 43 110 43q2 -6 8.5 -12.5t12.5 -6.5v-12h-10l4 -18l-15 6l2 -21l-14 9l8 -21l-18 12l8 -24l-23 12l9 -29l-25 17l16 -29 q-31 0 -52 24.5t-21 49.5zM279 279v890l96 99v-989h-96zM547 1186l37 100q10 2 18 3t12 1q29 0 45.5 -15t22.5 -34l176 -348q23 -37 30 -74t7 -55q0 -35 -10.5 -63.5t-26.5 -57.5l-168 -319q-8 -14 -21.5 -26.5t-29.5 -14.5l-64 -7q20 16 35 38t23 38l137 291 q10 25 17.5 50.5t7.5 47.5q0 39 -19 74l-186 340q-14 27 -43 31zM688 119q0 27 21 26q10 0 19 -7t9 -17q1 -27 -24 -27t-25 25zM745 168q0 16 17 16q4 0 10 -6t6 -14q0 -4 -6 -9t-12 -5t-10.5 6t-4.5 12z" />
<glyph unicode="e" d="M113 39v1243l106 96v-1226zM575 700q0 27 25 27q27 0 27 -25q0 -12 -7.5 -18t-15.5 -6q-14 0 -21.5 7t-7.5 15zM641 727q0 6 6 11t10 5q20 0 21 -16q0 -4 -4 -8q-6 -8 -12 -8q-8 0 -14.5 6t-6.5 10zM909 1241q0 14 8.5 22.5t16.5 8.5q27 0 27 -31q-1 -8 -7 -14 q-8 -8 -18 -8t-18.5 7t-8.5 15zM918 92q0 14 10 21.5t16 7.5q25 0 29 -25v-4q0 -26 -25 -26h-2q-18 0 -23 11t-5 15zM965 1282q0 4 6 10t16 6q4 0 11.5 -5t7.5 -15q0 -4 -6.5 -10t-16.5 -6q-6 0 -12 6t-6 14zM973 129q0 2 6 9t10 7q18 0 19 -16q0 -6 -4 -10q-10 -6 -15 -6 q-16 0 -16 16z" />
<glyph unicode="f" horiz-adv-x="1038" d="M117 106q35 29 65.5 38.5t40.5 9.5q2 -4 9.5 -10.5t13.5 -6.5v-12h-13l5 -19l-15 7l2 -21l-14 8l8 -18l-18 10l8 -24l-23 14l9 -33l-25 19l16 -29q-29 0 -49 21.5t-20 45.5zM117 139v1135l98 84v-1157zM266 117q0 25 21 24q20 0 20 -22q0 -8 -10 -19l-8 -2q-23 0 -23 19z M731 815q0 27 25 27q27 0 26 -25q0 -14 -9 -21.5t-17 -7.5q-14 0 -19.5 9.5t-5.5 17.5zM899 1249q0 16 12.5 24.5t20.5 8.5q16 0 24.5 -12.5t8.5 -22.5q0 -16 -10.5 -23t-20.5 -7q-18 0 -26.5 10t-8.5 22zM975 1288q0 10 16 10q6 0 10 -12q0 -10 -12 -12q-14 0 -14 14z" />
<glyph unicode="g" horiz-adv-x="1089" d="M96 336v479q0 66 17.5 108t58.5 93l227 282q35 45 68 65.5t68 31.5l-58 -70l-252 -336q-16 -23 -27.5 -65.5t-11.5 -83.5v-471q0 -59 23.5 -112.5t73.5 -86.5l-84 -68q-63 35 -83 97.5t-20 136.5zM506 598q29 47 61.5 69.5t81.5 22.5q-4 -10 -18.5 -21t-14.5 -48 q-4 0 -9 1t-13 1q-14 0 -35.5 -4.5t-52.5 -20.5zM510 555q23 23 52.5 33t58.5 10q2 -8 16 -16h-4q0 -4 8 -4v-13h-10l6 -14l-16 4l4 -18l-17 6l8 -19l-18 13l8 -27l-20 14l8 -30l-27 16l19 -29q-29 0 -52.5 22.5t-23.5 51.5zM854 127q0 16 11.5 23.5t21.5 7.5 q16 0 24.5 -10.5t8.5 -20.5q0 -14 -10.5 -23.5t-22.5 -9.5q-14 0 -23.5 11.5t-9.5 21.5zM918 1268q0 8 9 17t13 9q12 0 21.5 -8t9.5 -20q0 -9 -8 -17q-10 -10 -21 -10q-10 0 -17 9t-7 20z" />
<glyph unicode="h" horiz-adv-x="1114" d="M102 1305q29 106 140 106v-6q-23 -16 -23 -45v-12q-29 -2 -56.5 -13.5t-60.5 -29.5zM111 160v1089q12 29 38.5 48.5t67.5 19.5v-1116q0 -63 51 -64q4 0 6 1t7 1q-35 -55 -57.5 -77.5t-37.5 -22.5q-43 23 -59 51.5t-16 69.5zM272 94q0 27 25 27q6 0 14 -6.5t8 -18.5 q0 -20 -22 -20q-25 0 -25 18zM782 156v438l115 115v-488q0 -88 53 -88q10 0 13 2l-37 -51q-37 -49 -60 -49q-35 16 -51 43.5t-33 77.5zM782 858v416l103 24v-440h-103zM791 1317q31 55 60.5 74.5t80.5 19.5v-6q-35 -23 -41 -39t-6 -31q-2 2 -19 2q-10 0 -28.5 -5t-46.5 -15z M975 96q0 6 7 13.5t17 7.5q6 0 13.5 -7.5t7.5 -15.5q0 -4 -6 -10t-15 -6q-10 0 -17 6t-7 12z" />
<glyph unicode="i" horiz-adv-x="1103" d="M109 154q29 53 61.5 73.5t81.5 20.5q-10 -10 -21.5 -23.5t-11.5 -46.5q-2 0 -7 1t-13 1q-14 0 -38 -5t-52 -21zM109 1317q29 49 61.5 71.5t81.5 22.5q-10 -12 -21.5 -26.5t-11.5 -45.5q-2 0 -7 1t-13 1q-14 0 -38 -4t-52 -20zM113 113q25 25 50 33t60 8q2 -8 23 -17v-12 h-13l5 -19l-15 7l2 -21l-14 8l8 -18l-18 10l8 -24l-23 14l9 -33l-25 19l16 -29q-29 0 -51 24.5t-22 49.5zM113 1274q25 25 50 34t60 9q4 -12 23 -19v-12h-13l5 -18l-15 6l2 -21l-14 9l8 -21l-18 12l8 -24l-23 12l9 -29l-25 17l16 -29q-29 0 -51 24.5t-22 49.5zM444 276v902 l109 116v-1018h-109zM887 1239q0 18 14 18q6 0 12.5 -3t6.5 -13q-1 -16 -17 -16t-16 14zM926 1280q0 6 6 15.5t18 9.5q6 0 16.5 -7.5t10.5 -17.5q0 -12 -6 -18q-10 -10 -19 -11q-8 0 -17 7.5t-9 21.5zM942 100q0 18 7 23.5t16 5.5q16 0 22 -8t6 -17q0 -16 -9 -21t-15 -5 q-16 0 -21.5 8t-5.5 14z" />
<glyph unicode="j" horiz-adv-x="884" d="M43 289v266q23 12 42 16t32 4h28v-188q0 -47 11.5 -84t27 -63.5t34 -44t34.5 -25.5l14 -8q2 -2 6 -4t27 -4q-25 -12 -45.5 -40t-30.5 -53q-41 6 -73.5 35t-56 65t-37 71.5t-13.5 56.5zM49 590q14 49 51 71.5t90 22.5v-6q-29 -23 -37 -39t-8 -31q-20 0 -43.5 -4t-52.5 -14 zM549 287q6 10 12 24.5t6 28.5v932q16 16 29.5 21t34.5 5h18v-929q0 -35 -19.5 -60.5t-54.5 -25.5q-6 0 -12 1t-14 3zM567 1321q14 49 48 71.5t81 22.5q-27 -10 -43 -30.5t-14 -47.5q-23 0 -38 -5t-34 -11zM657 137q0 23 23 23q27 0 27 -23q0 -10 -7.5 -17t-15.5 -7 q-27 0 -27 24zM723 184q0 4 6 10.5t10 6.5t10.5 -4.5t6.5 -14.5q0 -4 -5.5 -10t-11.5 -6q-4 0 -10 5t-6 13z" />
<glyph unicode="k" horiz-adv-x="1112" d="M98 1305q29 106 140 106l4 -8q-14 -4 -20.5 -14.5t-6.5 -16.5v-24q-37 -12 -61.5 -20.5t-55.5 -22.5zM109 160v1079q12 31 31.5 49.5t74.5 28.5v-1116q0 -31 10.5 -47.5t50.5 -16.5q-35 -53 -57 -75.5t-37 -22.5q-31 16 -50 41.5t-23 79.5zM344 459v176l436 -359 l-413 308l323 -299l-328 254l254 -250l-256 209l150 -179zM354 920v67l469 397q16 16 46 21.5t65 5.5zM911 1229q0 14 15 14q2 0 7 -4t5 -10q-4 0 -4 -8q0 -2 -6 -2h-2q-14 0 -15 10zM948 113q0 16 8.5 23t16.5 7q14 0 24 -10q6 -12 7 -18q0 -12 -10.5 -19.5t-18.5 -7.5 q-16 0 -21.5 8t-5.5 17zM954 1274q0 12 7.5 18t13.5 6q10 0 18 -4t8 -20q0 -12 -8 -16.5t-14 -4.5q-12 0 -18.5 7.5t-6.5 13.5z" />
<glyph unicode="l" horiz-adv-x="1042" d="M119 39v1235l90 24v-1140zM119 1321q8 47 41 70.5t82 23.5q-20 -23 -26.5 -40t-6.5 -38q-57 0 -90 -16zM891 72q0 16 12 16q20 0 21 -18q0 -5 -4 -9t-13 -4q-16 0 -16 15zM961 119q0 8 7 15t21 7q6 0 12.5 -6t6.5 -18q0 -8 -7.5 -15.5t-19.5 -7.5q-20 0 -20 25z" />
<glyph unicode="m" horiz-adv-x="1114" d="M123 106q35 29 65.5 38.5t40.5 9.5q2 -2 15 -13l6 -4v-12h-10l4 -19l-15 7l2 -21l-14 8l8 -18l-18 10l8 -24l-22 14l8 -33l-25 19l17 -29q-31 0 -50.5 21.5t-19.5 45.5zM123 139v1135l98 102v-1175zM348 1020v229l213 -262l-188 191l135 -191l-137 146l90 -146l-92 105 l55 -105l-59 57l22 -57zM451 836q35 29 66.5 40t41.5 11q4 -14 12 -17l2 -2q2 0 3.5 -1t5.5 -1v-12h-13l2 -18l-12 6l2 -19l-16 8l8 -18l-16 10l8 -24l-23 14l10 -33l-26 19l16 -31q-29 0 -50 22.5t-21 45.5zM575 1155l181 248h94l-229 -309zM608 831q0 16 9.5 21.5 t15.5 5.5q16 0 20 -9t4 -13q0 -16 -8 -21.5t-14 -5.5q-14 0 -20.5 8t-6.5 14zM797 106l43 27q53 20 65 21q2 -2 15 -13l8 -4v-12h-13l5 -19l-15 7l2 -21l-14 8l6 -18l-16 10l8 -24l-23 14l9 -33l-27 19l18 -29q-31 0 -51 21.5t-20 45.5zM797 139v955l98 139v-1032zM952 96 q0 25 23 25q27 0 26 -25l-8 -14q-8 -8 -18 -8q-23 0 -23 22z" />
<glyph unicode="n" horiz-adv-x="1110" d="M119 106q35 29 65.5 38.5t40.5 9.5q2 -2 15 -13l6 -4v-12h-10l4 -19l-15 7l2 -21l-14 8l8 -18l-18 10l8 -24l-23 14l9 -33l-25 19l16 -29q-31 0 -50 21.5t-19 45.5zM119 139v1135l98 84v-1157zM274 102q0 4 5.5 13.5t17.5 9.5q4 0 12 -6t8 -15q-4 -4 -4 -12 q-6 -12 -14 -12q-6 0 -15.5 5t-9.5 17zM342 1169l530 -1017l-503 907l393 -819l-395 735l307 -664l-312 592l187 -452l-199 397zM793 625v649l98 41v-893zM793 1315q16 53 53 77.5t88 24.5v-8q-49 -18 -62 -68q-12 0 -29.5 -5t-49.5 -21z" />
<glyph unicode="o" horiz-adv-x="1042" d="M72 719q0 35 11 83t26 91l194 360l86 23l-180 -340q-18 -41 -31.5 -87t-13.5 -106q0 -47 10 -81.5t35 -75.5l194 -348l-102 -58l-192 387q-20 45 -28.5 84t-8.5 68zM322 145q18 29 51 42.5t63 13.5q4 -10 17 -19l8 -4v-12h-10l2 -14l-13 4l4 -19l-16 8l8 -20l-20 12 l10 -26l-23 14l11 -31l-25 17l14 -29q-20 0 -34 8l-17 14q-14 14 -30 41zM328 1298q29 47 84 80t110 33l-20 -20q-41 -25 -67.5 -49.5t-26.5 -28.5q-10 6 -17 6q-14 0 -32.5 -7t-30.5 -14zM516 1186l35 100q10 2 18.5 3t12.5 1q29 0 45 -15t22 -34l178 -348q23 -37 29 -74 t6 -55q0 -20 -9 -56t-26 -65l-178 -315l-41 -45l-57 -7q27 16 40 37t17 39l129 291q18 37 20.5 58.5t2.5 37.5q0 14 -17 76l-186 340zM682 141q0 4 5 12.5t18 8.5q23 0 22 -21q0 -10 -6 -16t-16 -6q-23 0 -23 22zM713 188q0 4 5 10.5t11 6.5q2 0 7 -4.5t5 -10.5 q0 -14 -14 -14t-14 12z" />
<glyph unicode="p" horiz-adv-x="1054" d="M117 106q35 29 65.5 38.5t40.5 9.5q2 -4 9.5 -10.5t13.5 -6.5v-12h-13l5 -19l-15 7l2 -21l-14 8l8 -18l-18 10l8 -24l-23 14l9 -33l-25 19l16 -29q-29 0 -49 21.5t-20 45.5zM117 139v1135l98 84v-1157zM788 815v340l74 86q27 -29 27 -61v-281q0 -16 -12.5 -35.5 t-32.5 -27.5zM883 631q0 14 12 14q20 0 20 -16q0 -4 -4 -8q-4 -6 -12 -7q-16 0 -16 17zM932 694q0 12 8 17.5t14 5.5q7 0 17 -10q0 -12 4 -13q0 -8 -9.5 -13t-11.5 -5q-12 0 -17 7t-5 11z" />
<glyph unicode="q" horiz-adv-x="1081" d="M88 297v479q0 66 14.5 113t61.5 88l409 352q25 20 44.5 33.5t39 21t40 12.5t46.5 11q-23 -14 -43 -30.5t-41 -33.5l-436 -380q-25 -23 -35 -79.5t-10 -121.5v-428q0 -63 26.5 -116.5t69.5 -82.5l-84 -69q-66 37 -84 96t-18 135zM422 586q14 53 48 73.5t77 20.5v-8 q-55 -37 -58 -66q-8 0 -22 -3t-45 -17zM434 543l15 16q23 16 53 16l45 -126l-58 -41zM573 170l86 92l52 -110l-90 -113zM760 606v555l94 107v-537q0 -18 -6 -40.5t-23 -37.5zM885 88q0 8 8 19.5t18 11.5q21 -1 27 -17q0 -6 1 -8t1 -4q0 -16 -11 -21.5t-11 -7.5 q-20 0 -26.5 10.5t-6.5 16.5zM952 127l4 6q2 8 11 8q6 0 12 -12q0 -4 -4 -10t-10 -6l-7 4q-6 2 -6 10z" />
<glyph unicode="r" horiz-adv-x="1101" d="M117 106q35 29 65.5 38.5t40.5 9.5q2 -2 15 -13l8 -4v-12h-13l5 -19l-15 7l2 -21l-14 8l8 -18l-18 10l8 -24l-23 14l9 -33l-25 19l16 -29q-29 0 -49 21.5t-20 45.5zM117 139v1112l98 107v-1157zM420 739l76 115l395 -678l-385 604l291 -518l-316 496l228 -424l-260 416 l190 -363zM788 1001v154l74 86q27 -29 27 -61v-95q0 -18 -14.5 -36.5t-30.5 -24.5zM913 78q0 16 10.5 28.5t26.5 12.5q14 0 26.5 -12.5t12.5 -24.5q0 -16 -12.5 -27.5t-26.5 -11.5q-16 0 -26.5 11.5t-10.5 23.5zM979 127q0 18 18 18q16 0 17 -18q-1 -21 -17 -21 q-6 0 -12 7.5t-6 13.5z" />
<glyph unicode="s" horiz-adv-x="1091" d="M102 279q0 53 32 84.5t93 31.5q-2 -6 -6 -10t-4 -6q-12 -20 -14 -27.5t-2 -17.5q0 -20 6 -41l8 -31q-12 -10 -41 -26.5t-57 -28.5q-14 29 -15 72zM131 162q35 20 62.5 36.5t39.5 28.5q6 -12 9.5 -16t4.5 -8t5 -9.5t14 -17.5l-18 4l2 -18l-12 6l4 -18l-17 6l8 -17l-18 11 l8 -25l-20 14l8 -33l-25 19l17 -31q-25 4 -43.5 27.5t-28.5 40.5zM139 1305q25 49 59.5 71.5t88.5 22.5h22q-27 -10 -48 -27.5t-34 -46.5q-4 2 -22 2q-47 0 -66 -22zM303 1061l567 -719q6 -10 7 -18q0 -23 -16.5 -35.5t-39.5 -12.5h-71l-209 271l219 -234l-371 478l402 -455 l-465 612l491 -600zM346 1245q0 4 5 12.5t16 8.5q18 -1 18 -17q0 -10 -7 -15t-16 -5q-16 0 -16 16zM791 1128q49 31 72.5 41.5t29.5 22.5q0 -10 14 -25l13 -12v-12h-13l4 -15l-14 5l4 -21l-16 10l8 -20l-19 10l7 -27l-21 17l8 -31l-24 14l16 -28q-31 0 -50 22.5t-19 48.5z M834 94q0 14 9 23.5t17 9.5q17 0 25 -14q8 -6 8 -17q0 -10 -7 -20t-24 -10q-14 0 -21 10t-7 18zM932 1098q0 20 18 20q4 0 12.5 -4t8.5 -16q0 -20 -21 -21q-18 0 -18 21z" />
<glyph unicode="t" horiz-adv-x="1026" d="M68 1149q53 14 78.5 29.5t25.5 19.5q2 -4 6 -10t8 -14l13 -15v-10h-15l6 -16l-12 6l2 -21l-16 10l8 -22l-18 12l8 -26l-21 14l6 -29l-24 15l18 -29q-25 0 -49 19.5t-24 66.5zM68 1186v96l104 80v-131zM225 1133q0 12 8.5 18t14.5 6q8 0 15 -7t7 -17q0 -6 -7 -13.5 t-15 -7.5q-10 0 -16.5 8t-6.5 13zM412 106q47 27 69.5 36.5t36.5 9.5q2 -4 7 -9.5t10 -5.5h6v-14h-11l2 -17l-14 7l6 -23l-16 10l8 -18l-20 8l10 -24l-23 16l9 -33l-25 17l16 -29q-31 0 -51 22.5t-20 46.5zM412 137v1065l100 82v-1085zM563 119q0 6 5 13t14 7q4 0 20 -10 q2 -2 2 -10q0 -6 -6 -14.5t-16 -8.5q-8 0 -13.5 7.5t-5.5 15.5zM748 1151q51 16 74.5 29.5t27.5 17.5l8 -12t21 -23v-12h-13l2 -16l-14 6l6 -21l-16 10l6 -20l-16 10l8 -24l-21 14l8 -31l-24 17l16 -31q-33 0 -53 21.5t-20 64.5zM907 1141q0 22 17 22h2q20 0 20 -20 q0 -11 -6 -13q-6 -6 -12 -6q-20 0 -21 17z" />
<glyph unicode="u" d="M100 301v956q0 41 34 59.5t93 18.5v-1018q0 -43 19.5 -69.5t36.5 -40.5q-49 -47 -75 -61.5t-42 -16.5q-18 16 -42 64.5t-24 107.5zM115 1335q18 29 50 45.5t62 16.5q2 -2 9 -2q-25 -10 -25 -37h-14q-18 0 -39 -7.5t-43 -15.5zM195 102q29 23 56.5 44.5t57.5 50.5 q10 -8 22.5 -17.5t18.5 -9.5q0 -10 -8 -25.5t-22.5 -31t-31 -28.5t-34.5 -22q-35 0 -59 39zM786 287v970q0 47 31 62.5t90 15.5v-966q-29 -82 -121 -82zM793 1335q20 29 52 45.5t62 16.5q2 -2 8 -2q-27 -8 -26 -37h-12q-18 0 -40 -7.5t-44 -15.5zM868 147q0 14 8.5 21.5 t16.5 7.5q12 0 19.5 -9.5t7.5 -19.5q0 -22 -25 -22h-2q-12 0 -18.5 9t-6.5 13zM948 219q0 14 13 14q4 0 11 -5t7 -11q0 -8 -6 -11t-10 -3q-14 0 -15 16z" />
<glyph unicode="v" horiz-adv-x="1044" d="M84 1008v272q20 29 43 35t29 6q8 0 14 -1t14 -3v-258l340 -875l-41 -43l-59 -14zM88 1317q29 53 58.5 73.5t82.5 20.5q-2 -2 -2 -8q-4 -4 -15 -12.5t-21.5 -17.5t-18.5 -19.5t-8 -18.5h-10l-2 2q-18 0 -64 -20zM539 70q0 12 8 21t22 9q12 0 21.5 -9t9.5 -21 q0 -16 -9.5 -23.5t-21.5 -7.5q-16 0 -23 10t-7 21zM539 492l211 540v248h12q12 25 34.5 35t34.5 10t29 -8v-242l-274 -704zM614 133q0 2 3.5 6t7.5 4q10 0 10 -10q0 -4 -2 -6q-4 -4 -8 -4q-10 0 -11 10zM750 1317q31 55 61.5 74.5t79.5 19.5q2 -2 2 -4v-4q-2 -4 -21.5 -25.5 t-19.5 -42.5q-2 2 -21 2q-14 0 -35.5 -5t-45.5 -15z" />
<glyph unicode="w" horiz-adv-x="1107" d="M100 254v1003q0 41 34 59.5t93 18.5v-1018q0 -35 23.5 -85t79.5 -103q-16 -41 -42 -62.5t-42 -23.5q-23 10 -40.5 38t-49.5 81zM115 1335q18 29 50 45.5t62 16.5q2 -2 9 -2q-25 -10 -25 -37h-14q-18 0 -39 -7.5t-43 -15.5zM442 276v551q4 43 35 60.5t92 17.5v-534 l-65 -95h-62zM453 905q20 29 54 44.5t62 15.5q0 -2 6 -2q-25 -10 -24 -33h-10q-20 0 -42 -8.5t-46 -16.5zM782 279v978q4 43 36 59.5t91 16.5v-919q-18 -41 -40.5 -77t-39.5 -61zM795 1333q49 61 114 62q2 -2 9 -2q-25 -10 -25 -39q-2 0 -2 2h-12q-27 0 -84 -23zM836 106 q0 14 12 23.5t20 9.5q18 0 25.5 -13.5t7.5 -19.5q0 -12 -10 -21t-23 -9q-12 0 -22 10t-10 20z" />
<glyph unicode="x" d="M92 1303q8 41 43 76.5t90 35.5q20 0 23 -2q-25 -18 -25 -67zM98 1274l127 49l316 -510l-308 447l250 -431l-278 404l188 -344l-231 340l133 -242zM100 170l314 551l135 59l-334 -565zM109 127q41 25 67.5 35t38.5 10q2 -8 14 -16l9 -4v-9h-13l4 -16l-14 6l2 -22l-14 10 l6 -23l-16 13l8 -25l-23 12l8 -28l-24 16l16 -31q-31 0 -50 22.5t-19 49.5zM246 94q0 14 10 23.5t20 9.5q14 0 24.5 -11.5t10.5 -21.5q0 -14 -11 -23.5t-24 -9.5q-14 0 -22 10.5t-8 22.5zM565 475l62 174l280 -467l-268 396l231 -388l-252 357l185 -316l-201 285l103 -182 l-113 162l51 -117zM580 987l172 293l102 18l-223 -383zM791 1317q25 53 55.5 73.5t85.5 20.5q-41 -41 -52.5 -52t-11.5 -16q0 -2 1 -3t1 -5l-12 2q-6 0 -22.5 -5t-44.5 -15zM885 70q0 4 2 4q2 -1 43 -19q-8 -8 -21 -8q-12 0 -18 8t-6 15zM946 119q0 10 8.5 18t16.5 8h2 q24 0 24 -26q0 -12 -9 -19.5t-17 -7.5q-25 0 -25 27z" />
<glyph unicode="y" horiz-adv-x="1028" d="M59 1130v146l103 41v-119zM59 1296q23 115 142 115q2 -2 2 -4v-2q0 -2 2 -4q-6 -2 -13.5 -11.5t-14.5 -20.5t-11 -21.5t-4 -12.5q-35 -12 -57.5 -20t-45.5 -19zM412 106q47 27 69.5 36.5t36.5 9.5q2 -4 7 -9.5t10 -5.5h6v-14h-11l2 -17l-14 7l6 -23l-16 10l8 -18l-20 8 l10 -24l-23 16l9 -33l-25 17l16 -29q-31 0 -51 22.5t-20 46.5zM412 137v525l100 86v-549zM539 49q0 6 4 13.5t18 7.5q4 0 11.5 -5.5t7.5 -15.5v-4q0 -2 -1 -3t-1 -5q-6 -10 -21 -10q-4 0 -11 6t-7 16zM541 928l196 250v98l115 41v-94l-274 -344zM590 100q0 2 4 9.5t10 7.5 l2 -2q4 -4 10 -6q0 -4 1 -5.5t1 -3.5t3 -2q0 -12 -15 -12q-4 0 -10 5t-6 9zM737 1296q23 115 142 115q0 -6 2 -8q-23 -23 -28 -30t-5 -15q0 -4 1 -9.5t3 -13.5zM926 1118q0 12 16 12q12 0 14 -12q0 -4 -4 -12t-14 -8q-12 0 -12 20z" />
<glyph unicode="z" horiz-adv-x="1107" d="M111 43v127l579 1004l141 100l-620 -1059v-45zM111 1317q29 49 61.5 71.5t81.5 22.5l-10 -10q-8 -8 -15.5 -23.5t-7.5 -38.5q-4 0 -9 1t-11 1q-16 0 -38 -4t-52 -20zM115 1274q43 43 110 43q2 -6 8.5 -12.5t12.5 -6.5v-12h-10l4 -18l-15 6l2 -21l-14 9l8 -21l-18 12 l8 -24l-23 12l9 -29l-25 17l16 -29q-31 0 -52 24.5t-21 49.5zM891 80q0 18 10 24.5t17 6.5q18 0 19 -8.5t11 -18.5q0 -23 -8 -22t-18 -9q-18 0 -24.5 10.5t-6.5 16.5zM961 123q0 6 8 13t16 7q4 0 11.5 -7t7.5 -13t-7.5 -14.5t-15.5 -8.5q-4 0 -12 6.5t-8 16.5z" />
<glyph unicode="{" horiz-adv-x="1042" d="M45 748q29 49 59.5 70.5t83.5 21.5q-14 -12 -24 -24.5t-10 -45.5q-4 0 -9.5 1t-11.5 1q-16 0 -36.5 -4t-51.5 -20zM49 707q25 20 49.5 30.5t61.5 10.5q6 -18 20 -19v-12h-12l4 -17l-12 7l2 -21l-15 8l7 -20l-19 12l10 -27l-22 15l10 -31l-27 16l17 -28q-29 0 -51.5 24.5 t-22.5 51.5zM184 639q0 6 6.5 14.5t12.5 8.5t13 -6.5t7 -16.5q0 -4 -4 -8q-2 -8 -14 -8q-20 0 -21 16zM403 1298q29 55 59 75t83 20q-25 -27 -42.5 -42.5t-17.5 -31.5q-49 0 -82 -21zM825 55q0 4 5.5 11.5t11.5 7.5q4 0 10 -7.5t6 -15.5q0 -4 -6 -8t-12 -4q-14 0 -15 16z M868 121q0 12 9.5 19t17.5 7q12 0 22.5 -7t10.5 -19q0 -31 -33 -31q-10 0 -18.5 9.5t-8.5 21.5zM887 1257q0 25 22 25q4 0 14.5 -5t10.5 -15q0 -25 -25 -25q-23 0 -22 20z" />
<glyph unicode="|" horiz-adv-x="436" d="M102 1325q27 47 56.5 70.5t85.5 23.5v-8q-18 -16 -28.5 -24.5t-12.5 -10.5l-10 -16q-8 -8 -9 -17h-10q-2 0 -2 3q-4 0 -21.5 -5.5t-48.5 -15.5zM244 94q4 4 16 4q20 0 21 -12q-1 -6 -7 -12q0 -8 -18 -8q-10 0 -11 11t-1 17zM289 119q0 14 9 21t19 7q27 0 27 -28 q0 -18 -7.5 -24.5t-19.5 -6.5q-14 0 -21 9t-7 22z" />
<glyph unicode="}" horiz-adv-x="1042" d="M100 162q29 53 59.5 73.5t84.5 20.5q-10 -4 -21.5 -22.5t-11.5 -47.5q-4 0 -9 1t-14 1q-14 0 -34.5 -5t-53.5 -21zM104 121q25 23 49.5 32t63.5 9q8 -16 21 -17v-12h-13l4 -18l-12 6l2 -21l-14 9l6 -21l-21 12l11 -24l-23 12l10 -31l-26 19l16 -31q-29 0 -51.5 24.5 t-22.5 51.5zM104 1317q31 49 63 71.5t81 22.5l-10 -10q-8 -8 -15.5 -23.5t-7.5 -38.5q-4 0 -9 1t-11 1q-16 0 -37 -4t-54 -20zM109 1274q43 43 110 43q2 -6 8 -12.5t15 -6.5v-12h-13l4 -18l-14 6l2 -21l-14 9l8 -21l-18 12l8 -24l-23 12l8 -29l-24 17l16 -29q-29 0 -51 24.5 t-22 49.5zM268 1235q0 25 21 25q25 0 24 -25q0 -8 -6 -10q-6 -6 -16 -6q-23 0 -23 16zM578 129q0 10 6 14t12 4q4 0 12 -3t8 -13q0 -18 -18 -18q-20 0 -20 16zM883 655q0 23 20 23q4 0 11.5 -5.5t7.5 -17.5q0 -16 -19 -16q-20 0 -20 16zM938 694q0 16 10 24.5t19 8.5 q10 0 22 -7.5t12 -23.5q0 -10 -8 -20t-24 -10q-18 0 -24.5 10t-6.5 18z" />
<glyph unicode="~" horiz-adv-x="1089" d="M158 563q0 12 8 12q12 0 12 -14q-2 -8 -8 -8q-12 0 -12 10zM225 590q0 18 9.5 26.5t19.5 8.5q37 0 37 -35q0 -14 -9.5 -24.5t-23.5 -10.5q-16 0 -24.5 10t-8.5 25zM778 588q0 14 11.5 25.5t25.5 11.5t24.5 -9.5t10.5 -23.5q0 -17 -10 -27q-6 -14 -23 -14q-14 0 -26.5 11 t-12.5 26zM940 694q0 4 6 10.5t12 6.5q4 0 8.5 -7.5t4.5 -11.5t-6.5 -8t-10.5 -4q-14 0 -14 14z" />
<glyph unicode="&#xa1;" horiz-adv-x="501" d="M100 102v58l47 565l80 29l-49 -566l15 -38l55 -21h-47l26 -37l-49 10l31 -41l-53 11l32 -41l-57 18zM100 1217v65l82 18v-38l19 -45l30 -11l-65 -76q-29 4 -42 25t-24 62zM100 1325q29 53 59.5 72.5t84.5 19.5q-2 -2 -2 -6l-43 -33q0 -6 -8.5 -19t-8.5 -18q-10 6 -12 7 q-20 0 -70 -23zM141 772l6 51l27 45l47 23l49 -6l-22 -8l-19 -25l-6 -45zM322 102q0 14 8 24.5t20 10.5q14 0 24.5 -10.5t10.5 -24.5t-10 -22t-25 -8q-29 0 -28 30zM344 1184q0 8 6 16t15 8q10 0 17 -8t7 -16q0 -25 -24 -25q-20 0 -21 25z" />
<glyph unicode="&#xa3;" horiz-adv-x="1122" d="M70 154q33 53 63.5 73.5t83.5 20.5l-22 -21q-14 -12 -15 -49q-2 0 -6 1t-10 1q-16 0 -35.5 -4t-58.5 -22zM76 113q23 25 49.5 33t60.5 8q2 -8 23 -17v-12h-12l4 -19l-15 7l2 -21l-16 8l8 -18l-18 10l8 -24l-20 14l8 -33l-25 19l17 -29q-29 0 -51.5 24.5t-22.5 49.5z M213 276v515q0 84 16.5 131t59.5 94l227 282q35 43 65.5 62.5t65.5 34.5l-51 -70q-12 -10 -38 -43t-56.5 -76t-64.5 -92t-61.5 -90t-45 -68.5t-17.5 -29.5q-16 -39 -16 -78v-572h-84zM827 653q0 31 27 31q31 0 31 -31q0 -27 -31 -26q-27 0 -27 26zM860 1260q0 27 33 26 q12 0 22.5 -7t10.5 -19q0 -10 -10.5 -18.5t-22.5 -8.5q-33 0 -33 27z" />
<glyph unicode="&#xa8;" horiz-adv-x="886" d="M92 1636v93l58 12v-74l12 -31l22 -8l-45 -53q-18 4 -30.5 21.5t-16.5 39.5zM92 1757q23 43 44.5 53.5t56.5 10.5v-2l-33 -23q0 -4 -5 -10t-5 -17q-10 4 -11 5q-8 -2 -19 -5.5t-28 -11.5zM514 1636v93l57 12v-74l15 -31l20 -8l-47 -53q-35 10 -45 61zM514 1757 q23 43 42 53.5t56 10.5q-29 -4 -35 -25.5t-6 -26.5q-10 0 -10 5q-4 -1 -47 -17z" />
<glyph unicode="&#xa9;" horiz-adv-x="1404" d="M96 217v1002q0 78 127 77v-1020q0 -41 11.5 -64.5t41.5 -45.5q-41 -41 -67.5 -58.5t-48.5 -19.5q-23 20 -38.5 49t-25.5 80zM125 1311q33 33 53.5 52t35.5 28.5t29.5 11.5t39.5 2q-23 -23 -34 -33t-17.5 -16t-7.5 -11.5t-1 -17.5q-4 4 -7 5t-15 1q-33 0 -76 -22zM188 63 q25 23 54.5 46.5t58.5 46.5q14 -8 31 -9h14q0 -18 -26.5 -56t-65.5 -56q-37 0 -66 28zM371 709q-2 35 6 77.5t31 83.5l59 117l86 23l-47 -95q-23 -45 -33 -95t-10 -97t10 -81t33 -79l49 -78l-90 -47l-57 107q-23 51 -30 92t-7 72zM471 393q47 55 115 56q10 -14 28 -21v-10 h-12l4 -17l-16 7l6 -23l-18 8l8 -20l-19 12l8 -27l-20 15l10 -29l-24 14l14 -26q-18 0 -42 14t-42 47zM492 1032q12 23 34.5 43.5t49 35.5t56 23.5t54.5 8.5q-35 -23 -62.5 -47.5t-50.5 -53.5q-23 0 -42 -2t-39 -8zM932 350q0 29 26 29q14 0 23.5 -9.5t9.5 -19.5 q0 -27 -33 -26q-27 0 -26 26zM944 1004q0 27 29 26q10 0 19 -8t9 -18q0 -11 -6 -17q-10 -12 -22 -12q-8 0 -18.5 7t-10.5 22zM1077 276v908l125 127v-1012q0 -20 -14 -27.5t-58 -7.5q-8 0 -25.5 2t-27.5 10zM1165 109q0 16 8.5 21t14.5 5q16 0 22.5 -10t6.5 -14 q0 -25 -27 -25q-14 0 -19.5 8t-5.5 15z" />
<glyph unicode="&#xab;" horiz-adv-x="1243" d="M84 743q0 20 10 44t41 47h70v-54l-115 -63q-6 12 -6 26zM152 862l335 199l45 -31l-303 -168h-77zM563 442q0 16 9.5 20.5t15.5 4.5q16 0 21 -8.5t5 -16.5q0 -10 -8 -16t-16 -6q-16 0 -21.5 8t-5.5 14zM578 905q0 16 9 22.5t17 6.5q23 0 25 -21v-4q0 -27 -25 -26 q-14 0 -20 8t-6 14zM598 743q0 20 10 44t39 47h74v-54l-117 -63q-6 12 -6 26zM668 862l333 199l43 -31l-299 -168h-77zM1079 442q0 16 8.5 20.5t14.5 4.5q16 0 22 -10.5t6 -14.5q0 -23 -26 -22q-12 0 -18.5 8t-6.5 14zM1094 905q0 16 9 22.5t15 6.5q16 0 17.5 -9.5 t7.5 -15.5q0 -27 -23 -26q-14 0 -20 8t-6 14z" />
<glyph unicode="&#xad;" horiz-adv-x="1097" d="M104 670v18l80 25q0 -23 16.5 -43.5t45.5 -20.5l-35 -98q-53 8 -80 45t-27 74zM104 748q14 49 51.5 70.5t90.5 21.5v-6q-31 -10 -46.5 -30t-15.5 -40q-23 0 -40 -4t-40 -12z" />
<glyph unicode="&#xae;" horiz-adv-x="1404" d="M96 217v1002q0 78 127 77v-1020q0 -41 11.5 -64.5t41.5 -45.5q-41 -41 -67.5 -58.5t-48.5 -19.5q-23 20 -38.5 49t-25.5 80zM125 1311q35 37 55.5 56t35.5 27.5t29.5 9.5t37.5 1q-23 -23 -34 -33t-17.5 -16t-7.5 -11.5t-1 -17.5q-4 4 -7 5t-15 1q-33 0 -76 -22zM188 63 q25 23 54.5 46.5t58.5 46.5q14 -8 31 -9h14q0 -18 -26.5 -56t-65.5 -56q-37 0 -66 28zM442 371q76 47 97 47q2 -10 18 -19v-12h-12l6 -16l-12 6l2 -19l-13 9l7 -17l-19 8l8 -18l-20 10l8 -26l-20 16l12 -29q-23 0 -42.5 19.5t-19.5 40.5zM442 401v664l86 74v-684zM885 1069 q0 12 12 12q10 0 10 -12q0 -10 -10 -10q-12 0 -12 10zM889 870v88l65 76q12 -12 17.5 -26.5t5.5 -26.5q0 -6 -1 -11t-1 -12l-2 -12l-37 -55zM928 344q0 14 10 24.5t23 10.5q18 0 26 -12.5t8 -20.5q0 -12 -10 -22.5t-24 -10.5q-16 0 -24.5 10.5t-8.5 20.5zM987 387 q0 16 17 16q16 0 16 -16q0 -8 -7 -13t-9 -5q-6 0 -11.5 6t-5.5 12zM1077 276v500q25 76 25 119v39q0 45 -25 119v131l125 127v-1012q0 -20 -14 -27.5t-58 -7.5q-8 0 -25.5 2t-27.5 10zM1165 109q0 16 8.5 21t14.5 5q16 0 22.5 -10t6.5 -14q0 -25 -27 -25q-14 0 -19.5 8 t-5.5 15z" />
<glyph unicode="&#xaf;" horiz-adv-x="845" d="M98 1690v16l60 14q0 -16 10 -30.5t33 -14.5l-25 -71q-35 4 -56.5 29.5t-21.5 56.5zM98 1747q23 41 45.5 55.5t57.5 14.5q-20 -8 -29.5 -25.5t-13.5 -34.5q0 4 -11 4q-6 0 -18.5 -4t-30.5 -10z" />
<glyph unicode="&#xb0;" horiz-adv-x="772" d="M84 1026v195q0 78 127 77v-213q0 -41 13.5 -63.5t41.5 -44.5q-72 -72 -116 -80q-23 18 -35.5 45t-30.5 84zM115 1313q33 37 52 55t34.5 27.5t31 10.5t37.5 1v-8l-41 -33q0 -4 -9 -16.5t-9 -20.5q-4 4 -6 5t-12 1q-29 0 -78 -22zM178 872l15 13q45 33 100 82 q16 -10 31 -11h14q0 -8 -9.5 -23t-22.5 -32.5t-29.5 -33t-30.5 -23.5q-23 0 -37 8t-31 20zM453 1085v101l127 127v-203q0 -20 -12.5 -28.5t-59.5 -8.5q-6 0 -22.5 6t-32.5 6zM541 920q0 16 9 20t15 4q16 0 21.5 -7t5.5 -15q0 -16 -12 -25h-11q-2 0 -2 -2q-16 0 -21 9t-5 16z " />
<glyph unicode="&#xb4;" horiz-adv-x="745" d="M98 1575v18q0 39 49 74l62 -8l-4 -39zM160 1681l358 156l31 -29l-324 -137zM594 1686q0 10 6 15t10 5q15 0 23 -14q0 -31 -19 -31q-14 0 -17 10t-3 15z" />
<glyph unicode="&#xb7;" horiz-adv-x="585" d="M92 600v127l82 16v-104l21 -41l28 -14l-65 -74q-29 10 -42.5 26.5t-23.5 63.5zM92 766q29 53 56.5 73.5t87.5 20.5v-8q-41 -29 -51.5 -39t-10.5 -27h-10q-2 0 -2 2q-6 0 -70 -22z" />
<glyph unicode="&#xb8;" horiz-adv-x="485" d="M92 -137q14 66 48 89t96 23v-4q0 -14 -8.5 -25.5t-8.5 -39.5q-49 0 -81 -12.5t-46 -30.5zM96 -195q4 47 34 62.5t95 15.5v-106l-129 -121v149z" />
<glyph unicode="&#xbb;" horiz-adv-x="1232" d="M80 967q23 49 55.5 71.5t85.5 22.5q-2 -2 -2 -8l-41 -33q-2 -2 -2 -4h-2l-8 -10q-6 -12 -6 -21q-8 0 -13 4q-6 0 -67 -22zM84 508q29 49 59.5 71.5t83.5 22.5q-10 -6 -21 -22.5t-11 -44.5h-39q-27 0 -72 -27zM88 467q23 23 49.5 32t61.5 9q4 -6 11 -12.5t13 -6.5v-12h-12 l4 -16l-16 6l6 -23l-19 11l9 -19l-21 8l10 -24l-22 16l10 -30l-25 14l15 -29q-29 0 -51.5 25.5t-22.5 50.5zM571 645q0 16 9.5 21.5t15.5 5.5q16 0 21.5 -10.5t5.5 -14.5q0 -25 -21 -24h-4q-16 0 -21.5 8t-5.5 14zM590 967q23 49 55.5 71.5t85.5 22.5q-2 -2 -2 -8l-43 -33 q-2 0 -2 -2t-2 -2l-6 -10q-6 -12 -6 -21q-8 0 -13 4q-6 0 -22.5 -6t-44.5 -16zM594 508q29 49 59.5 71.5t83.5 22.5q-10 -4 -22.5 -21.5t-12.5 -45.5h-36q-27 0 -72 -27zM598 467q25 25 50.5 33t60.5 8q2 -6 9 -12.5t15 -6.5v-12h-14l4 -16l-14 6l4 -23l-19 11l8 -19l-18 8 l8 -24l-20 16l10 -30l-27 14l17 -29q-29 0 -51.5 25.5t-22.5 50.5zM1081 645q0 16 8.5 21.5t14.5 5.5q16 0 21 -10.5t5 -14.5q1 -24 -22 -24q-16 0 -21.5 8t-5.5 14z" />
<glyph unicode="&#xbf;" horiz-adv-x="1007" d="M57 268l6 181l7 28l14 21l489 426v39l89 6l-11 -33l-473 -401l-20 -37v-181l6 -14l10 -10l-104 -62l-9 15zM94 207l96 55l156 -125l55 -10l-61 -14l55 -17l-69 -8l53 -22h-78l41 -31l-63 8zM547 1325q29 49 59.5 71.5t83.5 22.5q-10 -4 -22.5 -23t-12.5 -46q-2 0 -7 1 t-11 1q-14 0 -36.5 -5.5t-53.5 -21.5zM549 1284q18 12 30.5 19.5t23.5 12.5t24.5 7t34.5 2q2 -6 9 -12t13 -8v-13h-12l4 -14l-14 6l4 -22l-19 10l8 -23l-16 13l6 -27l-20 14l10 -28l-25 14l15 -27q-29 0 -52.5 24.5t-23.5 51.5zM573 997l9 62q16 18 38.5 30.5t47.5 12.5 q20 0 32 -6l-22 -21l-6 -43zM709 1223q0 12 8 19t16 7q14 0 21 -14v-8l2 -2q0 -18 -5.5 -16.5t-15.5 -8.5q-16 0 -21 9.5t-5 13.5z" />
<glyph unicode="&#xc0;" horiz-adv-x="1030" d="M70 137q45 43 108 43q2 -4 8.5 -12t18.5 -12v-11h-12l2 -16l-13 8l4 -24l-16 10l8 -21l-20 11l10 -25l-21 14l9 -28l-25 14l16 -31q-31 0 -54 26t-23 54zM78 188l325 1092l82 18l-307 -1081zM141 1749q27 47 56.5 65.5t81.5 18.5q-14 -12 -23.5 -22.5t-9.5 -41.5 q-4 0 -9.5 1.5t-11.5 1.5q-16 0 -35.5 -4.5t-48.5 -18.5zM143 1712q25 18 48.5 27.5t58.5 9.5q2 -4 6 -9t14 -9v-11h-12l4 -14l-12 6l2 -20l-14 8l8 -19l-19 11l9 -23l-23 12l10 -26l-24 14l14 -27q-29 0 -49.5 23t-20.5 47zM227 88q0 12 9.5 18.5t13.5 6.5q16 0 19 -10.5 t7 -14.5q0 -12 -10 -22h-10q-2 0 -4 -3q-12 0 -18.5 9.5t-6.5 15.5zM416 1317q10 55 48 74.5t91 19.5v-8q-33 -14 -45 -37t-12 -31q-23 0 -46.5 -5t-35.5 -13zM543 893l41 207l153 -533h-98zM590 1546q0 20 22 21q23 0 23 -19q0 -12 -4 -16q-8 -8 -19 -8q-23 0 -22 22z M649 1585q0 2 3 6t7 4q12 0 13 -10q0 -4 -2 -6q-4 -4 -8 -4q-12 0 -13 10zM698 305l95 115l45 -203l-101 -47zM752 131q23 23 43 31t61 8q8 -12 29 -18v-11h-13l5 -16l-15 6l4 -22l-16 10l6 -23l-18 13l10 -25l-21 12l9 -28l-25 16l16 -31q-31 0 -53 25.5t-22 52.5zM909 88 q0 12 8.5 18.5t16.5 6.5q12 0 22 -13l2 -12q0 -12 -10 -22h-10q-2 0 -4 -3q-16 0 -20.5 9.5t-4.5 15.5z" />
<glyph unicode="&#xc1;" horiz-adv-x="1030" d="M70 137q45 43 108 43q2 -4 8.5 -12t18.5 -12v-11h-12l2 -16l-13 8l4 -24l-16 10l8 -21l-20 11l10 -25l-21 14l9 -28l-25 14l16 -31q-31 0 -54 26t-23 54zM78 188l325 1092l82 18l-307 -1081zM227 88q0 12 9.5 18.5t13.5 6.5q16 0 19 -10.5t7 -14.5q0 -12 -10 -22h-10 q-2 0 -4 -3q-12 0 -18.5 9.5t-6.5 15.5zM340 1575v18q0 39 49 74l62 -8l-4 -39zM402 1681l358 156l31 -29l-324 -137zM416 1317q10 55 48 74.5t91 19.5v-8q-33 -14 -45 -37t-12 -31q-23 0 -46.5 -5t-35.5 -13zM543 893l41 207l153 -533h-98zM698 305l95 115l45 -203 l-101 -47zM752 131q23 23 43 31t61 8q8 -12 29 -18v-11h-13l5 -16l-15 6l4 -22l-16 10l6 -23l-18 13l10 -25l-21 12l9 -28l-25 16l16 -31q-31 0 -53 25.5t-22 52.5zM836 1686q0 10 6 15t10 5q15 0 23 -14q0 -31 -19 -31q-14 0 -17 10t-3 15zM909 88q0 12 8.5 18.5t16.5 6.5 q12 0 22 -13l2 -12q0 -12 -10 -22h-10q-2 0 -4 -3q-16 0 -20.5 9.5t-4.5 15.5z" />
<glyph unicode="&#xc2;" horiz-adv-x="1030" d="M70 137q45 43 108 43q2 -4 8.5 -12t18.5 -12v-11h-12l2 -16l-13 8l4 -24l-16 10l8 -21l-20 11l10 -25l-21 14l9 -28l-25 14l16 -31q-31 0 -54 26t-23 54zM78 188l325 1092l82 18l-307 -1081zM227 88q0 12 9.5 18.5t13.5 6.5q16 0 19 -10.5t7 -14.5q0 -12 -10 -22h-10 q-2 0 -4 -3q-12 0 -18.5 9.5t-6.5 15.5zM277 1595q0 20 12 43l147 226q37 10 60 10h16l-149 -209q-4 -8 -9.5 -15.5t-5.5 -15.5t15 -14l-37 -31q-10 -10 -18.5 -22.5t-18.5 -20.5q-12 27 -12 49zM369 1546q0 23 26 23q10 0 16.5 -7.5t6.5 -15.5q-1 -24 -21 -24q-29 0 -28 24 zM416 1317q10 55 48 74.5t91 19.5v-8q-33 -14 -45 -37t-12 -31q-23 0 -46.5 -5t-35.5 -13zM432 1577q0 4 5 10t12 6q2 0 8 -5t6 -13q0 -14 -14 -14q-16 0 -17 16zM543 893l41 207l153 -533h-98zM655 1548q0 12 9.5 19.5t17.5 7.5q27 0 27 -27q0 -12 -7.5 -20t-15.5 -8 q-18 0 -24.5 10t-6.5 18zM698 305l95 115l45 -203l-101 -47zM715 1579q0 14 12 14q4 0 8 -6q6 -4 6 -8q0 -12 -16 -12q-10 0 -10 12zM752 131q23 23 43 31t61 8q8 -12 29 -18v-11h-13l5 -16l-15 6l4 -22l-16 10l6 -23l-18 13l10 -25l-21 12l9 -28l-25 16l16 -31 q-31 0 -53 25.5t-22 52.5zM909 88q0 12 8.5 18.5t16.5 6.5q12 0 22 -13l2 -12q0 -12 -10 -22h-10q-2 0 -4 -3q-16 0 -20.5 9.5t-4.5 15.5z" />
<glyph unicode="&#xc3;" horiz-adv-x="1030" d="M70 137q45 43 108 43q2 -4 8.5 -12t18.5 -12v-11h-12l2 -16l-13 8l4 -24l-16 10l8 -21l-20 11l10 -25l-21 14l9 -28l-25 14l16 -31q-31 0 -54 26t-23 54zM78 188l325 1092l82 18l-307 -1081zM227 88q0 12 9.5 18.5t13.5 6.5q16 0 19 -10.5t7 -14.5q0 -12 -10 -22h-10 q-2 0 -4 -3q-12 0 -18.5 9.5t-6.5 15.5zM245 1546q0 4 4 4q8 0 9 -4v-2q-4 -4 -2 -5t-2 -1q-8 0 -9 8zM288 1561q0 12 8.5 19t16.5 7q14 0 20.5 -9t6.5 -17q0 -20 -25 -21q-10 0 -18.5 7t-8.5 14zM416 1317q10 55 48 74.5t91 19.5v-8q-33 -14 -45 -37t-12 -31 q-23 0 -46.5 -5t-35.5 -13zM543 893l41 207l153 -533h-98zM677 1561q0 27 27 26q8 0 16.5 -8t8.5 -16q-1 -9 -9 -15q-6 -12 -16 -12q-8 0 -17.5 7t-9.5 18zM698 305l95 115l45 -203l-101 -47zM752 131q23 23 43 31t61 8q8 -12 29 -18v-11h-13l5 -16l-15 6l4 -22l-16 10 l6 -23l-18 13l10 -25l-21 12l9 -28l-25 16l16 -31q-31 0 -53 25.5t-22 52.5zM790 1634q0 12 14 13q10 0 11 -13q-1 -12 -11 -12q-14 0 -14 12zM909 88q0 12 8.5 18.5t16.5 6.5q12 0 22 -13l2 -12q0 -12 -10 -22h-10q-2 0 -4 -3q-16 0 -20.5 9.5t-4.5 15.5z" />
<glyph unicode="&#xc4;" horiz-adv-x="1030" d="M70 137q45 43 108 43q2 -4 8.5 -12t18.5 -12v-11h-12l2 -16l-13 8l4 -24l-16 10l8 -21l-20 11l10 -25l-21 14l9 -28l-25 14l16 -31q-31 0 -54 26t-23 54zM78 188l325 1092l82 18l-307 -1081zM188 1636v93l58 12v-74l12 -31l22 -8l-45 -53q-18 4 -30.5 21.5t-16.5 39.5z M188 1757q23 43 44.5 53.5t56.5 10.5v-2l-33 -23q0 -4 -5 -10t-5 -17q-10 4 -11 5q-8 -2 -19 -5.5t-28 -11.5zM227 88q0 12 9.5 18.5t13.5 6.5q16 0 19 -10.5t7 -14.5q0 -12 -10 -22h-10q-2 0 -4 -3q-12 0 -18.5 9.5t-6.5 15.5zM416 1317q10 55 48 74.5t91 19.5v-8 q-33 -14 -45 -37t-12 -31q-23 0 -46.5 -5t-35.5 -13zM543 893l41 207l153 -533h-98zM610 1636v93l57 12v-74l15 -31l20 -8l-47 -53q-35 10 -45 61zM610 1757q23 43 42 53.5t56 10.5q-29 -4 -35 -25.5t-6 -26.5q-10 0 -10 5q-4 -1 -47 -17zM698 305l95 115l45 -203l-101 -47z M752 131q23 23 43 31t61 8q8 -12 29 -18v-11h-13l5 -16l-15 6l4 -22l-16 10l6 -23l-18 13l10 -25l-21 12l9 -28l-25 16l16 -31q-31 0 -53 25.5t-22 52.5zM909 88q0 12 8.5 18.5t16.5 6.5q12 0 22 -13l2 -12q0 -12 -10 -22h-10q-2 0 -4 -3q-16 0 -20.5 9.5t-4.5 15.5z" />
<glyph unicode="&#xc5;" horiz-adv-x="1030" d="M70 137q45 43 108 43q2 -4 8.5 -12t18.5 -12v-11h-12l2 -16l-13 8l4 -24l-16 10l8 -21l-20 11l10 -25l-21 14l9 -28l-25 14l16 -31q-31 0 -54 26t-23 54zM78 188l325 1092l82 18l-307 -1081zM227 88q0 12 9.5 18.5t13.5 6.5q16 0 19 -10.5t7 -14.5q0 -12 -10 -22h-10 q-2 0 -4 -3q-12 0 -18.5 9.5t-6.5 15.5zM346 1610v125q0 49 82 49v-137q0 -23 9 -44.5t26 -25.5q-18 -27 -40 -40t-34 -13q-35 25 -43 86zM367 1794q18 23 30.5 35t23.5 17t22.5 6t23.5 1v-2q-23 -23 -31 -28.5t-8 -14.5q-2 0 -4 1t-10 1q-6 0 -20.5 -4t-26.5 -12zM405 1509 q8 0 34 21.5t42 38.5q6 -6 21 -6h6q0 -14 -17.5 -38t-42.5 -36q-6 0 -22 5t-21 15zM416 1317q10 55 48 74.5t91 19.5v-8q-33 -14 -45 -37t-12 -31q-23 0 -46.5 -5t-35.5 -13zM543 893l41 207l153 -533h-98zM586 1647v65l82 82v-131q0 -12 -8.5 -19.5t-41.5 -7.5 q-4 0 -19 6.5t-13 4.5zM643 1538q0 16 16 16t17 -14q0 -4 -3.5 -10t-13.5 -6q-16 0 -16 14zM698 305l95 115l45 -203l-101 -47zM752 131q23 23 43 31t61 8q8 -12 29 -18v-11h-13l5 -16l-15 6l4 -22l-16 10l6 -23l-18 13l10 -25l-21 12l9 -28l-25 16l16 -31q-31 0 -53 25.5 t-22 52.5zM909 88q0 12 8.5 18.5t16.5 6.5q12 0 22 -13l2 -12q0 -12 -10 -22h-10q-2 0 -4 -3q-16 0 -20.5 9.5t-4.5 15.5z" />
<glyph unicode="&#xc6;" horiz-adv-x="1527" d="M84 137q45 43 106 43q2 -4 8.5 -12t18.5 -12v-11h-10l2 -16l-14 8l6 -24l-19 10l8 -21l-20 11l10 -25l-22 14l10 -28l-23 14l13 -31q-29 0 -51.5 26t-22.5 54zM90 188l326 1092l82 18l-308 -1081zM242 88q0 12 7 18.5t15 6.5q12 0 23 -13l2 -12q0 -12 -10 -22h-9 q-2 0 -4 -3q-16 0 -20 9.5t-4 15.5zM430 1317q25 53 57.5 73.5t81.5 20.5q-2 -2 -2 -8l-39 -35q-4 -2 -11 -13.5t-7 -19.5h-10l-2 2q-6 0 -22.5 -5t-45.5 -15zM555 893l43 207l152 -533h-101zM711 305l94 115l47 -203l-102 -47zM756 1022v260l104 96v-723zM764 131 q23 23 46.5 31t59.5 8q4 -12 15 -14l14 -4v-11h-14l4 -16l-12 6l2 -22l-17 10l8 -23l-18 13l8 -25l-22 12l10 -28l-25 16l15 -31q-29 0 -51.5 25.5t-22.5 52.5zM1133 700q0 12 7 19.5t15 7.5q27 0 27 -25q0 -12 -8.5 -18t-16.5 -6q-12 0 -18 7t-6 15zM1202 725q0 8 4 12 l23 -18q-6 -8 -10 -8q-16 0 -17 14zM1329 1241q0 31 25 31q27 0 26 -31q0 -8 -8 -14q-8 -8 -18 -8t-17.5 7t-7.5 15zM1335 92q0 12 9.5 20.5t19.5 8.5q16 0 18.5 -10.5t12.5 -18.5q0 -10 -10.5 -18t-20.5 -8q-18 0 -23.5 11t-5.5 15zM1384 1282q0 4 5.5 10t15.5 6q4 0 11 -5 t7 -15q0 -4 -6 -10t-16 -6q-4 0 -10.5 7t-6.5 13z" />
<glyph unicode="&#xc7;" horiz-adv-x="1073" d="M80 719q0 31 7 81t30 93l192 360l84 23l-178 -340q-43 -80 -43 -193q0 -47 9 -80.5t34 -76.5l195 -348l-103 -58l-190 387q-23 45 -30 82t-7 70zM326 145q45 55 116 56q0 -14 27 -23v-12h-14l4 -14l-13 4l5 -19l-17 8l8 -20l-18 12l10 -26l-24 14l10 -31l-27 17l17 -29 q-29 0 -45.5 15.5t-38.5 47.5zM332 1298q12 23 34.5 43.5t50 36t57.5 24.5t54 9l-18 -20q-59 -37 -76.5 -55.5t-17.5 -22.5q-12 6 -21 6q-10 0 -28.5 -7t-34.5 -14zM485 -137q14 66 48 89t96 23v-4q0 -14 -8.5 -25.5t-8.5 -39.5q-49 0 -81 -12.5t-46 -30.5zM489 -195 q4 47 34 62.5t95 15.5v-106l-129 -121v149zM911 100q0 31 27 31q14 0 23.5 -9.5t9.5 -21.5q0 -27 -33 -26q-27 0 -27 26zM911 1270q0 10 8.5 19t18.5 9q29 0 29 -28q0 -11 -6 -17q-10 -12 -23 -12q-10 0 -18.5 7t-8.5 22z" />
<glyph unicode="&#xc8;" d="M113 39v1243l106 96v-1226zM178 1749q27 47 56.5 65.5t81.5 18.5q-14 -12 -23.5 -22.5t-9.5 -41.5q-4 0 -9.5 1.5t-11.5 1.5q-16 0 -35.5 -4.5t-48.5 -18.5zM180 1712q25 18 48.5 27.5t58.5 9.5q2 -4 6 -9t14 -9v-11h-12l4 -14l-12 6l2 -20l-14 8l8 -19l-19 11l9 -23 l-23 12l10 -26l-24 14l14 -27q-29 0 -49.5 23t-20.5 47zM575 700q0 27 25 27q27 0 27 -25q0 -12 -7.5 -18t-15.5 -6q-14 0 -21.5 7t-7.5 15zM627 1546q0 20 22 21q23 0 23 -19q0 -12 -4 -16q-8 -8 -19 -8q-23 0 -22 22zM641 727q0 6 6 11t10 5q20 0 21 -16q0 -4 -4 -8 q-6 -8 -12 -8q-8 0 -14.5 6t-6.5 10zM686 1585q0 2 3 6t7 4q12 0 13 -10q0 -4 -2 -6q-4 -4 -8 -4q-12 0 -13 10zM909 1241q0 14 8.5 22.5t16.5 8.5q27 0 27 -31q-1 -8 -7 -14q-8 -8 -18 -8t-18.5 7t-8.5 15zM918 92q0 14 10 21.5t16 7.5q25 0 29 -25v-4q0 -27 -27 -26 q-18 0 -23 11t-5 15zM965 1282q0 4 6 10t16 6q4 0 11.5 -5t7.5 -15q0 -4 -6.5 -10t-16.5 -6q-6 0 -12 6t-6 14zM973 129q0 2 6 9t10 7q18 0 19 -16q0 -6 -4 -10q-10 -6 -15 -6q-16 0 -16 16z" />
<glyph unicode="&#xc9;" d="M113 39v1243l106 96v-1226zM377 1575v18q0 39 49 74l62 -8l-4 -39zM439 1681l358 156l31 -29l-324 -137zM575 700q0 27 25 27q27 0 27 -25q0 -12 -7.5 -18t-15.5 -6q-14 0 -21.5 7t-7.5 15zM641 727q0 6 6 11t10 5q20 0 21 -16q0 -4 -4 -8q-6 -8 -12 -8q-8 0 -14.5 6 t-6.5 10zM873 1686q0 10 6 15t10 5q15 0 23 -14q0 -31 -19 -31q-14 0 -17 10t-3 15zM909 1241q0 14 8.5 22.5t16.5 8.5q27 0 27 -31q-1 -8 -7 -14q-8 -8 -18 -8t-18.5 7t-8.5 15zM918 92q0 14 10 21.5t16 7.5q25 0 29 -25v-4q0 -27 -27 -26q-18 0 -23 11t-5 15zM965 1282 q0 4 6 10t16 6q4 0 11.5 -5t7.5 -15q0 -4 -6.5 -10t-16.5 -6q-6 0 -12 6t-6 14zM973 129q0 2 6 9t10 7q18 0 19 -16q0 -6 -4 -10q-10 -6 -15 -6q-16 0 -16 16z" />
<glyph unicode="&#xca;" d="M113 39v1243l106 96v-1226zM316 1595q0 20 12 43l147 226q37 10 60 10h16l-149 -209q-4 -8 -9.5 -15.5t-5.5 -15.5t15 -14l-37 -31q-10 -10 -18.5 -22.5t-18.5 -20.5q-12 27 -12 49zM408 1546q0 23 26 23q10 0 16.5 -7.5t6.5 -15.5q-1 -24 -21 -24q-29 0 -28 24z M471 1577q0 4 5 10t12 6q2 0 8 -5t6 -13q0 -14 -14 -14q-16 0 -17 16zM575 700q0 27 25 27q27 0 27 -25q0 -12 -7.5 -18t-15.5 -6q-14 0 -21.5 7t-7.5 15zM641 727q0 6 6 11t10 5q20 0 21 -16q0 -4 -4 -8q-6 -8 -12 -8q-8 0 -14.5 6t-6.5 10zM694 1548q0 12 9.5 19.5 t17.5 7.5q27 0 27 -27q0 -12 -7.5 -20t-15.5 -8q-18 0 -24.5 10t-6.5 18zM754 1579q0 14 12 14q4 0 8 -6q6 -4 6 -8q0 -12 -16 -12q-10 0 -10 12zM909 1241q0 14 8.5 22.5t16.5 8.5q27 0 27 -31q-1 -8 -7 -14q-8 -8 -18 -8t-18.5 7t-8.5 15zM918 92q0 14 10 21.5t16 7.5 q25 0 29 -25v-4q0 -27 -27 -26q-18 0 -23 11t-5 15zM965 1282q0 4 6 10t16 6q4 0 11.5 -5t7.5 -15q0 -4 -6.5 -10t-16.5 -6q-6 0 -12 6t-6 14zM973 129q0 2 6 9t10 7q18 0 19 -16q0 -6 -4 -10q-10 -6 -15 -6q-16 0 -16 16z" />
<glyph unicode="&#xcb;" d="M113 39v1243l106 96v-1226zM201 1636v93l58 12v-74l12 -31l22 -8l-45 -53q-18 4 -30.5 21.5t-16.5 39.5zM201 1757q23 43 44.5 53.5t56.5 10.5v-2l-33 -23q0 -4 -5 -10t-5 -17q-10 4 -11 5q-8 -2 -19 -5.5t-28 -11.5zM575 700q0 27 25 27q27 0 27 -25q0 -12 -7.5 -18 t-15.5 -6q-14 0 -21.5 7t-7.5 15zM623 1636v93l57 12v-74l15 -31l20 -8l-47 -53q-35 10 -45 61zM623 1757q23 43 42 53.5t56 10.5q-29 -4 -35 -25.5t-6 -26.5q-10 0 -10 5q-4 -1 -47 -17zM641 727q0 6 6 11t10 5q20 0 21 -16q0 -4 -4 -8q-6 -8 -12 -8q-8 0 -14.5 6t-6.5 10z M909 1241q0 14 8.5 22.5t16.5 8.5q27 0 27 -31q-1 -8 -7 -14q-8 -8 -18 -8t-18.5 7t-8.5 15zM918 92q0 14 10 21.5t16 7.5q25 0 29 -25v-4q0 -27 -27 -26q-18 0 -23 11t-5 15zM965 1282q0 4 6 10t16 6q4 0 11.5 -5t7.5 -15q0 -4 -6.5 -10t-16.5 -6q-6 0 -12 6t-6 14z M973 129q0 2 6 9t10 7q18 0 19 -16q0 -6 -4 -10q-10 -6 -15 -6q-16 0 -16 16z" />
<glyph unicode="&#xcc;" horiz-adv-x="1103" d="M109 154q29 53 61.5 73.5t81.5 20.5q-10 -10 -21.5 -23.5t-11.5 -46.5q-2 0 -7 1t-13 1q-14 0 -38 -5t-52 -21zM109 1317q29 49 61.5 71.5t81.5 22.5q-10 -12 -21.5 -26.5t-11.5 -45.5q-2 0 -7 1t-13 1q-14 0 -38 -4t-52 -20zM113 113q25 25 50 33t60 8q2 -8 23 -17v-12 h-13l5 -19l-15 7l2 -21l-14 8l8 -18l-18 10l8 -24l-23 14l9 -33l-25 19l16 -29q-29 0 -51 24.5t-22 49.5zM113 1274q25 25 50 34t60 9q4 -12 23 -19v-12h-13l5 -18l-15 6l2 -21l-14 9l8 -21l-18 12l8 -24l-23 12l9 -29l-25 17l16 -29q-29 0 -51 24.5t-22 49.5zM178 1749 q27 47 56.5 65.5t81.5 18.5q-14 -12 -23.5 -22.5t-9.5 -41.5q-4 0 -9.5 1.5t-11.5 1.5q-16 0 -35.5 -4.5t-48.5 -18.5zM180 1712q25 18 48.5 27.5t58.5 9.5q2 -4 6 -9t14 -9v-11h-12l4 -14l-12 6l2 -20l-14 8l8 -19l-19 11l9 -23l-23 12l10 -26l-24 14l14 -27 q-29 0 -49.5 23t-20.5 47zM444 276v902l109 116v-1018h-109zM627 1546q0 20 22 21q23 0 23 -19q0 -12 -4 -16q-8 -8 -19 -8q-23 0 -22 22zM686 1585q0 2 3 6t7 4q12 0 13 -10q0 -4 -2 -6q-4 -4 -8 -4q-12 0 -13 10zM887 1239q0 18 14 18q6 0 12.5 -3t6.5 -13q-1 -16 -17 -16 t-16 14zM926 1280q0 6 6 15.5t18 9.5q6 0 16.5 -7.5t10.5 -17.5q0 -12 -6 -18q-10 -10 -19 -11q-8 0 -17 7.5t-9 21.5zM942 100q0 18 7 23.5t16 5.5q16 0 22 -8t6 -17q0 -16 -9 -21t-15 -5q-16 0 -21.5 8t-5.5 14z" />
<glyph unicode="&#xcd;" horiz-adv-x="1103" d="M109 154q29 53 61.5 73.5t81.5 20.5q-10 -10 -21.5 -23.5t-11.5 -46.5q-2 0 -7 1t-13 1q-14 0 -38 -5t-52 -21zM109 1317q29 49 61.5 71.5t81.5 22.5q-10 -12 -21.5 -26.5t-11.5 -45.5q-2 0 -7 1t-13 1q-14 0 -38 -4t-52 -20zM113 113q25 25 50 33t60 8q2 -8 23 -17v-12 h-13l5 -19l-15 7l2 -21l-14 8l8 -18l-18 10l8 -24l-23 14l9 -33l-25 19l16 -29q-29 0 -51 24.5t-22 49.5zM113 1274q25 25 50 34t60 9q4 -12 23 -19v-12h-13l5 -18l-15 6l2 -21l-14 9l8 -21l-18 12l8 -24l-23 12l9 -29l-25 17l16 -29q-29 0 -51 24.5t-22 49.5zM377 1575v18 q0 39 49 74l62 -8l-4 -39zM439 1681l358 156l31 -29l-324 -137zM444 276v902l109 116v-1018h-109zM873 1686q0 10 6 15t10 5q15 0 23 -14q0 -31 -19 -31q-14 0 -17 10t-3 15zM887 1239q0 18 14 18q6 0 12.5 -3t6.5 -13q-1 -16 -17 -16t-16 14zM926 1280q0 6 6 15.5t18 9.5 q6 0 16.5 -7.5t10.5 -17.5q0 -12 -6 -18q-10 -10 -19 -11q-8 0 -17 7.5t-9 21.5zM942 100q0 18 7 23.5t16 5.5q16 0 22 -8t6 -17q0 -16 -9 -21t-15 -5q-16 0 -21.5 8t-5.5 14z" />
<glyph unicode="&#xce;" horiz-adv-x="1103" d="M109 154q29 53 61.5 73.5t81.5 20.5q-10 -10 -21.5 -23.5t-11.5 -46.5q-2 0 -7 1t-13 1q-14 0 -38 -5t-52 -21zM109 1317q29 49 61.5 71.5t81.5 22.5q-10 -12 -21.5 -26.5t-11.5 -45.5q-2 0 -7 1t-13 1q-14 0 -38 -4t-52 -20zM113 113q25 25 50 33t60 8q2 -8 23 -17v-12 h-13l5 -19l-15 7l2 -21l-14 8l8 -18l-18 10l8 -24l-23 14l9 -33l-25 19l16 -29q-29 0 -51 24.5t-22 49.5zM113 1274q25 25 50 34t60 9q4 -12 23 -19v-12h-13l5 -18l-15 6l2 -21l-14 9l8 -21l-18 12l8 -24l-23 12l9 -29l-25 17l16 -29q-29 0 -51 24.5t-22 49.5zM314 1595 q0 20 12 43l147 226q37 10 60 10h16l-149 -209q-4 -8 -9.5 -15.5t-5.5 -15.5t15 -14l-37 -31q-10 -10 -18.5 -22.5t-18.5 -20.5q-12 27 -12 49zM406 1546q0 23 26 23q10 0 16.5 -7.5t6.5 -15.5q-1 -24 -21 -24q-29 0 -28 24zM444 276v902l109 116v-1018h-109zM469 1577 q0 4 5 10t12 6q2 0 8 -5t6 -13q0 -14 -14 -14q-16 0 -17 16zM692 1548q0 12 9.5 19.5t17.5 7.5q27 0 27 -27q0 -12 -7.5 -20t-15.5 -8q-18 0 -24.5 10t-6.5 18zM752 1579q0 14 12 14q4 0 8 -6q6 -4 6 -8q0 -12 -16 -12q-10 0 -10 12zM887 1239q0 18 14 18q6 0 12.5 -3 t6.5 -13q-1 -16 -17 -16t-16 14zM926 1280q0 6 6 15.5t18 9.5q6 0 16.5 -7.5t10.5 -17.5q0 -12 -6 -18q-10 -10 -19 -11q-8 0 -17 7.5t-9 21.5zM942 100q0 18 7 23.5t16 5.5q16 0 22 -8t6 -17q0 -16 -9 -21t-15 -5q-16 0 -21.5 8t-5.5 14z" />
<glyph unicode="&#xcf;" horiz-adv-x="1103" d="M109 154q29 53 61.5 73.5t81.5 20.5q-10 -10 -21.5 -23.5t-11.5 -46.5q-2 0 -7 1t-13 1q-14 0 -38 -5t-52 -21zM109 1317q29 49 61.5 71.5t81.5 22.5q-10 -12 -21.5 -26.5t-11.5 -45.5q-2 0 -7 1t-13 1q-14 0 -38 -4t-52 -20zM113 113q25 25 50 33t60 8q2 -8 23 -17v-12 h-13l5 -19l-15 7l2 -21l-14 8l8 -18l-18 10l8 -24l-23 14l9 -33l-25 19l16 -29q-29 0 -51 24.5t-22 49.5zM113 1274q25 25 50 34t60 9q4 -12 23 -19v-12h-13l5 -18l-15 6l2 -21l-14 9l8 -21l-18 12l8 -24l-23 12l9 -29l-25 17l16 -29q-29 0 -51 24.5t-22 49.5zM201 1636v93 l58 12v-74l12 -31l22 -8l-45 -53q-18 4 -30.5 21.5t-16.5 39.5zM201 1757q23 43 44.5 53.5t56.5 10.5v-2l-33 -23q0 -4 -5 -10t-5 -17q-10 4 -11 5q-8 -2 -19 -5.5t-28 -11.5zM444 276v902l109 116v-1018h-109zM623 1636v93l57 12v-74l15 -31l20 -8l-47 -53q-35 10 -45 61z M623 1757q23 43 42 53.5t56 10.5q-29 -4 -35 -25.5t-6 -26.5q-10 0 -10 5q-4 -1 -47 -17zM887 1239q0 18 14 18q6 0 12.5 -3t6.5 -13q-1 -16 -17 -16t-16 14zM926 1280q0 6 6 15.5t18 9.5q6 0 16.5 -7.5t10.5 -17.5q0 -12 -6 -18q-10 -10 -19 -11q-8 0 -17 7.5t-9 21.5z M942 100q0 18 7 23.5t16 5.5q16 0 22 -8t6 -17q0 -16 -9 -21t-15 -5q-16 0 -21.5 8t-5.5 14z" />
<glyph unicode="&#xd0;" horiz-adv-x="1073" d="M111 154q29 53 59.5 73.5t77.5 20.5q-4 -4 -15.5 -20.5t-11.5 -49.5q-4 0 -9 1t-11 1q-16 0 -38 -5t-52 -21zM111 1317q29 49 61.5 71.5t81.5 22.5l-10 -10q-8 -8 -15.5 -23.5t-7.5 -38.5q-4 0 -9 1t-11 1q-16 0 -38 -4t-52 -20zM115 113q25 25 48 33t62 8 q2 -4 9.5 -10.5t11.5 -6.5v-12h-10l10 -19l-21 7l2 -21l-14 8l8 -18l-18 10l8 -24l-23 14l9 -33l-25 19l16 -29q-31 0 -52 24.5t-21 49.5zM115 1274q43 43 110 43q2 -6 8.5 -12.5t12.5 -6.5v-12h-10l4 -18l-15 6l2 -21l-14 9l8 -21l-18 12l8 -24l-23 12l9 -29l-25 17l16 -29 q-31 0 -52 24.5t-21 49.5zM127 717v10l47 12q0 -10 10.5 -23.5t28.5 -13.5l-25 -59q-61 8 -61 74zM127 760q8 31 30.5 45t55.5 14v-6q-14 -8 -26.5 -22.5t-12.5 -18.5q-23 0 -47 -12zM279 279v264l96 75v-339h-96zM279 829v340l96 99v-439h-96zM547 1186l37 100q10 2 18 3 t12 1q29 0 43.5 -16.5t24.5 -32.5l176 -348q23 -37 30 -74t7 -55q0 -20 -10.5 -56t-26.5 -65l-176 -315q-10 -16 -21.5 -28.5t-21.5 -16.5l-55 -7q27 16 38 38t17 38l131 291q10 25 16.5 47.5t6.5 48.5q0 29 -3.5 43.5t-13.5 32.5l-186 340q-12 25 -43 31z" />
<glyph unicode="&#xd1;" horiz-adv-x="1110" d="M119 106q35 29 65.5 38.5t40.5 9.5q2 -2 15 -13l6 -4v-12h-10l4 -19l-15 7l2 -21l-14 8l8 -18l-18 10l8 -24l-23 14l9 -33l-25 19l16 -29q-31 0 -50 21.5t-19 45.5zM119 139v1135l98 84v-1157zM274 102q0 4 5.5 13.5t17.5 9.5q4 0 12 -6t8 -15q-4 -4 -4 -12 q-6 -12 -14 -12q-6 0 -15.5 5t-9.5 17zM286 1546q0 4 4 4q8 0 9 -4v-2q-4 -4 -2 -5t-2 -1q-8 0 -9 8zM329 1561q0 12 8.5 19t16.5 7q14 0 20.5 -9t6.5 -17q0 -20 -25 -21q-10 0 -18.5 7t-8.5 14zM342 1169l530 -1017l-503 907l393 -819l-395 735l307 -664l-312 592l187 -452 l-199 397zM718 1561q0 27 27 26q8 0 16.5 -8t8.5 -16q-1 -9 -9 -15q-6 -12 -16 -12q-8 0 -17.5 7t-9.5 18zM793 625v649l98 41v-893zM793 1315q16 53 53 77.5t88 24.5v-8q-49 -18 -62 -68q-12 0 -29.5 -5t-49.5 -21zM831 1634q0 12 14 13q10 0 11 -13q-1 -12 -11 -12 q-14 0 -14 12z" />
<glyph unicode="&#xd2;" horiz-adv-x="1042" d="M72 719q0 35 11 83t26 91l194 360l86 23l-180 -340q-18 -41 -31.5 -87t-13.5 -106q0 -47 10 -81.5t35 -75.5l194 -348l-102 -58l-192 387q-20 45 -28.5 84t-8.5 68zM149 1749q27 47 56.5 65.5t81.5 18.5q-14 -12 -23.5 -22.5t-9.5 -41.5q-4 0 -9.5 1.5t-11.5 1.5 q-16 0 -35.5 -4.5t-48.5 -18.5zM151 1712q25 18 48.5 27.5t58.5 9.5q2 -4 6 -9t14 -9v-11h-12l4 -14l-12 6l2 -20l-14 8l8 -19l-19 11l9 -23l-23 12l10 -26l-24 14l14 -27q-29 0 -49.5 23t-20.5 47zM322 145q18 29 51 42.5t63 13.5q4 -10 17 -19l8 -4v-12h-10l2 -14l-13 4 l4 -19l-16 8l8 -20l-20 12l10 -26l-23 14l11 -31l-25 17l14 -29q-20 0 -34 8l-17 14q-14 14 -30 41zM328 1298q29 47 84 80t110 33l-20 -20q-41 -25 -67.5 -49.5t-26.5 -28.5q-10 6 -17 6q-14 0 -32.5 -7t-30.5 -14zM516 1186l35 100q10 2 18.5 3t12.5 1q29 0 45 -15t22 -34 l178 -348q23 -37 29 -74t6 -55q0 -20 -9 -56t-26 -65l-178 -315l-41 -45l-57 -7q27 16 40 37t17 39l129 291q18 37 20.5 58.5t2.5 37.5q0 14 -17 76l-186 340zM598 1546q0 20 22 21q23 0 23 -19q0 -12 -4 -16q-8 -8 -19 -8q-23 0 -22 22zM657 1585q0 2 3 6t7 4q12 0 13 -10 q0 -4 -2 -6q-4 -4 -8 -4q-12 0 -13 10zM682 141q0 4 5 12.5t18 8.5q23 0 22 -21q0 -10 -6 -16t-16 -6q-23 0 -23 22zM713 188q0 4 5 10.5t11 6.5q2 0 7 -4.5t5 -10.5q0 -14 -14 -14t-14 12z" />
<glyph unicode="&#xd3;" horiz-adv-x="1042" d="M72 719q0 35 11 83t26 91l194 360l86 23l-180 -340q-18 -41 -31.5 -87t-13.5 -106q0 -47 10 -81.5t35 -75.5l194 -348l-102 -58l-192 387q-20 45 -28.5 84t-8.5 68zM322 145q18 29 51 42.5t63 13.5q4 -10 17 -19l8 -4v-12h-10l2 -14l-13 4l4 -19l-16 8l8 -20l-20 12 l10 -26l-23 14l11 -31l-25 17l14 -29q-20 0 -34 8l-17 14q-14 14 -30 41zM328 1298q29 47 84 80t110 33l-20 -20q-41 -25 -67.5 -49.5t-26.5 -28.5q-10 6 -17 6q-14 0 -32.5 -7t-30.5 -14zM346 1575v18q0 39 49 74l62 -8l-4 -39zM408 1681l358 156l31 -29l-324 -137z M516 1186l35 100q10 2 18.5 3t12.5 1q29 0 45 -15t22 -34l178 -348q23 -37 29 -74t6 -55q0 -20 -9 -56t-26 -65l-178 -315l-41 -45l-57 -7q27 16 40 37t17 39l129 291q18 37 20.5 58.5t2.5 37.5q0 14 -17 76l-186 340zM682 141q0 4 5 12.5t18 8.5q23 0 22 -21q0 -10 -6 -16 t-16 -6q-23 0 -23 22zM713 188q0 4 5 10.5t11 6.5q2 0 7 -4.5t5 -10.5q0 -14 -14 -14t-14 12zM842 1686q0 10 6 15t10 5q15 0 23 -14q0 -31 -19 -31q-14 0 -17 10t-3 15z" />
<glyph unicode="&#xd4;" horiz-adv-x="1042" d="M72 719q0 35 11 83t26 91l194 360l86 23l-180 -340q-18 -41 -31.5 -87t-13.5 -106q0 -47 10 -81.5t35 -75.5l194 -348l-102 -58l-192 387q-20 45 -28.5 84t-8.5 68zM283 1595q0 20 12 43l147 226q37 10 60 10h16l-149 -209q-4 -8 -9.5 -15.5t-5.5 -15.5t15 -14l-37 -31 q-10 -10 -18.5 -22.5t-18.5 -20.5q-12 27 -12 49zM322 145q18 29 51 42.5t63 13.5q4 -10 17 -19l8 -4v-12h-10l2 -14l-13 4l4 -19l-16 8l8 -20l-20 12l10 -26l-23 14l11 -31l-25 17l14 -29q-20 0 -34 8l-17 14q-14 14 -30 41zM328 1298q29 47 84 80t110 33l-20 -20 q-41 -25 -67.5 -49.5t-26.5 -28.5q-10 6 -17 6q-14 0 -32.5 -7t-30.5 -14zM375 1546q0 23 26 23q10 0 16.5 -7.5t6.5 -15.5q-1 -24 -21 -24q-29 0 -28 24zM438 1577q0 4 5 10t12 6q2 0 8 -5t6 -13q0 -14 -14 -14q-16 0 -17 16zM516 1186l35 100q10 2 18.5 3t12.5 1 q29 0 45 -15t22 -34l178 -348q23 -37 29 -74t6 -55q0 -20 -9 -56t-26 -65l-178 -315l-41 -45l-57 -7q27 16 40 37t17 39l129 291q18 37 20.5 58.5t2.5 37.5q0 14 -17 76l-186 340zM661 1548q0 12 9.5 19.5t17.5 7.5q27 0 27 -27q0 -12 -7.5 -20t-15.5 -8q-18 0 -24.5 10 t-6.5 18zM682 141q0 4 5 12.5t18 8.5q23 0 22 -21q0 -10 -6 -16t-16 -6q-23 0 -23 22zM713 188q0 4 5 10.5t11 6.5q2 0 7 -4.5t5 -10.5q0 -14 -14 -14t-14 12zM721 1579q0 14 12 14q4 0 8 -6q6 -4 6 -8q0 -12 -16 -12q-10 0 -10 12z" />
<glyph unicode="&#xd5;" horiz-adv-x="1042" d="M72 719q0 35 11 83t26 91l194 360l86 23l-180 -340q-18 -41 -31.5 -87t-13.5 -106q0 -47 10 -81.5t35 -75.5l194 -348l-102 -58l-192 387q-20 45 -28.5 84t-8.5 68zM252 1546q0 4 4 4q8 0 9 -4v-2q-4 -4 -2 -5t-2 -1q-8 0 -9 8zM295 1561q0 12 8.5 19t16.5 7 q14 0 20.5 -9t6.5 -17q0 -20 -25 -21q-10 0 -18.5 7t-8.5 14zM322 145q18 29 51 42.5t63 13.5q4 -10 17 -19l8 -4v-12h-10l2 -14l-13 4l4 -19l-16 8l8 -20l-20 12l10 -26l-23 14l11 -31l-25 17l14 -29q-20 0 -34 8l-17 14q-14 14 -30 41zM328 1298q29 47 84 80t110 33 l-20 -20q-41 -25 -67.5 -49.5t-26.5 -28.5q-10 6 -17 6q-14 0 -32.5 -7t-30.5 -14zM516 1186l35 100q10 2 18.5 3t12.5 1q29 0 45 -15t22 -34l178 -348q23 -37 29 -74t6 -55q0 -20 -9 -56t-26 -65l-178 -315l-41 -45l-57 -7q27 16 40 37t17 39l129 291q18 37 20.5 58.5 t2.5 37.5q0 14 -17 76l-186 340zM682 141q0 4 5 12.5t18 8.5q23 0 22 -21q0 -10 -6 -16t-16 -6q-23 0 -23 22zM684 1561q0 27 27 26q8 0 16.5 -8t8.5 -16q-1 -9 -9 -15q-6 -12 -16 -12q-8 0 -17.5 7t-9.5 18zM713 188q0 4 5 10.5t11 6.5q2 0 7 -4.5t5 -10.5q0 -14 -14 -14 t-14 12zM797 1634q0 12 14 13q10 0 11 -13q-1 -12 -11 -12q-14 0 -14 12z" />
<glyph unicode="&#xd6;" horiz-adv-x="1042" d="M72 719q0 35 11 83t26 91l194 360l86 23l-180 -340q-18 -41 -31.5 -87t-13.5 -106q0 -47 10 -81.5t35 -75.5l194 -348l-102 -58l-192 387q-20 45 -28.5 84t-8.5 68zM184 1636v93l58 12v-74l12 -31l22 -8l-45 -53q-18 4 -30.5 21.5t-16.5 39.5zM184 1757q23 43 44.5 53.5 t56.5 10.5v-2l-33 -23q0 -4 -5 -10t-5 -17q-10 4 -11 5q-8 -2 -19 -5.5t-28 -11.5zM322 145q18 29 51 42.5t63 13.5q4 -10 17 -19l8 -4v-12h-10l2 -14l-13 4l4 -19l-16 8l8 -20l-20 12l10 -26l-23 14l11 -31l-25 17l14 -29q-20 0 -34 8l-17 14q-14 14 -30 41zM328 1298 q29 47 84 80t110 33l-20 -20q-41 -25 -67.5 -49.5t-26.5 -28.5q-10 6 -17 6q-14 0 -32.5 -7t-30.5 -14zM516 1186l35 100q10 2 18.5 3t12.5 1q29 0 45 -15t22 -34l178 -348q23 -37 29 -74t6 -55q0 -20 -9 -56t-26 -65l-178 -315l-41 -45l-57 -7q27 16 40 37t17 39l129 291 q18 37 20.5 58.5t2.5 37.5q0 14 -17 76l-186 340zM606 1636v93l57 12v-74l15 -31l20 -8l-47 -53q-35 10 -45 61zM606 1757q23 43 42 53.5t56 10.5q-29 -4 -35 -25.5t-6 -26.5q-10 0 -10 5q-4 -1 -47 -17zM682 141q0 4 5 12.5t18 8.5q23 0 22 -21q0 -10 -6 -16t-16 -6 q-23 0 -23 22zM713 188q0 4 5 10.5t11 6.5q2 0 7 -4.5t5 -10.5q0 -14 -14 -14t-14 12z" />
<glyph unicode="&#xd8;" horiz-adv-x="1071" d="M86 137q0 25 18 60l166 292l37 -71l-102 -189q-2 -2 -4 -13t-2 -19v-29l-95 -86q-18 20 -18 55zM90 719q0 35 10.5 83t26.5 91l195 360l86 23l-181 -340q-20 -41 -32.5 -94.5t-12.5 -98.5q0 -47 11.5 -81.5t33.5 -75.5l19 -35l-62 -109l-57 125q-23 47 -30 81t-7 71z M344 133l25 39q41 29 84 29q10 -20 26 -23v-12h-10l2 -14l-14 4l6 -19l-19 8l9 -20l-19 12l8 -26l-20 14l10 -31l-24 17l14 -29q-20 0 -44 14.5t-34 36.5zM344 1298q10 23 32.5 43.5t50.5 36t58.5 24.5t55.5 9l-21 -20q-35 -23 -64.5 -45.5t-29.5 -32.5q-10 6 -16 6 q-14 0 -34 -7t-32 -14zM358 635l240 405v-2l115 117l18 -35l-334 -561zM565 1176l4 110q10 2 18.5 3t12.5 1q23 0 42.5 -14t25.5 -35l30 -59l-96 -80zM569 276q27 16 40.5 37t17.5 39l129 291q18 37 20 58.5t2 37.5q0 14 -16 76l-10 14l65 117l27 -53q20 -39 28.5 -75 t8.5 -54q0 -20 -10.5 -56t-26.5 -65l-176 -315l-41 -45zM700 141q0 4 5.5 12.5t17.5 8.5q20 -1 20 -21q0 -23 -20 -22q-23 0 -23 22zM731 188q0 2 4 9.5t8 7.5q2 0 9.5 -4.5t7.5 -10.5q0 -2 -6 -8t-11 -6q-12 0 -12 12zM762 1327l35 53q12 20 28.5 22.5t22.5 4.5 q25 0 41 -16l-82 -144l-19 37l-14 24.5t-12 18.5z" />
<glyph unicode="&#xd9;" d="M100 301v956q0 41 34 59.5t93 18.5v-1018q0 -43 19.5 -69.5t36.5 -40.5q-49 -47 -75 -61.5t-42 -16.5q-18 16 -42 64.5t-24 107.5zM115 1335q18 29 50 45.5t62 16.5q2 -2 9 -2q-25 -10 -25 -37h-14q-18 0 -39 -7.5t-43 -15.5zM178 1749q27 47 56.5 65.5t81.5 18.5 q-14 -12 -23.5 -22.5t-9.5 -41.5q-4 0 -9.5 1.5t-11.5 1.5q-16 0 -35.5 -4.5t-48.5 -18.5zM180 1712q25 18 48.5 27.5t58.5 9.5q2 -4 6 -9t14 -9v-11h-12l4 -14l-12 6l2 -20l-14 8l8 -19l-19 11l9 -23l-23 12l10 -26l-24 14l14 -27q-29 0 -49.5 23t-20.5 47zM195 102 q29 23 56.5 44.5t57.5 50.5q10 -8 22.5 -17.5t18.5 -9.5q0 -10 -8 -25.5t-22.5 -31t-31 -28.5t-34.5 -22q-35 0 -59 39zM627 1546q0 20 22 21q23 0 23 -19q0 -12 -4 -16q-8 -8 -19 -8q-23 0 -22 22zM686 1585q0 2 3 6t7 4q12 0 13 -10q0 -4 -2 -6q-4 -4 -8 -4q-12 0 -13 10z M786 287v970q0 47 31 62.5t90 15.5v-966q-29 -82 -121 -82zM793 1335q20 29 52 45.5t62 16.5q2 -2 8 -2q-27 -8 -26 -37h-12q-18 0 -40 -7.5t-44 -15.5zM868 147q0 14 8.5 21.5t16.5 7.5q12 0 19.5 -9.5t7.5 -19.5q0 -23 -27 -22q-12 0 -18.5 9t-6.5 13zM948 219q0 14 13 14 q4 0 11 -5t7 -11q0 -8 -6 -11t-10 -3q-14 0 -15 16z" />
<glyph unicode="&#xda;" d="M100 301v956q0 41 34 59.5t93 18.5v-1018q0 -43 19.5 -69.5t36.5 -40.5q-49 -47 -75 -61.5t-42 -16.5q-18 16 -42 64.5t-24 107.5zM115 1335q18 29 50 45.5t62 16.5q2 -2 9 -2q-25 -10 -25 -37h-14q-18 0 -39 -7.5t-43 -15.5zM195 102q29 23 56.5 44.5t57.5 50.5 q10 -8 22.5 -17.5t18.5 -9.5q0 -10 -8 -25.5t-22.5 -31t-31 -28.5t-34.5 -22q-35 0 -59 39zM377 1575v18q0 39 49 74l62 -8l-4 -39zM439 1681l358 156l31 -29l-324 -137zM786 287v970q0 47 31 62.5t90 15.5v-966q-29 -82 -121 -82zM793 1335q20 29 52 45.5t62 16.5 q2 -2 8 -2q-27 -8 -26 -37h-12q-18 0 -40 -7.5t-44 -15.5zM868 147q0 14 8.5 21.5t16.5 7.5q12 0 19.5 -9.5t7.5 -19.5q0 -23 -27 -22q-12 0 -18.5 9t-6.5 13zM873 1686q0 10 6 15t10 5q15 0 23 -14q0 -31 -19 -31q-14 0 -17 10t-3 15zM948 219q0 14 13 14q4 0 11 -5t7 -11 q0 -8 -6 -11t-10 -3q-14 0 -15 16z" />
<glyph unicode="&#xdb;" d="M100 301v956q0 41 34 59.5t93 18.5v-1018q0 -43 19.5 -69.5t36.5 -40.5q-49 -47 -75 -61.5t-42 -16.5q-18 16 -42 64.5t-24 107.5zM115 1335q18 29 50 45.5t62 16.5q2 -2 9 -2q-25 -10 -25 -37h-14q-18 0 -39 -7.5t-43 -15.5zM195 102q29 23 56.5 44.5t57.5 50.5 q10 -8 22.5 -17.5t18.5 -9.5q0 -10 -8 -25.5t-22.5 -31t-31 -28.5t-34.5 -22q-35 0 -59 39zM316 1595q0 20 12 43l147 226q37 10 60 10h16l-149 -209q-4 -8 -9.5 -15.5t-5.5 -15.5t15 -14l-37 -31q-10 -10 -18.5 -22.5t-18.5 -20.5q-12 27 -12 49zM408 1546q0 23 26 23 q10 0 16.5 -7.5t6.5 -15.5q-1 -24 -21 -24q-29 0 -28 24zM471 1577q0 4 5 10t12 6q2 0 8 -5t6 -13q0 -14 -14 -14q-16 0 -17 16zM694 1548q0 12 9.5 19.5t17.5 7.5q27 0 27 -27q0 -12 -7.5 -20t-15.5 -8q-18 0 -24.5 10t-6.5 18zM754 1579q0 14 12 14q4 0 8 -6q6 -4 6 -8 q0 -12 -16 -12q-10 0 -10 12zM786 287v970q0 47 31 62.5t90 15.5v-966q-29 -82 -121 -82zM793 1335q20 29 52 45.5t62 16.5q2 -2 8 -2q-27 -8 -26 -37h-12q-18 0 -40 -7.5t-44 -15.5zM868 147q0 14 8.5 21.5t16.5 7.5q12 0 19.5 -9.5t7.5 -19.5q0 -23 -27 -22q-12 0 -18.5 9 t-6.5 13zM948 219q0 14 13 14q4 0 11 -5t7 -11q0 -8 -6 -11t-10 -3q-14 0 -15 16z" />
<glyph unicode="&#xdc;" d="M100 301v956q0 41 34 59.5t93 18.5v-1018q0 -43 19.5 -69.5t36.5 -40.5q-49 -47 -75 -61.5t-42 -16.5q-18 16 -42 64.5t-24 107.5zM115 1335q18 29 50 45.5t62 16.5q2 -2 9 -2q-25 -10 -25 -37h-14q-18 0 -39 -7.5t-43 -15.5zM195 102q29 23 56.5 44.5t57.5 50.5 q10 -8 22.5 -17.5t18.5 -9.5q0 -10 -8 -25.5t-22.5 -31t-31 -28.5t-34.5 -22q-35 0 -59 39zM201 1636v93l58 12v-74l12 -31l22 -8l-45 -53q-18 4 -30.5 21.5t-16.5 39.5zM201 1757q23 43 44.5 53.5t56.5 10.5v-2l-33 -23q0 -4 -5 -10t-5 -17q-10 4 -11 5q-8 -2 -19 -5.5 t-28 -11.5zM623 1636v93l57 12v-74l15 -31l20 -8l-47 -53q-35 10 -45 61zM623 1757q23 43 42 53.5t56 10.5q-29 -4 -35 -25.5t-6 -26.5q-10 0 -10 5q-4 -1 -47 -17zM786 287v970q0 47 31 62.5t90 15.5v-966q-29 -82 -121 -82zM793 1335q20 29 52 45.5t62 16.5q2 -2 8 -2 q-27 -8 -26 -37h-12q-18 0 -40 -7.5t-44 -15.5zM868 147q0 14 8.5 21.5t16.5 7.5q12 0 19.5 -9.5t7.5 -19.5q0 -23 -27 -22q-12 0 -18.5 9t-6.5 13zM948 219q0 14 13 14q4 0 11 -5t7 -11q0 -8 -6 -11t-10 -3q-14 0 -15 16z" />
<glyph unicode="&#xdd;" horiz-adv-x="1028" d="M59 1130v146l103 41v-119zM59 1296q23 115 142 115q2 -2 2 -4v-2q0 -2 2 -4q-6 -2 -13.5 -11.5t-14.5 -20.5t-11 -21.5t-4 -12.5q-35 -12 -57.5 -20t-45.5 -19zM340 1575v18q0 39 49 74l62 -8l-4 -39zM402 1681l358 156l31 -29l-324 -137zM412 106q47 27 69.5 36.5 t36.5 9.5q2 -4 7 -9.5t10 -5.5h6v-14h-11l2 -17l-14 7l6 -23l-16 10l8 -18l-20 8l10 -24l-23 16l9 -33l-25 17l16 -29q-31 0 -51 22.5t-20 46.5zM412 137v525l100 86v-549zM539 49q0 6 4 13.5t18 7.5q4 0 11.5 -5.5t7.5 -15.5v-4q0 -2 -1 -3t-1 -5q-6 -10 -21 -10 q-4 0 -11 6t-7 16zM541 928l196 250v98l115 41v-94l-274 -344zM590 100q0 2 4 9.5t10 7.5l2 -2q4 -4 10 -6q0 -4 1 -5.5t1 -3.5t3 -2q0 -12 -15 -12q-4 0 -10 5t-6 9zM737 1296q23 115 142 115q0 -6 2 -8q-23 -23 -28 -30t-5 -15q0 -4 1 -9.5t3 -13.5zM836 1686q0 10 6 15 t10 5q15 0 23 -14q0 -31 -19 -31q-14 0 -17 10t-3 15zM926 1118q0 12 16 12q12 0 14 -12q0 -4 -4 -12t-14 -8q-12 0 -12 20z" />
<glyph unicode="&#xde;" horiz-adv-x="1050" d="M119 106q35 29 65.5 38.5t40.5 9.5q2 -4 9.5 -10.5t11.5 -6.5v-12h-10l4 -19l-15 7l2 -21l-14 8l8 -18l-18 10l8 -24l-23 14l9 -33l-25 19l16 -29q-31 0 -50 21.5t-19 45.5zM119 139v1135l98 24v-1097zM119 1321q18 33 31.5 52.5t26.5 28.5t28.5 11t36.5 2 q-45 -18 -45 -55q0 -4 1 -8.5t3 -14.5q-10 6 -13 6q-10 0 -28.5 -6t-40.5 -16zM791 551v340l73 86q14 -14 20.5 -30.5t6.5 -28.5v-281q0 -23 -14.5 -40t-30.5 -24zM932 428q0 25 24 25q33 0 33 -25t-33 -25q-25 0 -24 25z" />
<glyph unicode="&#xdf;" horiz-adv-x="2183" d="M102 279q0 53 32 84.5t93 31.5q-2 -6 -6 -10t-4 -6q-12 -20 -14 -27.5t-2 -17.5q0 -20 6 -41l8 -31q-12 -10 -41 -26.5t-57 -28.5q-14 29 -15 72zM131 162q35 20 62.5 36.5t39.5 28.5q6 -12 9.5 -16t4.5 -8t5 -9.5t14 -17.5l-18 4l2 -18l-12 6l4 -18l-17 6l8 -17l-18 11 l8 -25l-20 14l8 -33l-25 19l17 -31q-25 4 -43.5 27.5t-28.5 40.5zM139 1305q25 49 59.5 71.5t88.5 22.5h22q-27 -10 -48 -27.5t-34 -46.5q-4 2 -22 2q-47 0 -66 -22zM303 1061l567 -719q6 -10 7 -18q0 -23 -16.5 -35.5t-39.5 -12.5h-71l-209 271l219 -234l-371 478l402 -455 l-465 612l491 -600zM346 1245q0 4 5 12.5t16 8.5q18 -1 18 -17q0 -10 -7 -15t-16 -5q-16 0 -16 16zM791 1128q49 31 72.5 41.5t29.5 22.5q0 -10 14 -25l13 -12v-12h-13l4 -15l-14 5l4 -21l-16 10l8 -20l-19 10l7 -27l-21 17l8 -31l-24 14l16 -28q-31 0 -50 22.5t-19 48.5z M834 94q0 14 9 23.5t17 9.5q17 0 25 -14q8 -6 8 -17q0 -10 -7 -20t-24 -10q-14 0 -21 10t-7 18zM932 1098q0 20 18 20q4 0 12.5 -4t8.5 -16q0 -20 -21 -21q-18 0 -18 21zM1194 279q0 53 32 84.5t93 31.5q-2 -6 -6 -10t-4 -6q-12 -20 -14 -27.5t-2 -17.5q0 -20 6 -41l8 -31 q-12 -10 -41 -26.5t-57 -28.5q-14 29 -15 72zM1223 162q35 20 62.5 36.5t39.5 28.5q6 -12 9.5 -16t4.5 -8t5 -9.5t14 -17.5l-18 4l2 -18l-12 6l4 -18l-17 6l8 -17l-18 11l8 -25l-20 14l8 -33l-25 19l17 -31q-25 4 -43.5 27.5t-28.5 40.5zM1231 1305q25 49 59.5 71.5 t88.5 22.5h22q-27 -10 -48 -27.5t-34 -46.5q-4 2 -22 2q-47 0 -66 -22zM1395 1061l567 -719q6 -10 7 -18q0 -23 -16.5 -35.5t-39.5 -12.5h-71l-209 271l219 -234l-371 478l402 -455l-465 612l491 -600zM1438 1245q0 4 5 12.5t16 8.5q18 -1 18 -17q0 -10 -7 -15t-16 -5 q-16 0 -16 16zM1883 1128q49 31 72.5 41.5t29.5 22.5q0 -10 14 -25l13 -12v-12h-13l4 -15l-14 5l4 -21l-16 10l8 -20l-19 10l7 -27l-21 17l8 -31l-24 14l16 -28q-31 0 -50 22.5t-19 48.5zM1926 94q0 14 9 23.5t17 9.5q17 0 25 -14q8 -6 8 -17q0 -10 -7 -20t-24 -10 q-14 0 -21 10t-7 18zM2024 1098q0 20 18 20q4 0 12.5 -4t8.5 -16q0 -20 -21 -21q-18 0 -18 21z" />
<glyph unicode="&#xe0;" horiz-adv-x="1030" d="M70 137q45 43 108 43q2 -4 8.5 -12t18.5 -12v-11h-12l2 -16l-13 8l4 -24l-16 10l8 -21l-20 11l10 -25l-21 14l9 -28l-25 14l16 -31q-31 0 -54 26t-23 54zM78 188l325 1092l82 18l-307 -1081zM141 1749q27 47 56.5 65.5t81.5 18.5q-14 -12 -23.5 -22.5t-9.5 -41.5 q-4 0 -9.5 1.5t-11.5 1.5q-16 0 -35.5 -4.5t-48.5 -18.5zM143 1712q25 18 48.5 27.5t58.5 9.5q2 -4 6 -9t14 -9v-11h-12l4 -14l-12 6l2 -20l-14 8l8 -19l-19 11l9 -23l-23 12l10 -26l-24 14l14 -27q-29 0 -49.5 23t-20.5 47zM227 88q0 12 9.5 18.5t13.5 6.5q16 0 19 -10.5 t7 -14.5q0 -12 -10 -22h-10q-2 0 -4 -3q-12 0 -18.5 9.5t-6.5 15.5zM416 1317q10 55 48 74.5t91 19.5v-8q-33 -14 -45 -37t-12 -31q-23 0 -46.5 -5t-35.5 -13zM543 893l41 207l153 -533h-98zM590 1546q0 20 22 21q23 0 23 -19q0 -12 -4 -16q-8 -8 -19 -8q-23 0 -22 22z M649 1585q0 2 3 6t7 4q12 0 13 -10q0 -4 -2 -6q-4 -4 -8 -4q-12 0 -13 10zM698 305l95 115l45 -203l-101 -47zM752 131q23 23 43 31t61 8q8 -12 29 -18v-11h-13l5 -16l-15 6l4 -22l-16 10l6 -23l-18 13l10 -25l-21 12l9 -28l-25 16l16 -31q-31 0 -53 25.5t-22 52.5zM909 88 q0 12 8.5 18.5t16.5 6.5q12 0 22 -13l2 -12q0 -12 -10 -22h-10q-2 0 -4 -3q-16 0 -20.5 9.5t-4.5 15.5z" />
<glyph unicode="&#xe1;" horiz-adv-x="1030" d="M70 137q45 43 108 43q2 -4 8.5 -12t18.5 -12v-11h-12l2 -16l-13 8l4 -24l-16 10l8 -21l-20 11l10 -25l-21 14l9 -28l-25 14l16 -31q-31 0 -54 26t-23 54zM78 188l325 1092l82 18l-307 -1081zM227 88q0 12 9.5 18.5t13.5 6.5q16 0 19 -10.5t7 -14.5q0 -12 -10 -22h-10 q-2 0 -4 -3q-12 0 -18.5 9.5t-6.5 15.5zM340 1575v18q0 39 49 74l62 -8l-4 -39zM402 1681l358 156l31 -29l-324 -137zM416 1317q10 55 48 74.5t91 19.5v-8q-33 -14 -45 -37t-12 -31q-23 0 -46.5 -5t-35.5 -13zM543 893l41 207l153 -533h-98zM698 305l95 115l45 -203 l-101 -47zM752 131q23 23 43 31t61 8q8 -12 29 -18v-11h-13l5 -16l-15 6l4 -22l-16 10l6 -23l-18 13l10 -25l-21 12l9 -28l-25 16l16 -31q-31 0 -53 25.5t-22 52.5zM836 1686q0 10 6 15t10 5q15 0 23 -14q0 -31 -19 -31q-14 0 -17 10t-3 15zM909 88q0 12 8.5 18.5t16.5 6.5 q12 0 22 -13l2 -12q0 -12 -10 -22h-10q-2 0 -4 -3q-16 0 -20.5 9.5t-4.5 15.5z" />
<glyph unicode="&#xe2;" horiz-adv-x="1030" d="M70 137q45 43 108 43q2 -4 8.5 -12t18.5 -12v-11h-12l2 -16l-13 8l4 -24l-16 10l8 -21l-20 11l10 -25l-21 14l9 -28l-25 14l16 -31q-31 0 -54 26t-23 54zM78 188l325 1092l82 18l-307 -1081zM227 88q0 12 9.5 18.5t13.5 6.5q16 0 19 -10.5t7 -14.5q0 -12 -10 -22h-10 q-2 0 -4 -3q-12 0 -18.5 9.5t-6.5 15.5zM277 1595q0 20 12 43l147 226q37 10 60 10h16l-149 -209q-4 -8 -9.5 -15.5t-5.5 -15.5t15 -14l-37 -31q-10 -10 -18.5 -22.5t-18.5 -20.5q-12 27 -12 49zM369 1546q0 23 26 23q10 0 16.5 -7.5t6.5 -15.5q-1 -24 -21 -24q-29 0 -28 24 zM416 1317q10 55 48 74.5t91 19.5v-8q-33 -14 -45 -37t-12 -31q-23 0 -46.5 -5t-35.5 -13zM432 1577q0 4 5 10t12 6q2 0 8 -5t6 -13q0 -14 -14 -14q-16 0 -17 16zM543 893l41 207l153 -533h-98zM655 1548q0 12 9.5 19.5t17.5 7.5q27 0 27 -27q0 -12 -7.5 -20t-15.5 -8 q-18 0 -24.5 10t-6.5 18zM698 305l95 115l45 -203l-101 -47zM715 1579q0 14 12 14q4 0 8 -6q6 -4 6 -8q0 -12 -16 -12q-10 0 -10 12zM752 131q23 23 43 31t61 8q8 -12 29 -18v-11h-13l5 -16l-15 6l4 -22l-16 10l6 -23l-18 13l10 -25l-21 12l9 -28l-25 16l16 -31 q-31 0 -53 25.5t-22 52.5zM909 88q0 12 8.5 18.5t16.5 6.5q12 0 22 -13l2 -12q0 -12 -10 -22h-10q-2 0 -4 -3q-16 0 -20.5 9.5t-4.5 15.5z" />
<glyph unicode="&#xe3;" horiz-adv-x="1030" d="M70 137q45 43 108 43q2 -4 8.5 -12t18.5 -12v-11h-12l2 -16l-13 8l4 -24l-16 10l8 -21l-20 11l10 -25l-21 14l9 -28l-25 14l16 -31q-31 0 -54 26t-23 54zM78 188l325 1092l82 18l-307 -1081zM227 88q0 12 9.5 18.5t13.5 6.5q16 0 19 -10.5t7 -14.5q0 -12 -10 -22h-10 q-2 0 -4 -3q-12 0 -18.5 9.5t-6.5 15.5zM245 1546q0 4 4 4q8 0 9 -4v-2q-4 -4 -2 -5t-2 -1q-8 0 -9 8zM288 1561q0 12 8.5 19t16.5 7q14 0 20.5 -9t6.5 -17q0 -20 -25 -21q-10 0 -18.5 7t-8.5 14zM416 1317q10 55 48 74.5t91 19.5v-8q-33 -14 -45 -37t-12 -31 q-23 0 -46.5 -5t-35.5 -13zM543 893l41 207l153 -533h-98zM677 1561q0 27 27 26q8 0 16.5 -8t8.5 -16q-1 -9 -9 -15q-6 -12 -16 -12q-8 0 -17.5 7t-9.5 18zM698 305l95 115l45 -203l-101 -47zM752 131q23 23 43 31t61 8q8 -12 29 -18v-11h-13l5 -16l-15 6l4 -22l-16 10 l6 -23l-18 13l10 -25l-21 12l9 -28l-25 16l16 -31q-31 0 -53 25.5t-22 52.5zM790 1634q0 12 14 13q10 0 11 -13q-1 -12 -11 -12q-14 0 -14 12zM909 88q0 12 8.5 18.5t16.5 6.5q12 0 22 -13l2 -12q0 -12 -10 -22h-10q-2 0 -4 -3q-16 0 -20.5 9.5t-4.5 15.5z" />
<glyph unicode="&#xe4;" horiz-adv-x="1030" d="M70 137q45 43 108 43q2 -4 8.5 -12t18.5 -12v-11h-12l2 -16l-13 8l4 -24l-16 10l8 -21l-20 11l10 -25l-21 14l9 -28l-25 14l16 -31q-31 0 -54 26t-23 54zM78 188l325 1092l82 18l-307 -1081zM188 1636v93l58 12v-74l12 -31l22 -8l-45 -53q-18 4 -30.5 21.5t-16.5 39.5z M188 1757q23 43 44.5 53.5t56.5 10.5v-2l-33 -23q0 -4 -5 -10t-5 -17q-10 4 -11 5q-8 -2 -19 -5.5t-28 -11.5zM227 88q0 12 9.5 18.5t13.5 6.5q16 0 19 -10.5t7 -14.5q0 -12 -10 -22h-10q-2 0 -4 -3q-12 0 -18.5 9.5t-6.5 15.5zM416 1317q10 55 48 74.5t91 19.5v-8 q-33 -14 -45 -37t-12 -31q-23 0 -46.5 -5t-35.5 -13zM543 893l41 207l153 -533h-98zM610 1636v93l57 12v-74l15 -31l20 -8l-47 -53q-35 10 -45 61zM610 1757q23 43 42 53.5t56 10.5q-29 -4 -35 -25.5t-6 -26.5q-10 0 -10 5q-4 -1 -47 -17zM698 305l95 115l45 -203l-101 -47z M752 131q23 23 43 31t61 8q8 -12 29 -18v-11h-13l5 -16l-15 6l4 -22l-16 10l6 -23l-18 13l10 -25l-21 12l9 -28l-25 16l16 -31q-31 0 -53 25.5t-22 52.5zM909 88q0 12 8.5 18.5t16.5 6.5q12 0 22 -13l2 -12q0 -12 -10 -22h-10q-2 0 -4 -3q-16 0 -20.5 9.5t-4.5 15.5z" />
<glyph unicode="&#xe5;" horiz-adv-x="1030" d="M70 137q45 43 108 43q2 -4 8.5 -12t18.5 -12v-11h-12l2 -16l-13 8l4 -24l-16 10l8 -21l-20 11l10 -25l-21 14l9 -28l-25 14l16 -31q-31 0 -54 26t-23 54zM78 188l325 1092l82 18l-307 -1081zM227 88q0 12 9.5 18.5t13.5 6.5q16 0 19 -10.5t7 -14.5q0 -12 -10 -22h-10 q-2 0 -4 -3q-12 0 -18.5 9.5t-6.5 15.5zM346 1610v125q0 49 82 49v-137q0 -23 9 -44.5t26 -25.5q-18 -27 -40 -40t-34 -13q-35 25 -43 86zM367 1794q18 23 30.5 35t23.5 17t22.5 6t23.5 1v-2q-23 -23 -31 -28.5t-8 -14.5q-2 0 -4 1t-10 1q-6 0 -20.5 -4t-26.5 -12zM405 1509 q8 0 34 21.5t42 38.5q6 -6 21 -6h6q0 -14 -17.5 -38t-42.5 -36q-6 0 -22 5t-21 15zM416 1317q10 55 48 74.5t91 19.5v-8q-33 -14 -45 -37t-12 -31q-23 0 -46.5 -5t-35.5 -13zM543 893l41 207l153 -533h-98zM586 1647v65l82 82v-131q0 -12 -8.5 -19.5t-41.5 -7.5 q-4 0 -19 6.5t-13 4.5zM643 1538q0 16 16 16t17 -14q0 -4 -3.5 -10t-13.5 -6q-16 0 -16 14zM698 305l95 115l45 -203l-101 -47zM752 131q23 23 43 31t61 8q8 -12 29 -18v-11h-13l5 -16l-15 6l4 -22l-16 10l6 -23l-18 13l10 -25l-21 12l9 -28l-25 16l16 -31q-31 0 -53 25.5 t-22 52.5zM909 88q0 12 8.5 18.5t16.5 6.5q12 0 22 -13l2 -12q0 -12 -10 -22h-10q-2 0 -4 -3q-16 0 -20.5 9.5t-4.5 15.5z" />
<glyph unicode="&#xe6;" horiz-adv-x="1527" d="M84 137q45 43 106 43q2 -4 8.5 -12t18.5 -12v-11h-10l2 -16l-14 8l6 -24l-19 10l8 -21l-20 11l10 -25l-22 14l10 -28l-23 14l13 -31q-29 0 -51.5 26t-22.5 54zM90 188l326 1092l82 18l-308 -1081zM242 88q0 12 7 18.5t15 6.5q12 0 23 -13l2 -12q0 -12 -10 -22h-9 q-2 0 -4 -3q-16 0 -20 9.5t-4 15.5zM430 1317q25 53 57.5 73.5t81.5 20.5q-2 -2 -2 -8l-39 -35q-4 -2 -11 -13.5t-7 -19.5h-10l-2 2q-6 0 -22.5 -5t-45.5 -15zM555 893l43 207l152 -533h-101zM711 305l94 115l47 -203l-102 -47zM756 1022v260l104 96v-723zM764 131 q23 23 46.5 31t59.5 8q4 -12 15 -14l14 -4v-11h-14l4 -16l-12 6l2 -22l-17 10l8 -23l-18 13l8 -25l-22 12l10 -28l-25 16l15 -31q-29 0 -51.5 25.5t-22.5 52.5zM1133 700q0 12 7 19.5t15 7.5q27 0 27 -25q0 -12 -8.5 -18t-16.5 -6q-12 0 -18 7t-6 15zM1202 725q0 8 4 12 l23 -18q-6 -8 -10 -8q-16 0 -17 14zM1329 1241q0 31 25 31q27 0 26 -31q0 -8 -8 -14q-8 -8 -18 -8t-17.5 7t-7.5 15zM1335 92q0 12 9.5 20.5t19.5 8.5q16 0 18.5 -10.5t12.5 -18.5q0 -10 -10.5 -18t-20.5 -8q-18 0 -23.5 11t-5.5 15zM1384 1282q0 4 5.5 10t15.5 6q4 0 11 -5 t7 -15q0 -4 -6 -10t-16 -6q-4 0 -10.5 7t-6.5 13z" />
<glyph unicode="&#xe7;" horiz-adv-x="1073" d="M80 719q0 31 7 81t30 93l192 360l84 23l-178 -340q-43 -80 -43 -193q0 -47 9 -80.5t34 -76.5l195 -348l-103 -58l-190 387q-23 45 -30 82t-7 70zM326 145q45 55 116 56q0 -14 27 -23v-12h-14l4 -14l-13 4l5 -19l-17 8l8 -20l-18 12l10 -26l-24 14l10 -31l-27 17l17 -29 q-29 0 -45.5 15.5t-38.5 47.5zM332 1298q12 23 34.5 43.5t50 36t57.5 24.5t54 9l-18 -20q-59 -37 -76.5 -55.5t-17.5 -22.5q-12 6 -21 6q-10 0 -28.5 -7t-34.5 -14zM485 -137q14 66 48 89t96 23v-4q0 -14 -8.5 -25.5t-8.5 -39.5q-49 0 -81 -12.5t-46 -30.5zM489 -195 q4 47 34 62.5t95 15.5v-106l-129 -121v149zM911 100q0 31 27 31q14 0 23.5 -9.5t9.5 -21.5q0 -27 -33 -26q-27 0 -27 26zM911 1270q0 10 8.5 19t18.5 9q29 0 29 -28q0 -11 -6 -17q-10 -12 -23 -12q-10 0 -18.5 7t-8.5 22z" />
<glyph unicode="&#xe8;" d="M113 39v1243l106 96v-1226zM178 1749q27 47 56.5 65.5t81.5 18.5q-14 -12 -23.5 -22.5t-9.5 -41.5q-4 0 -9.5 1.5t-11.5 1.5q-16 0 -35.5 -4.5t-48.5 -18.5zM180 1712q25 18 48.5 27.5t58.5 9.5q2 -4 6 -9t14 -9v-11h-12l4 -14l-12 6l2 -20l-14 8l8 -19l-19 11l9 -23 l-23 12l10 -26l-24 14l14 -27q-29 0 -49.5 23t-20.5 47zM575 700q0 27 25 27q27 0 27 -25q0 -12 -7.5 -18t-15.5 -6q-14 0 -21.5 7t-7.5 15zM627 1546q0 20 22 21q23 0 23 -19q0 -12 -4 -16q-8 -8 -19 -8q-23 0 -22 22zM641 727q0 6 6 11t10 5q20 0 21 -16q0 -4 -4 -8 q-6 -8 -12 -8q-8 0 -14.5 6t-6.5 10zM686 1585q0 2 3 6t7 4q12 0 13 -10q0 -4 -2 -6q-4 -4 -8 -4q-12 0 -13 10zM909 1241q0 14 8.5 22.5t16.5 8.5q27 0 27 -31q-1 -8 -7 -14q-8 -8 -18 -8t-18.5 7t-8.5 15zM918 92q0 14 10 21.5t16 7.5q25 0 29 -25v-4q0 -27 -27 -26 q-18 0 -23 11t-5 15zM965 1282q0 4 6 10t16 6q4 0 11.5 -5t7.5 -15q0 -4 -6.5 -10t-16.5 -6q-6 0 -12 6t-6 14zM973 129q0 2 6 9t10 7q18 0 19 -16q0 -6 -4 -10q-10 -6 -15 -6q-16 0 -16 16z" />
<glyph unicode="&#xe9;" d="M113 39v1243l106 96v-1226zM377 1575v18q0 39 49 74l62 -8l-4 -39zM439 1681l358 156l31 -29l-324 -137zM575 700q0 27 25 27q27 0 27 -25q0 -12 -7.5 -18t-15.5 -6q-14 0 -21.5 7t-7.5 15zM641 727q0 6 6 11t10 5q20 0 21 -16q0 -4 -4 -8q-6 -8 -12 -8q-8 0 -14.5 6 t-6.5 10zM873 1686q0 10 6 15t10 5q15 0 23 -14q0 -31 -19 -31q-14 0 -17 10t-3 15zM909 1241q0 14 8.5 22.5t16.5 8.5q27 0 27 -31q-1 -8 -7 -14q-8 -8 -18 -8t-18.5 7t-8.5 15zM918 92q0 14 10 21.5t16 7.5q25 0 29 -25v-4q0 -27 -27 -26q-18 0 -23 11t-5 15zM965 1282 q0 4 6 10t16 6q4 0 11.5 -5t7.5 -15q0 -4 -6.5 -10t-16.5 -6q-6 0 -12 6t-6 14zM973 129q0 2 6 9t10 7q18 0 19 -16q0 -6 -4 -10q-10 -6 -15 -6q-16 0 -16 16z" />
<glyph unicode="&#xea;" d="M113 39v1243l106 96v-1226zM316 1595q0 20 12 43l147 226q37 10 60 10h16l-149 -209q-4 -8 -9.5 -15.5t-5.5 -15.5t15 -14l-37 -31q-10 -10 -18.5 -22.5t-18.5 -20.5q-12 27 -12 49zM408 1546q0 23 26 23q10 0 16.5 -7.5t6.5 -15.5q-1 -24 -21 -24q-29 0 -28 24z M471 1577q0 4 5 10t12 6q2 0 8 -5t6 -13q0 -14 -14 -14q-16 0 -17 16zM575 700q0 27 25 27q27 0 27 -25q0 -12 -7.5 -18t-15.5 -6q-14 0 -21.5 7t-7.5 15zM641 727q0 6 6 11t10 5q20 0 21 -16q0 -4 -4 -8q-6 -8 -12 -8q-8 0 -14.5 6t-6.5 10zM694 1548q0 12 9.5 19.5 t17.5 7.5q27 0 27 -27q0 -12 -7.5 -20t-15.5 -8q-18 0 -24.5 10t-6.5 18zM754 1579q0 14 12 14q4 0 8 -6q6 -4 6 -8q0 -12 -16 -12q-10 0 -10 12zM909 1241q0 14 8.5 22.5t16.5 8.5q27 0 27 -31q-1 -8 -7 -14q-8 -8 -18 -8t-18.5 7t-8.5 15zM918 92q0 14 10 21.5t16 7.5 q25 0 29 -25v-4q0 -27 -27 -26q-18 0 -23 11t-5 15zM965 1282q0 4 6 10t16 6q4 0 11.5 -5t7.5 -15q0 -4 -6.5 -10t-16.5 -6q-6 0 -12 6t-6 14zM973 129q0 2 6 9t10 7q18 0 19 -16q0 -6 -4 -10q-10 -6 -15 -6q-16 0 -16 16z" />
<glyph unicode="&#xeb;" d="M113 39v1243l106 96v-1226zM201 1636v93l58 12v-74l12 -31l22 -8l-45 -53q-18 4 -30.5 21.5t-16.5 39.5zM201 1757q23 43 44.5 53.5t56.5 10.5v-2l-33 -23q0 -4 -5 -10t-5 -17q-10 4 -11 5q-8 -2 -19 -5.5t-28 -11.5zM575 700q0 27 25 27q27 0 27 -25q0 -12 -7.5 -18 t-15.5 -6q-14 0 -21.5 7t-7.5 15zM623 1636v93l57 12v-74l15 -31l20 -8l-47 -53q-35 10 -45 61zM623 1757q23 43 42 53.5t56 10.5q-29 -4 -35 -25.5t-6 -26.5q-10 0 -10 5q-4 -1 -47 -17zM641 727q0 6 6 11t10 5q20 0 21 -16q0 -4 -4 -8q-6 -8 -12 -8q-8 0 -14.5 6t-6.5 10z M909 1241q0 14 8.5 22.5t16.5 8.5q27 0 27 -31q-1 -8 -7 -14q-8 -8 -18 -8t-18.5 7t-8.5 15zM918 92q0 14 10 21.5t16 7.5q25 0 29 -25v-4q0 -27 -27 -26q-18 0 -23 11t-5 15zM965 1282q0 4 6 10t16 6q4 0 11.5 -5t7.5 -15q0 -4 -6.5 -10t-16.5 -6q-6 0 -12 6t-6 14z M973 129q0 2 6 9t10 7q18 0 19 -16q0 -6 -4 -10q-10 -6 -15 -6q-16 0 -16 16z" />
<glyph unicode="&#xec;" horiz-adv-x="1103" d="M109 154q29 53 61.5 73.5t81.5 20.5q-10 -10 -21.5 -23.5t-11.5 -46.5q-2 0 -7 1t-13 1q-14 0 -38 -5t-52 -21zM109 1317q29 49 61.5 71.5t81.5 22.5q-10 -12 -21.5 -26.5t-11.5 -45.5q-2 0 -7 1t-13 1q-14 0 -38 -4t-52 -20zM113 113q25 25 50 33t60 8q2 -8 23 -17v-12 h-13l5 -19l-15 7l2 -21l-14 8l8 -18l-18 10l8 -24l-23 14l9 -33l-25 19l16 -29q-29 0 -51 24.5t-22 49.5zM113 1274q25 25 50 34t60 9q4 -12 23 -19v-12h-13l5 -18l-15 6l2 -21l-14 9l8 -21l-18 12l8 -24l-23 12l9 -29l-25 17l16 -29q-29 0 -51 24.5t-22 49.5zM178 1749 q27 47 56.5 65.5t81.5 18.5q-14 -12 -23.5 -22.5t-9.5 -41.5q-4 0 -9.5 1.5t-11.5 1.5q-16 0 -35.5 -4.5t-48.5 -18.5zM180 1712q25 18 48.5 27.5t58.5 9.5q2 -4 6 -9t14 -9v-11h-12l4 -14l-12 6l2 -20l-14 8l8 -19l-19 11l9 -23l-23 12l10 -26l-24 14l14 -27 q-29 0 -49.5 23t-20.5 47zM444 276v902l109 116v-1018h-109zM627 1546q0 20 22 21q23 0 23 -19q0 -12 -4 -16q-8 -8 -19 -8q-23 0 -22 22zM686 1585q0 2 3 6t7 4q12 0 13 -10q0 -4 -2 -6q-4 -4 -8 -4q-12 0 -13 10zM887 1239q0 18 14 18q6 0 12.5 -3t6.5 -13q-1 -16 -17 -16 t-16 14zM926 1280q0 6 6 15.5t18 9.5q6 0 16.5 -7.5t10.5 -17.5q0 -12 -6 -18q-10 -10 -19 -11q-8 0 -17 7.5t-9 21.5zM942 100q0 18 7 23.5t16 5.5q16 0 22 -8t6 -17q0 -16 -9 -21t-15 -5q-16 0 -21.5 8t-5.5 14z" />
<glyph unicode="&#xed;" horiz-adv-x="1103" d="M109 154q29 53 61.5 73.5t81.5 20.5q-10 -10 -21.5 -23.5t-11.5 -46.5q-2 0 -7 1t-13 1q-14 0 -38 -5t-52 -21zM109 1317q29 49 61.5 71.5t81.5 22.5q-10 -12 -21.5 -26.5t-11.5 -45.5q-2 0 -7 1t-13 1q-14 0 -38 -4t-52 -20zM113 113q25 25 50 33t60 8q2 -8 23 -17v-12 h-13l5 -19l-15 7l2 -21l-14 8l8 -18l-18 10l8 -24l-23 14l9 -33l-25 19l16 -29q-29 0 -51 24.5t-22 49.5zM113 1274q25 25 50 34t60 9q4 -12 23 -19v-12h-13l5 -18l-15 6l2 -21l-14 9l8 -21l-18 12l8 -24l-23 12l9 -29l-25 17l16 -29q-29 0 -51 24.5t-22 49.5zM377 1575v18 q0 39 49 74l62 -8l-4 -39zM439 1681l358 156l31 -29l-324 -137zM444 276v902l109 116v-1018h-109zM873 1686q0 10 6 15t10 5q15 0 23 -14q0 -31 -19 -31q-14 0 -17 10t-3 15zM887 1239q0 18 14 18q6 0 12.5 -3t6.5 -13q-1 -16 -17 -16t-16 14zM926 1280q0 6 6 15.5t18 9.5 q6 0 16.5 -7.5t10.5 -17.5q0 -12 -6 -18q-10 -10 -19 -11q-8 0 -17 7.5t-9 21.5zM942 100q0 18 7 23.5t16 5.5q16 0 22 -8t6 -17q0 -16 -9 -21t-15 -5q-16 0 -21.5 8t-5.5 14z" />
<glyph unicode="&#xee;" horiz-adv-x="1103" d="M109 154q29 53 61.5 73.5t81.5 20.5q-10 -10 -21.5 -23.5t-11.5 -46.5q-2 0 -7 1t-13 1q-14 0 -38 -5t-52 -21zM109 1317q29 49 61.5 71.5t81.5 22.5q-10 -12 -21.5 -26.5t-11.5 -45.5q-2 0 -7 1t-13 1q-14 0 -38 -4t-52 -20zM113 113q25 25 50 33t60 8q2 -8 23 -17v-12 h-13l5 -19l-15 7l2 -21l-14 8l8 -18l-18 10l8 -24l-23 14l9 -33l-25 19l16 -29q-29 0 -51 24.5t-22 49.5zM113 1274q25 25 50 34t60 9q4 -12 23 -19v-12h-13l5 -18l-15 6l2 -21l-14 9l8 -21l-18 12l8 -24l-23 12l9 -29l-25 17l16 -29q-29 0 -51 24.5t-22 49.5zM314 1595 q0 20 12 43l147 226q37 10 60 10h16l-149 -209q-4 -8 -9.5 -15.5t-5.5 -15.5t15 -14l-37 -31q-10 -10 -18.5 -22.5t-18.5 -20.5q-12 27 -12 49zM406 1546q0 23 26 23q10 0 16.5 -7.5t6.5 -15.5q-1 -24 -21 -24q-29 0 -28 24zM444 276v902l109 116v-1018h-109zM469 1577 q0 4 5 10t12 6q2 0 8 -5t6 -13q0 -14 -14 -14q-16 0 -17 16zM692 1548q0 12 9.5 19.5t17.5 7.5q27 0 27 -27q0 -12 -7.5 -20t-15.5 -8q-18 0 -24.5 10t-6.5 18zM752 1579q0 14 12 14q4 0 8 -6q6 -4 6 -8q0 -12 -16 -12q-10 0 -10 12zM887 1239q0 18 14 18q6 0 12.5 -3 t6.5 -13q-1 -16 -17 -16t-16 14zM926 1280q0 6 6 15.5t18 9.5q6 0 16.5 -7.5t10.5 -17.5q0 -12 -6 -18q-10 -10 -19 -11q-8 0 -17 7.5t-9 21.5zM942 100q0 18 7 23.5t16 5.5q16 0 22 -8t6 -17q0 -16 -9 -21t-15 -5q-16 0 -21.5 8t-5.5 14z" />
<glyph unicode="&#xef;" horiz-adv-x="1103" d="M109 154q29 53 61.5 73.5t81.5 20.5q-10 -10 -21.5 -23.5t-11.5 -46.5q-2 0 -7 1t-13 1q-14 0 -38 -5t-52 -21zM109 1317q29 49 61.5 71.5t81.5 22.5q-10 -12 -21.5 -26.5t-11.5 -45.5q-2 0 -7 1t-13 1q-14 0 -38 -4t-52 -20zM113 113q25 25 50 33t60 8q2 -8 23 -17v-12 h-13l5 -19l-15 7l2 -21l-14 8l8 -18l-18 10l8 -24l-23 14l9 -33l-25 19l16 -29q-29 0 -51 24.5t-22 49.5zM113 1274q25 25 50 34t60 9q4 -12 23 -19v-12h-13l5 -18l-15 6l2 -21l-14 9l8 -21l-18 12l8 -24l-23 12l9 -29l-25 17l16 -29q-29 0 -51 24.5t-22 49.5zM201 1636v93 l58 12v-74l12 -31l22 -8l-45 -53q-18 4 -30.5 21.5t-16.5 39.5zM201 1757q23 43 44.5 53.5t56.5 10.5v-2l-33 -23q0 -4 -5 -10t-5 -17q-10 4 -11 5q-8 -2 -19 -5.5t-28 -11.5zM444 276v902l109 116v-1018h-109zM623 1636v93l57 12v-74l15 -31l20 -8l-47 -53q-35 10 -45 61z M623 1757q23 43 42 53.5t56 10.5q-29 -4 -35 -25.5t-6 -26.5q-10 0 -10 5q-4 -1 -47 -17zM887 1239q0 18 14 18q6 0 12.5 -3t6.5 -13q-1 -16 -17 -16t-16 14zM926 1280q0 6 6 15.5t18 9.5q6 0 16.5 -7.5t10.5 -17.5q0 -12 -6 -18q-10 -10 -19 -11q-8 0 -17 7.5t-9 21.5z M942 100q0 18 7 23.5t16 5.5q16 0 22 -8t6 -17q0 -16 -9 -21t-15 -5q-16 0 -21.5 8t-5.5 14z" />
<glyph unicode="&#xf0;" horiz-adv-x="1073" d="M111 154q29 53 59.5 73.5t77.5 20.5q-4 -4 -15.5 -20.5t-11.5 -49.5q-4 0 -9 1t-11 1q-16 0 -38 -5t-52 -21zM111 1317q29 49 61.5 71.5t81.5 22.5l-10 -10q-8 -8 -15.5 -23.5t-7.5 -38.5q-4 0 -9 1t-11 1q-16 0 -38 -4t-52 -20zM115 113q25 25 48 33t62 8 q2 -4 9.5 -10.5t11.5 -6.5v-12h-10l10 -19l-21 7l2 -21l-14 8l8 -18l-18 10l8 -24l-23 14l9 -33l-25 19l16 -29q-31 0 -52 24.5t-21 49.5zM115 1274q43 43 110 43q2 -6 8.5 -12.5t12.5 -6.5v-12h-10l4 -18l-15 6l2 -21l-14 9l8 -21l-18 12l8 -24l-23 12l9 -29l-25 17l16 -29 q-31 0 -52 24.5t-21 49.5zM127 717v10l47 12q0 -10 10.5 -23.5t28.5 -13.5l-25 -59q-61 8 -61 74zM127 760q8 31 30.5 45t55.5 14v-6q-14 -8 -26.5 -22.5t-12.5 -18.5q-23 0 -47 -12zM279 279v264l96 75v-339h-96zM279 829v340l96 99v-439h-96zM547 1186l37 100q10 2 18 3 t12 1q29 0 43.5 -16.5t24.5 -32.5l176 -348q23 -37 30 -74t7 -55q0 -20 -10.5 -56t-26.5 -65l-176 -315q-10 -16 -21.5 -28.5t-21.5 -16.5l-55 -7q27 16 38 38t17 38l131 291q10 25 16.5 47.5t6.5 48.5q0 29 -3.5 43.5t-13.5 32.5l-186 340q-12 25 -43 31z" />
<glyph unicode="&#xf1;" horiz-adv-x="1110" d="M119 106q35 29 65.5 38.5t40.5 9.5q2 -2 15 -13l6 -4v-12h-10l4 -19l-15 7l2 -21l-14 8l8 -18l-18 10l8 -24l-23 14l9 -33l-25 19l16 -29q-31 0 -50 21.5t-19 45.5zM119 139v1135l98 84v-1157zM274 102q0 4 5.5 13.5t17.5 9.5q4 0 12 -6t8 -15q-4 -4 -4 -12 q-6 -12 -14 -12q-6 0 -15.5 5t-9.5 17zM286 1546q0 4 4 4q8 0 9 -4v-2q-4 -4 -2 -5t-2 -1q-8 0 -9 8zM329 1561q0 12 8.5 19t16.5 7q14 0 20.5 -9t6.5 -17q0 -20 -25 -21q-10 0 -18.5 7t-8.5 14zM342 1169l530 -1017l-503 907l393 -819l-395 735l307 -664l-312 592l187 -452 l-199 397zM718 1561q0 27 27 26q8 0 16.5 -8t8.5 -16q-1 -9 -9 -15q-6 -12 -16 -12q-8 0 -17.5 7t-9.5 18zM793 625v649l98 41v-893zM793 1315q16 53 53 77.5t88 24.5v-8q-49 -18 -62 -68q-12 0 -29.5 -5t-49.5 -21zM831 1634q0 12 14 13q10 0 11 -13q-1 -12 -11 -12 q-14 0 -14 12z" />
<glyph unicode="&#xf2;" horiz-adv-x="1042" d="M72 719q0 35 11 83t26 91l194 360l86 23l-180 -340q-18 -41 -31.5 -87t-13.5 -106q0 -47 10 -81.5t35 -75.5l194 -348l-102 -58l-192 387q-20 45 -28.5 84t-8.5 68zM149 1749q27 47 56.5 65.5t81.5 18.5q-14 -12 -23.5 -22.5t-9.5 -41.5q-4 0 -9.5 1.5t-11.5 1.5 q-16 0 -35.5 -4.5t-48.5 -18.5zM151 1712q25 18 48.5 27.5t58.5 9.5q2 -4 6 -9t14 -9v-11h-12l4 -14l-12 6l2 -20l-14 8l8 -19l-19 11l9 -23l-23 12l10 -26l-24 14l14 -27q-29 0 -49.5 23t-20.5 47zM322 145q18 29 51 42.5t63 13.5q4 -10 17 -19l8 -4v-12h-10l2 -14l-13 4 l4 -19l-16 8l8 -20l-20 12l10 -26l-23 14l11 -31l-25 17l14 -29q-20 0 -34 8l-17 14q-14 14 -30 41zM328 1298q29 47 84 80t110 33l-20 -20q-41 -25 -67.5 -49.5t-26.5 -28.5q-10 6 -17 6q-14 0 -32.5 -7t-30.5 -14zM516 1186l35 100q10 2 18.5 3t12.5 1q29 0 45 -15t22 -34 l178 -348q23 -37 29 -74t6 -55q0 -20 -9 -56t-26 -65l-178 -315l-41 -45l-57 -7q27 16 40 37t17 39l129 291q18 37 20.5 58.5t2.5 37.5q0 14 -17 76l-186 340zM598 1546q0 20 22 21q23 0 23 -19q0 -12 -4 -16q-8 -8 -19 -8q-23 0 -22 22zM657 1585q0 2 3 6t7 4q12 0 13 -10 q0 -4 -2 -6q-4 -4 -8 -4q-12 0 -13 10zM682 141q0 4 5 12.5t18 8.5q23 0 22 -21q0 -10 -6 -16t-16 -6q-23 0 -23 22zM713 188q0 4 5 10.5t11 6.5q2 0 7 -4.5t5 -10.5q0 -14 -14 -14t-14 12z" />
<glyph unicode="&#xf3;" horiz-adv-x="1042" d="M72 719q0 35 11 83t26 91l194 360l86 23l-180 -340q-18 -41 -31.5 -87t-13.5 -106q0 -47 10 -81.5t35 -75.5l194 -348l-102 -58l-192 387q-20 45 -28.5 84t-8.5 68zM322 145q18 29 51 42.5t63 13.5q4 -10 17 -19l8 -4v-12h-10l2 -14l-13 4l4 -19l-16 8l8 -20l-20 12 l10 -26l-23 14l11 -31l-25 17l14 -29q-20 0 -34 8l-17 14q-14 14 -30 41zM328 1298q29 47 84 80t110 33l-20 -20q-41 -25 -67.5 -49.5t-26.5 -28.5q-10 6 -17 6q-14 0 -32.5 -7t-30.5 -14zM346 1575v18q0 39 49 74l62 -8l-4 -39zM408 1681l358 156l31 -29l-324 -137z M516 1186l35 100q10 2 18.5 3t12.5 1q29 0 45 -15t22 -34l178 -348q23 -37 29 -74t6 -55q0 -20 -9 -56t-26 -65l-178 -315l-41 -45l-57 -7q27 16 40 37t17 39l129 291q18 37 20.5 58.5t2.5 37.5q0 14 -17 76l-186 340zM682 141q0 4 5 12.5t18 8.5q23 0 22 -21q0 -10 -6 -16 t-16 -6q-23 0 -23 22zM713 188q0 4 5 10.5t11 6.5q2 0 7 -4.5t5 -10.5q0 -14 -14 -14t-14 12zM842 1686q0 10 6 15t10 5q15 0 23 -14q0 -31 -19 -31q-14 0 -17 10t-3 15z" />
<glyph unicode="&#xf4;" horiz-adv-x="1042" d="M72 719q0 35 11 83t26 91l194 360l86 23l-180 -340q-18 -41 -31.5 -87t-13.5 -106q0 -47 10 -81.5t35 -75.5l194 -348l-102 -58l-192 387q-20 45 -28.5 84t-8.5 68zM283 1595q0 20 12 43l147 226q37 10 60 10h16l-149 -209q-4 -8 -9.5 -15.5t-5.5 -15.5t15 -14l-37 -31 q-10 -10 -18.5 -22.5t-18.5 -20.5q-12 27 -12 49zM322 145q18 29 51 42.5t63 13.5q4 -10 17 -19l8 -4v-12h-10l2 -14l-13 4l4 -19l-16 8l8 -20l-20 12l10 -26l-23 14l11 -31l-25 17l14 -29q-20 0 -34 8l-17 14q-14 14 -30 41zM328 1298q29 47 84 80t110 33l-20 -20 q-41 -25 -67.5 -49.5t-26.5 -28.5q-10 6 -17 6q-14 0 -32.5 -7t-30.5 -14zM375 1546q0 23 26 23q10 0 16.5 -7.5t6.5 -15.5q-1 -24 -21 -24q-29 0 -28 24zM438 1577q0 4 5 10t12 6q2 0 8 -5t6 -13q0 -14 -14 -14q-16 0 -17 16zM516 1186l35 100q10 2 18.5 3t12.5 1 q29 0 45 -15t22 -34l178 -348q23 -37 29 -74t6 -55q0 -20 -9 -56t-26 -65l-178 -315l-41 -45l-57 -7q27 16 40 37t17 39l129 291q18 37 20.5 58.5t2.5 37.5q0 14 -17 76l-186 340zM661 1548q0 12 9.5 19.5t17.5 7.5q27 0 27 -27q0 -12 -7.5 -20t-15.5 -8q-18 0 -24.5 10 t-6.5 18zM682 141q0 4 5 12.5t18 8.5q23 0 22 -21q0 -10 -6 -16t-16 -6q-23 0 -23 22zM713 188q0 4 5 10.5t11 6.5q2 0 7 -4.5t5 -10.5q0 -14 -14 -14t-14 12zM721 1579q0 14 12 14q4 0 8 -6q6 -4 6 -8q0 -12 -16 -12q-10 0 -10 12z" />
<glyph unicode="&#xf5;" horiz-adv-x="1042" d="M72 719q0 35 11 83t26 91l194 360l86 23l-180 -340q-18 -41 -31.5 -87t-13.5 -106q0 -47 10 -81.5t35 -75.5l194 -348l-102 -58l-192 387q-20 45 -28.5 84t-8.5 68zM252 1546q0 4 4 4q8 0 9 -4v-2q-4 -4 -2 -5t-2 -1q-8 0 -9 8zM295 1561q0 12 8.5 19t16.5 7 q14 0 20.5 -9t6.5 -17q0 -20 -25 -21q-10 0 -18.5 7t-8.5 14zM322 145q18 29 51 42.5t63 13.5q4 -10 17 -19l8 -4v-12h-10l2 -14l-13 4l4 -19l-16 8l8 -20l-20 12l10 -26l-23 14l11 -31l-25 17l14 -29q-20 0 -34 8l-17 14q-14 14 -30 41zM328 1298q29 47 84 80t110 33 l-20 -20q-41 -25 -67.5 -49.5t-26.5 -28.5q-10 6 -17 6q-14 0 -32.5 -7t-30.5 -14zM516 1186l35 100q10 2 18.5 3t12.5 1q29 0 45 -15t22 -34l178 -348q23 -37 29 -74t6 -55q0 -20 -9 -56t-26 -65l-178 -315l-41 -45l-57 -7q27 16 40 37t17 39l129 291q18 37 20.5 58.5 t2.5 37.5q0 14 -17 76l-186 340zM682 141q0 4 5 12.5t18 8.5q23 0 22 -21q0 -10 -6 -16t-16 -6q-23 0 -23 22zM684 1561q0 27 27 26q8 0 16.5 -8t8.5 -16q-1 -9 -9 -15q-6 -12 -16 -12q-8 0 -17.5 7t-9.5 18zM713 188q0 4 5 10.5t11 6.5q2 0 7 -4.5t5 -10.5q0 -14 -14 -14 t-14 12zM797 1634q0 12 14 13q10 0 11 -13q-1 -12 -11 -12q-14 0 -14 12z" />
<glyph unicode="&#xf6;" horiz-adv-x="1042" d="M72 719q0 35 11 83t26 91l194 360l86 23l-180 -340q-18 -41 -31.5 -87t-13.5 -106q0 -47 10 -81.5t35 -75.5l194 -348l-102 -58l-192 387q-20 45 -28.5 84t-8.5 68zM184 1636v93l58 12v-74l12 -31l22 -8l-45 -53q-18 4 -30.5 21.5t-16.5 39.5zM184 1757q23 43 44.5 53.5 t56.5 10.5v-2l-33 -23q0 -4 -5 -10t-5 -17q-10 4 -11 5q-8 -2 -19 -5.5t-28 -11.5zM322 145q18 29 51 42.5t63 13.5q4 -10 17 -19l8 -4v-12h-10l2 -14l-13 4l4 -19l-16 8l8 -20l-20 12l10 -26l-23 14l11 -31l-25 17l14 -29q-20 0 -34 8l-17 14q-14 14 -30 41zM328 1298 q29 47 84 80t110 33l-20 -20q-41 -25 -67.5 -49.5t-26.5 -28.5q-10 6 -17 6q-14 0 -32.5 -7t-30.5 -14zM516 1186l35 100q10 2 18.5 3t12.5 1q29 0 45 -15t22 -34l178 -348q23 -37 29 -74t6 -55q0 -20 -9 -56t-26 -65l-178 -315l-41 -45l-57 -7q27 16 40 37t17 39l129 291 q18 37 20.5 58.5t2.5 37.5q0 14 -17 76l-186 340zM606 1636v93l57 12v-74l15 -31l20 -8l-47 -53q-35 10 -45 61zM606 1757q23 43 42 53.5t56 10.5q-29 -4 -35 -25.5t-6 -26.5q-10 0 -10 5q-4 -1 -47 -17zM682 141q0 4 5 12.5t18 8.5q23 0 22 -21q0 -10 -6 -16t-16 -6 q-23 0 -23 22zM713 188q0 4 5 10.5t11 6.5q2 0 7 -4.5t5 -10.5q0 -14 -14 -14t-14 12z" />
<glyph unicode="&#xf8;" horiz-adv-x="1071" d="M86 137q0 25 18 60l166 292l37 -71l-102 -189q-2 -2 -4 -13t-2 -19v-29l-95 -86q-18 20 -18 55zM90 719q0 35 10.5 83t26.5 91l195 360l86 23l-181 -340q-20 -41 -32.5 -94.5t-12.5 -98.5q0 -47 11.5 -81.5t33.5 -75.5l19 -35l-62 -109l-57 125q-23 47 -30 81t-7 71z M344 133l25 39q41 29 84 29q10 -20 26 -23v-12h-10l2 -14l-14 4l6 -19l-19 8l9 -20l-19 12l8 -26l-20 14l10 -31l-24 17l14 -29q-20 0 -44 14.5t-34 36.5zM344 1298q10 23 32.5 43.5t50.5 36t58.5 24.5t55.5 9l-21 -20q-35 -23 -64.5 -45.5t-29.5 -32.5q-10 6 -16 6 q-14 0 -34 -7t-32 -14zM358 635l240 405v-2l115 117l18 -35l-334 -561zM565 1176l4 110q10 2 18.5 3t12.5 1q23 0 42.5 -14t25.5 -35l30 -59l-96 -80zM569 276q27 16 40.5 37t17.5 39l129 291q18 37 20 58.5t2 37.5q0 14 -16 76l-10 14l65 117l27 -53q20 -39 28.5 -75 t8.5 -54q0 -20 -10.5 -56t-26.5 -65l-176 -315l-41 -45zM700 141q0 4 5.5 12.5t17.5 8.5q20 -1 20 -21q0 -23 -20 -22q-23 0 -23 22zM731 188q0 2 4 9.5t8 7.5q2 0 9.5 -4.5t7.5 -10.5q0 -2 -6 -8t-11 -6q-12 0 -12 12zM762 1327l35 53q12 20 28.5 22.5t22.5 4.5 q25 0 41 -16l-82 -144l-19 37l-14 24.5t-12 18.5z" />
<glyph unicode="&#xf9;" d="M100 301v956q0 41 34 59.5t93 18.5v-1018q0 -43 19.5 -69.5t36.5 -40.5q-49 -47 -75 -61.5t-42 -16.5q-18 16 -42 64.5t-24 107.5zM115 1335q18 29 50 45.5t62 16.5q2 -2 9 -2q-25 -10 -25 -37h-14q-18 0 -39 -7.5t-43 -15.5zM178 1749q27 47 56.5 65.5t81.5 18.5 q-14 -12 -23.5 -22.5t-9.5 -41.5q-4 0 -9.5 1.5t-11.5 1.5q-16 0 -35.5 -4.5t-48.5 -18.5zM180 1712q25 18 48.5 27.5t58.5 9.5q2 -4 6 -9t14 -9v-11h-12l4 -14l-12 6l2 -20l-14 8l8 -19l-19 11l9 -23l-23 12l10 -26l-24 14l14 -27q-29 0 -49.5 23t-20.5 47zM195 102 q29 23 56.5 44.5t57.5 50.5q10 -8 22.5 -17.5t18.5 -9.5q0 -10 -8 -25.5t-22.5 -31t-31 -28.5t-34.5 -22q-35 0 -59 39zM627 1546q0 20 22 21q23 0 23 -19q0 -12 -4 -16q-8 -8 -19 -8q-23 0 -22 22zM686 1585q0 2 3 6t7 4q12 0 13 -10q0 -4 -2 -6q-4 -4 -8 -4q-12 0 -13 10z M786 287v970q0 47 31 62.5t90 15.5v-966q-29 -82 -121 -82zM793 1335q20 29 52 45.5t62 16.5q2 -2 8 -2q-27 -8 -26 -37h-12q-18 0 -40 -7.5t-44 -15.5zM868 147q0 14 8.5 21.5t16.5 7.5q12 0 19.5 -9.5t7.5 -19.5q0 -23 -27 -22q-12 0 -18.5 9t-6.5 13zM948 219q0 14 13 14 q4 0 11 -5t7 -11q0 -8 -6 -11t-10 -3q-14 0 -15 16z" />
<glyph unicode="&#xfa;" d="M100 301v956q0 41 34 59.5t93 18.5v-1018q0 -43 19.5 -69.5t36.5 -40.5q-49 -47 -75 -61.5t-42 -16.5q-18 16 -42 64.5t-24 107.5zM115 1335q18 29 50 45.5t62 16.5q2 -2 9 -2q-25 -10 -25 -37h-14q-18 0 -39 -7.5t-43 -15.5zM195 102q29 23 56.5 44.5t57.5 50.5 q10 -8 22.5 -17.5t18.5 -9.5q0 -10 -8 -25.5t-22.5 -31t-31 -28.5t-34.5 -22q-35 0 -59 39zM377 1575v18q0 39 49 74l62 -8l-4 -39zM439 1681l358 156l31 -29l-324 -137zM786 287v970q0 47 31 62.5t90 15.5v-966q-29 -82 -121 -82zM793 1335q20 29 52 45.5t62 16.5 q2 -2 8 -2q-27 -8 -26 -37h-12q-18 0 -40 -7.5t-44 -15.5zM868 147q0 14 8.5 21.5t16.5 7.5q12 0 19.5 -9.5t7.5 -19.5q0 -23 -27 -22q-12 0 -18.5 9t-6.5 13zM873 1686q0 10 6 15t10 5q15 0 23 -14q0 -31 -19 -31q-14 0 -17 10t-3 15zM948 219q0 14 13 14q4 0 11 -5t7 -11 q0 -8 -6 -11t-10 -3q-14 0 -15 16z" />
<glyph unicode="&#xfb;" d="M100 301v956q0 41 34 59.5t93 18.5v-1018q0 -43 19.5 -69.5t36.5 -40.5q-49 -47 -75 -61.5t-42 -16.5q-18 16 -42 64.5t-24 107.5zM115 1335q18 29 50 45.5t62 16.5q2 -2 9 -2q-25 -10 -25 -37h-14q-18 0 -39 -7.5t-43 -15.5zM195 102q29 23 56.5 44.5t57.5 50.5 q10 -8 22.5 -17.5t18.5 -9.5q0 -10 -8 -25.5t-22.5 -31t-31 -28.5t-34.5 -22q-35 0 -59 39zM316 1595q0 20 12 43l147 226q37 10 60 10h16l-149 -209q-4 -8 -9.5 -15.5t-5.5 -15.5t15 -14l-37 -31q-10 -10 -18.5 -22.5t-18.5 -20.5q-12 27 -12 49zM408 1546q0 23 26 23 q10 0 16.5 -7.5t6.5 -15.5q-1 -24 -21 -24q-29 0 -28 24zM471 1577q0 4 5 10t12 6q2 0 8 -5t6 -13q0 -14 -14 -14q-16 0 -17 16zM694 1548q0 12 9.5 19.5t17.5 7.5q27 0 27 -27q0 -12 -7.5 -20t-15.5 -8q-18 0 -24.5 10t-6.5 18zM754 1579q0 14 12 14q4 0 8 -6q6 -4 6 -8 q0 -12 -16 -12q-10 0 -10 12zM786 287v970q0 47 31 62.5t90 15.5v-966q-29 -82 -121 -82zM793 1335q20 29 52 45.5t62 16.5q2 -2 8 -2q-27 -8 -26 -37h-12q-18 0 -40 -7.5t-44 -15.5zM868 147q0 14 8.5 21.5t16.5 7.5q12 0 19.5 -9.5t7.5 -19.5q0 -23 -27 -22q-12 0 -18.5 9 t-6.5 13zM948 219q0 14 13 14q4 0 11 -5t7 -11q0 -8 -6 -11t-10 -3q-14 0 -15 16z" />
<glyph unicode="&#xfc;" d="M100 301v956q0 41 34 59.5t93 18.5v-1018q0 -43 19.5 -69.5t36.5 -40.5q-49 -47 -75 -61.5t-42 -16.5q-18 16 -42 64.5t-24 107.5zM115 1335q18 29 50 45.5t62 16.5q2 -2 9 -2q-25 -10 -25 -37h-14q-18 0 -39 -7.5t-43 -15.5zM195 102q29 23 56.5 44.5t57.5 50.5 q10 -8 22.5 -17.5t18.5 -9.5q0 -10 -8 -25.5t-22.5 -31t-31 -28.5t-34.5 -22q-35 0 -59 39zM201 1636v93l58 12v-74l12 -31l22 -8l-45 -53q-18 4 -30.5 21.5t-16.5 39.5zM201 1757q23 43 44.5 53.5t56.5 10.5v-2l-33 -23q0 -4 -5 -10t-5 -17q-10 4 -11 5q-8 -2 -19 -5.5 t-28 -11.5zM623 1636v93l57 12v-74l15 -31l20 -8l-47 -53q-35 10 -45 61zM623 1757q23 43 42 53.5t56 10.5q-29 -4 -35 -25.5t-6 -26.5q-10 0 -10 5q-4 -1 -47 -17zM786 287v970q0 47 31 62.5t90 15.5v-966q-29 -82 -121 -82zM793 1335q20 29 52 45.5t62 16.5q2 -2 8 -2 q-27 -8 -26 -37h-12q-18 0 -40 -7.5t-44 -15.5zM868 147q0 14 8.5 21.5t16.5 7.5q12 0 19.5 -9.5t7.5 -19.5q0 -23 -27 -22q-12 0 -18.5 9t-6.5 13zM948 219q0 14 13 14q4 0 11 -5t7 -11q0 -8 -6 -11t-10 -3q-14 0 -15 16z" />
<glyph unicode="&#xfd;" horiz-adv-x="1028" d="M59 1130v146l103 41v-119zM59 1296q23 115 142 115q2 -2 2 -4v-2q0 -2 2 -4q-6 -2 -13.5 -11.5t-14.5 -20.5t-11 -21.5t-4 -12.5q-35 -12 -57.5 -20t-45.5 -19zM340 1575v18q0 39 49 74l62 -8l-4 -39zM402 1681l358 156l31 -29l-324 -137zM412 106q47 27 69.5 36.5 t36.5 9.5q2 -4 7 -9.5t10 -5.5h6v-14h-11l2 -17l-14 7l6 -23l-16 10l8 -18l-20 8l10 -24l-23 16l9 -33l-25 17l16 -29q-31 0 -51 22.5t-20 46.5zM412 137v525l100 86v-549zM539 49q0 6 4 13.5t18 7.5q4 0 11.5 -5.5t7.5 -15.5v-4q0 -2 -1 -3t-1 -5q-6 -10 -21 -10 q-4 0 -11 6t-7 16zM541 928l196 250v98l115 41v-94l-274 -344zM590 100q0 2 4 9.5t10 7.5l2 -2q4 -4 10 -6q0 -4 1 -5.5t1 -3.5t3 -2q0 -12 -15 -12q-4 0 -10 5t-6 9zM737 1296q23 115 142 115q0 -6 2 -8q-23 -23 -28 -30t-5 -15q0 -4 1 -9.5t3 -13.5zM836 1686q0 10 6 15 t10 5q15 0 23 -14q0 -31 -19 -31q-14 0 -17 10t-3 15zM926 1118q0 12 16 12q12 0 14 -12q0 -4 -4 -12t-14 -8q-12 0 -12 20z" />
<glyph unicode="&#xfe;" horiz-adv-x="1050" d="M119 106q35 29 65.5 38.5t40.5 9.5q2 -4 9.5 -10.5t11.5 -6.5v-12h-10l4 -19l-15 7l2 -21l-14 8l8 -18l-18 10l8 -24l-23 14l9 -33l-25 19l16 -29q-31 0 -50 21.5t-19 45.5zM119 139v1135l98 24v-1097zM119 1321q18 33 31.5 52.5t26.5 28.5t28.5 11t36.5 2 q-45 -18 -45 -55q0 -4 1 -8.5t3 -14.5q-10 6 -13 6q-10 0 -28.5 -6t-40.5 -16zM791 551v340l73 86q14 -14 20.5 -30.5t6.5 -28.5v-281q0 -23 -14.5 -40t-30.5 -24zM932 428q0 25 24 25q33 0 33 -25t-33 -25q-25 0 -24 25z" />
<glyph unicode="&#xff;" horiz-adv-x="1028" d="M59 1130v146l103 41v-119zM59 1296q23 115 142 115q2 -2 2 -4v-2q0 -2 2 -4q-6 -2 -13.5 -11.5t-14.5 -20.5t-11 -21.5t-4 -12.5q-35 -12 -57.5 -20t-45.5 -19zM162 1636v93l58 12v-74l12 -31l22 -8l-45 -53q-18 4 -30.5 21.5t-16.5 39.5zM162 1757q23 43 44.5 53.5 t56.5 10.5v-2l-33 -23q0 -4 -5 -10t-5 -17q-10 4 -11 5q-8 -2 -19 -5.5t-28 -11.5zM412 106q47 27 69.5 36.5t36.5 9.5q2 -4 7 -9.5t10 -5.5h6v-14h-11l2 -17l-14 7l6 -23l-16 10l8 -18l-20 8l10 -24l-23 16l9 -33l-25 17l16 -29q-31 0 -51 22.5t-20 46.5zM412 137v525 l100 86v-549zM539 49q0 6 4 13.5t18 7.5q4 0 11.5 -5.5t7.5 -15.5v-4q0 -2 -1 -3t-1 -5q-6 -10 -21 -10q-4 0 -11 6t-7 16zM541 928l196 250v98l115 41v-94l-274 -344zM584 1636v93l57 12v-74l15 -31l20 -8l-47 -53q-35 10 -45 61zM584 1757q23 43 42 53.5t56 10.5 q-29 -4 -35 -25.5t-6 -26.5q-10 0 -10 5q-4 -1 -47 -17zM590 100q0 2 4 9.5t10 7.5l2 -2q4 -4 10 -6q0 -4 1 -5.5t1 -3.5t3 -2q0 -12 -15 -12q-4 0 -10 5t-6 9zM737 1296q23 115 142 115q0 -6 2 -8q-23 -23 -28 -30t-5 -15q0 -4 1 -9.5t3 -13.5zM926 1118q0 12 16 12 q12 0 14 -12q0 -4 -4 -12t-14 -8q-12 0 -12 20z" />
<glyph unicode="&#x152;" horiz-adv-x="1511" d="M84 719q0 31 7 80t30 94l188 371l90 12l-180 -340q-23 -41 -33 -87t-10 -106q0 -47 9.5 -81.5t33.5 -75.5l197 -348l-103 -58l-192 387q-20 45 -28.5 84t-8.5 68zM332 145q18 29 51 42.5t63 13.5q2 -6 7.5 -12.5t21.5 -10.5v-12h-14l4 -14l-14 4l4 -19l-15 8l6 -20 l-18 12l10 -26l-22 14l8 -31l-25 17l17 -29q-29 0 -45.5 14.5t-38.5 48.5zM338 1298q29 47 85 80t112 33l-21 -20q-55 -35 -74.5 -54.5t-19.5 -23.5q-10 6 -19 6q-12 0 -31.5 -7t-31.5 -14zM526 1186l37 100q10 2 18.5 3t12.5 1q29 0 45 -15t23 -34l176 -348q20 -39 28 -75 t8 -54q0 -20 -10 -56t-26 -65l-176 -315q-6 -10 -20.5 -26.5t-33.5 -18.5l-45 -7q23 18 35 39t23 37l129 291q16 37 19 58.5t3 37.5q0 10 -2 31t-16 45l-185 340q-4 10 -16 18.5t-27 12.5zM692 141q0 6 6.5 13.5t16.5 7.5q23 0 22 -21q0 -12 -4 -16q-6 -6 -18 -6 q-23 0 -23 22zM725 188q0 4 5 10.5t9 6.5q2 0 8.5 -4.5t6.5 -10.5q0 -2 -6.5 -8t-10.5 -6q-12 0 -12 12zM766 39v86q4 16 16 27l88 182v-182zM776 1292l94 86v-278zM1192 700q0 12 8 19.5t17 7.5q24 0 24 -25q0 -12 -7 -18t-15 -6q-10 0 -18.5 7t-8.5 15zM1257 727 q0 16 19 16q12 0 12 -18q0 -14 -16 -14q-14 0 -15 16zM1313 1241q0 14 8 22.5t16 8.5q27 0 27 -31q0 -8 -8 -14q-8 -8 -17 -8q-10 0 -18 7t-8 15zM1321 92q0 27 27 29q16 0 18 -10.5t12 -18.5q0 -10 -10 -18t-20 -8q-16 0 -21.5 11t-5.5 15zM1368 1282q0 4 6 10t17 6 q4 0 10 -4t6 -12q0 -6 -3 -13t-15 -7q-6 0 -13.5 6t-7.5 14z" />
<glyph unicode="&#x153;" horiz-adv-x="1511" d="M84 719q0 31 7 80t30 94l188 371l90 12l-180 -340q-23 -41 -33 -87t-10 -106q0 -47 9.5 -81.5t33.5 -75.5l197 -348l-103 -58l-192 387q-20 45 -28.5 84t-8.5 68zM332 145q18 29 51 42.5t63 13.5q2 -6 7.5 -12.5t21.5 -10.5v-12h-14l4 -14l-14 4l4 -19l-15 8l6 -20 l-18 12l10 -26l-22 14l8 -31l-25 17l17 -29q-29 0 -45.5 14.5t-38.5 48.5zM338 1298q29 47 85 80t112 33l-21 -20q-55 -35 -74.5 -54.5t-19.5 -23.5q-10 6 -19 6q-12 0 -31.5 -7t-31.5 -14zM526 1186l37 100q10 2 18.5 3t12.5 1q29 0 45 -15t23 -34l176 -348q20 -39 28 -75 t8 -54q0 -20 -10 -56t-26 -65l-176 -315q-6 -10 -20.5 -26.5t-33.5 -18.5l-45 -7q23 18 35 39t23 37l129 291q16 37 19 58.5t3 37.5q0 10 -2 31t-16 45l-185 340q-4 10 -16 18.5t-27 12.5zM692 141q0 6 6.5 13.5t16.5 7.5q23 0 22 -21q0 -12 -4 -16q-6 -6 -18 -6 q-23 0 -23 22zM725 188q0 4 5 10.5t9 6.5q2 0 8.5 -4.5t6.5 -10.5q0 -2 -6.5 -8t-10.5 -6q-12 0 -12 12zM766 39v86q4 16 16 27l88 182v-182zM776 1292l94 86v-278zM1192 700q0 12 8 19.5t17 7.5q24 0 24 -25q0 -12 -7 -18t-15 -6q-10 0 -18.5 7t-8.5 15zM1257 727 q0 16 19 16q12 0 12 -18q0 -14 -16 -14q-14 0 -15 16zM1313 1241q0 14 8 22.5t16 8.5q27 0 27 -31q0 -8 -8 -14q-8 -8 -17 -8q-10 0 -18 7t-8 15zM1321 92q0 27 27 29q16 0 18 -10.5t12 -18.5q0 -10 -10 -18t-20 -8q-16 0 -21.5 11t-5.5 15zM1368 1282q0 4 6 10t17 6 q4 0 10 -4t6 -12q0 -6 -3 -13t-15 -7q-6 0 -13.5 6t-7.5 14z" />
<glyph unicode="&#x178;" horiz-adv-x="1028" d="M59 1130v146l103 41v-119zM59 1296q23 115 142 115q2 -2 2 -4v-2q0 -2 2 -4q-6 -2 -13.5 -11.5t-14.5 -20.5t-11 -21.5t-4 -12.5q-35 -12 -57.5 -20t-45.5 -19zM162 1636v93l58 12v-74l12 -31l22 -8l-45 -53q-18 4 -30.5 21.5t-16.5 39.5zM162 1757q23 43 44.5 53.5 t56.5 10.5v-2l-33 -23q0 -4 -5 -10t-5 -17q-10 4 -11 5q-8 -2 -19 -5.5t-28 -11.5zM412 106q47 27 69.5 36.5t36.5 9.5q2 -4 7 -9.5t10 -5.5h6v-14h-11l2 -17l-14 7l6 -23l-16 10l8 -18l-20 8l10 -24l-23 16l9 -33l-25 17l16 -29q-31 0 -51 22.5t-20 46.5zM412 137v525 l100 86v-549zM539 49q0 6 4 13.5t18 7.5q4 0 11.5 -5.5t7.5 -15.5v-4q0 -2 -1 -3t-1 -5q-6 -10 -21 -10q-4 0 -11 6t-7 16zM541 928l196 250v98l115 41v-94l-274 -344zM584 1636v93l57 12v-74l15 -31l20 -8l-47 -53q-35 10 -45 61zM584 1757q23 43 42 53.5t56 10.5 q-29 -4 -35 -25.5t-6 -26.5q-10 0 -10 5q-4 -1 -47 -17zM590 100q0 2 4 9.5t10 7.5l2 -2q4 -4 10 -6q0 -4 1 -5.5t1 -3.5t3 -2q0 -12 -15 -12q-4 0 -10 5t-6 9zM737 1296q23 115 142 115q0 -6 2 -8q-23 -23 -28 -30t-5 -15q0 -4 1 -9.5t3 -13.5zM926 1118q0 12 16 12 q12 0 14 -12q0 -4 -4 -12t-14 -8q-12 0 -12 20z" />
<glyph unicode="&#x2c6;" horiz-adv-x="692" d="M109 1595q0 20 12 43l147 226q37 10 60 10h16l-149 -209q-4 -8 -9.5 -15.5t-5.5 -15.5t15 -14l-37 -31q-10 -10 -18.5 -22.5t-18.5 -20.5q-12 27 -12 49zM201 1546q0 23 26 23q10 0 16.5 -7.5t6.5 -15.5q-1 -24 -21 -24q-29 0 -28 24zM264 1577q0 4 5 10t12 6q2 0 8 -5 t6 -13q0 -14 -14 -14q-16 0 -17 16zM487 1548q0 12 9.5 19.5t17.5 7.5q27 0 27 -27q0 -12 -7.5 -20t-15.5 -8q-18 0 -24.5 10t-6.5 18zM547 1579q0 14 12 14q4 0 8 -6q6 -4 6 -8q0 -12 -16 -12q-10 0 -10 12z" />
<glyph unicode="&#x2dc;" horiz-adv-x="825" d="M143 1546q0 4 4 4q8 0 9 -4v-2q-4 -4 -2 -5t-2 -1q-8 0 -9 8zM186 1561q0 12 8.5 19t16.5 7q14 0 20.5 -9t6.5 -17q0 -20 -25 -21q-10 0 -18.5 7t-8.5 14zM575 1561q0 27 27 26q8 0 16.5 -8t8.5 -16q-1 -9 -9 -15q-6 -12 -16 -12q-8 0 -17.5 7t-9.5 18zM688 1634 q0 12 14 13q10 0 11 -13q-1 -12 -11 -12q-14 0 -14 12z" />
<glyph unicode="&#x2000;" horiz-adv-x="937" />
<glyph unicode="&#x2001;" horiz-adv-x="1874" />
<glyph unicode="&#x2002;" horiz-adv-x="937" />
<glyph unicode="&#x2003;" horiz-adv-x="1874" />
<glyph unicode="&#x2004;" horiz-adv-x="624" />
<glyph unicode="&#x2005;" horiz-adv-x="468" />
<glyph unicode="&#x2006;" horiz-adv-x="312" />
<glyph unicode="&#x2007;" horiz-adv-x="312" />
<glyph unicode="&#x2008;" horiz-adv-x="234" />
<glyph unicode="&#x2009;" horiz-adv-x="374" />
<glyph unicode="&#x200a;" horiz-adv-x="104" />
<glyph unicode="&#x2010;" horiz-adv-x="1097" d="M104 670v18l80 25q0 -23 16.5 -43.5t45.5 -20.5l-35 -98q-53 8 -80 45t-27 74zM104 748q14 49 51.5 70.5t90.5 21.5v-6q-31 -10 -46.5 -30t-15.5 -40q-23 0 -40 -4t-40 -12z" />
<glyph unicode="&#x2011;" horiz-adv-x="1097" d="M104 670v18l80 25q0 -23 16.5 -43.5t45.5 -20.5l-35 -98q-53 8 -80 45t-27 74zM104 748q14 49 51.5 70.5t90.5 21.5v-6q-31 -10 -46.5 -30t-15.5 -40q-23 0 -40 -4t-40 -12z" />
<glyph unicode="&#x2012;" horiz-adv-x="1097" d="M104 670v18l80 25q0 -23 16.5 -43.5t45.5 -20.5l-35 -98q-53 8 -80 45t-27 74zM104 748q14 49 51.5 70.5t90.5 21.5v-6q-31 -10 -46.5 -30t-15.5 -40q-23 0 -40 -4t-40 -12z" />
<glyph unicode="&#x2013;" horiz-adv-x="1290" d="M106 670v18l80 25q0 -23 15.5 -43.5t44.5 -20.5l-33 -98q-53 8 -80 45t-27 74zM106 748q31 57 59 74.5t81 17.5v-6q-23 -14 -30 -22.5t-9 -10.5l-12 -15q-8 -14 -9 -22q-8 0 -12 4q-25 0 -68 -20z" />
<glyph unicode="&#x2014;" horiz-adv-x="1990" d="M109 670v18l79 25q0 -23 15.5 -43.5t44.5 -20.5l-33 -98q-53 8 -79.5 45t-26.5 74zM109 748q29 57 57.5 74.5t81.5 17.5v-6q-23 -14 -30 -22.5t-9 -10.5l-12 -15q-8 -14 -9 -22q-8 0 -12 4q-25 0 -67 -20z" />
<glyph unicode="&#x2018;" horiz-adv-x="559" d="M66 1286l12 41l39 43l49 21l-4 -39zM80 1233l94 70l170 -576l18 -25l33 -16h-28l-27 14l18 -38l-49 24l37 -43l-53 27l29 -49l-46 22l29 -29l-47 25l-22 43z" />
<glyph unicode="&#x2019;" horiz-adv-x="557" d="M92 1309q14 66 48 89t96 23v-4q0 -14 -8.5 -26.5t-8.5 -40.5q-49 0 -81 -12.5t-46 -28.5zM96 723v526q4 47 34 62.5t95 15.5v-483z" />
<glyph unicode="&#x201a;" horiz-adv-x="559" d="M92 586q16 66 50.5 89t97.5 23q-20 -20 -21 -71q-51 0 -80.5 -11.5t-46.5 -29.5zM96 -2v530q4 41 34 58.5t95 17.5v-481z" />
<glyph unicode="&#x201c;" horiz-adv-x="1087" d="M102 1315l101 55l86 -442q-20 -33 -50 -48.5t-59 -15.5zM180 834l39 6l62 24l32 31l19 -27l51 -18l-59 -2l28 -27l-45 10l23 -34l-64 12l35 -39l-65 21l26 -41l-57 34zM629 1184l92 94l78 -354q-4 -41 -34 -62.5t-60 -21.5zM709 813l41 4l51 35l30 33l19 -29l53 -16 l-61 -4l32 -25l-47 8l21 -35l-62 13l35 -39l-67 20l28 -41l-57 35z" />
<glyph unicode="&#x201d;" horiz-adv-x="1087" d="M102 1315l101 55l86 -442q-20 -33 -50 -48.5t-59 -15.5zM180 834l39 6l62 24l32 31l19 -27l51 -18l-59 -2l28 -27l-45 10l23 -34l-64 12l35 -39l-65 21l26 -41l-57 34zM629 1184l92 94l78 -354q-4 -41 -34 -62.5t-60 -21.5zM709 813l41 4l51 35l30 33l19 -29l53 -16 l-61 -4l32 -25l-47 8l21 -35l-62 13l35 -39l-67 20l28 -41l-57 35z" />
<glyph unicode="&#x201e;" horiz-adv-x="1087" d="M102 592l101 55l86 -444q-20 -33 -50 -47.5t-59 -14.5zM180 109l39 8l62 22l32 33l19 -27l51 -16l-59 -4l28 -27l-45 11l23 -37l-64 12l35 -37l-65 19l26 -39l-57 32zM629 461l92 92l78 -354q-4 -41 -32 -60.5t-62 -19.5zM709 88l41 6l51 37l30 31l19 -29l53 -16l-61 -2 l32 -29l-47 10l21 -35l-62 11l35 -35l-67 18l28 -41l-57 35z" />
<glyph unicode="&#x2022;" horiz-adv-x="884" d="M86 518v340q4 43 36 60.5t93 17.5v-358q0 -41 12.5 -60.5t40.5 -48.5q-35 -37 -64.5 -56.5t-49.5 -23.5q-23 23 -37.5 49.5t-30.5 79.5zM117 950l78 74q27 18 77 18v-6q-41 -35 -50 -45t-9 -16q0 -2 1 -3t1 -5q-6 6 -20 6q-23 0 -78 -23zM180 362l15 13q25 18 49 38.5 t53 43.5q14 -8 29 -8h14q0 -29 -30.5 -59t-61.5 -52q-45 0 -68 24zM649 412q0 14 8.5 19t14.5 5q18 0 24 -10v-8q0 -2 2 -4q0 -27 -20 -27h-4q-14 0 -19.5 8t-5.5 17z" />
<glyph unicode="&#x2026;" horiz-adv-x="2328" d="M170 133v125l80 16v-102l22 -41l29 -14l-63 -74q-29 10 -44.5 28.5t-23.5 61.5zM170 299q29 53 58.5 73.5t82.5 20.5v-8l-41 -35q-8 -6 -14 -14t-6 -17l-8 3q-8 0 -72 -23zM971 133v125l80 16v-102l20 -41l31 -14l-66 -74q-29 10 -43 28.5t-22 61.5zM971 299 q29 53 57.5 73.5t83.5 20.5q-20 -18 -32.5 -29.5t-18.5 -19.5t-8 -13t-2 -12h-11q-2 0 -2 3q-6 0 -67 -23zM1759 133v125l80 16v-102l21 -41l30 -14l-65 -74q-29 10 -43.5 28.5t-22.5 61.5zM1759 299q29 53 58 73.5t84 20.5q-23 -23 -35.5 -34t-18.5 -18t-9 -11t-7 -11 q-2 0 -4 3q-6 0 -22.5 -6.5t-45.5 -16.5z" />
<glyph unicode="&#x202f;" horiz-adv-x="374" />
<glyph unicode="&#x2039;" horiz-adv-x="706" d="M70 743q0 29 12 45.5t41 45.5h72v-54l-117 -63q-8 8 -8 26zM141 862l332 199l47 -31l-301 -168h-78zM551 442q0 16 9 20.5t15 4.5q16 0 21.5 -8.5t5.5 -16.5q0 -23 -24 -22q-14 0 -20.5 8t-6.5 14zM565 905q0 16 10.5 22.5t16.5 6.5q16 0 17 -9.5t7 -15.5q0 -18 -7 -18 t-15 -8q-14 0 -21.5 8t-7.5 14z" />
<glyph unicode="&#x203a;" horiz-adv-x="702" d="M92 967q23 49 53.5 71.5t87.5 22.5q-2 -2 -2 -8l-43 -33q-2 0 -9 -12.5t-7 -22.5q-8 0 -12 4q-6 0 -22.5 -6t-45.5 -16zM96 508q29 49 59.5 71.5t84.5 22.5q-10 -6 -23.5 -22.5t-11.5 -44.5h-37q-27 0 -72 -27zM100 467q25 25 50.5 33t60.5 8q2 -6 9 -12.5t16 -6.5v-12 h-15l4 -16l-14 6l4 -23l-18 11l8 -19l-19 8l11 -24l-25 16l10 -30l-24 14l14 -29q-29 0 -50.5 25.5t-21.5 50.5zM582 645q0 16 9 21.5t15 5.5q16 0 22.5 -10.5t6.5 -14.5q0 -24 -25 -24q-16 0 -22 8t-6 14z" />
<glyph unicode="&#x205f;" horiz-adv-x="468" />
<glyph unicode="&#x20ac;" horiz-adv-x="1226" d="M55 563q33 51 64 72.5t84 21.5q-12 -8 -24.5 -22t-12.5 -47q-4 0 -8 1t-11 1q-12 0 -35.5 -4t-56.5 -23zM55 926q37 94 148 94q-12 -10 -24.5 -25.5t-12.5 -46.5q-4 0 -8 1t-11 1q-12 0 -35.5 -4t-56.5 -20zM61 524q27 23 51.5 31t59.5 8q2 -12 23 -18v-10h-13l4 -17 l-14 6l2 -22l-16 10l8 -23l-16 13l6 -25l-19 12l8 -28l-26 16l18 -31q-33 0 -54.5 26t-21.5 52zM61 883q27 23 51.5 33t59.5 10q2 -14 23 -21v-12h-13l13 -16l-23 6l2 -21l-16 8l8 -20l-16 12l6 -26l-19 14l8 -31l-26 17l18 -29q-33 0 -54.5 24.5t-21.5 51.5zM229 735 q-2 47 12.5 81t24.5 77l8 12h78l-4 -6q-12 -41 -18 -87t-6 -112q0 -14 4 -22h-97zM344 1038l113 215l86 23l-125 -238h-74zM348 399h121l90 -161l-102 -58zM475 145q51 55 117 56q2 -12 29 -23v-12h-15l6 -14l-14 4l2 -19l-16 8l8 -20l-19 12l9 -26l-23 14l8 -31l-24 17 l16 -29q-16 0 -43 16.5t-41 46.5zM481 1298q27 41 84.5 77t112.5 36l-21 -20q-35 -18 -64.5 -44t-29.5 -34q-6 6 -18 6q-10 0 -29.5 -7t-34.5 -14zM1061 100q0 16 8 25l43 -4q8 -8 8 -21q0 -27 -30 -26q-29 0 -29 26z" />
<glyph unicode="&#x2122;" horiz-adv-x="1796" d="M86 1182l61.5 24t24.5 15q4 -14 23 -29v-10h-11l4 -15l-12 4l4 -18l-14 8l6 -18l-16 10l6 -23l-17 13l5 -25l-19 12l14 -24q-20 0 -39.5 19.5t-19.5 56.5zM86 1217v83l86 72v-119zM217 1167q0 10 6 16.5t13 6.5q4 0 11 -5.5t7 -17.5q0 -16 -16 -16q-20 0 -21 16zM373 645 q27 23 55.5 34t32.5 11q2 -4 7 -10t13 -6v-12h-10l2 -17l-12 8l4 -18l-12 6l4 -14l-15 8l9 -23l-17 15l8 -29l-24 14l16 -26q-25 0 -43 20.5t-18 38.5zM373 674v555l82 74v-572zM500 657q0 6 5 12.5t13 6.5q4 0 10.5 -5.5t6.5 -15.5q0 -4 -6.5 -10t-12.5 -6t-11 6t-5 12z M653 1184q45 14 63.5 26.5t22.5 16.5q2 -6 6.5 -13.5t18.5 -17.5v-12h-10l2 -17l-13 9l5 -19l-13 6l4 -16l-14 10l8 -24l-16 14l6 -25l-21 11l15 -25q-25 0 -44.5 18.5t-19.5 57.5zM788 1176q0 20 15 20q8 0 14 -6t6 -12q0 -13 -6 -15q-4 -2 -10 -2q-2 0 -2 -2q-16 0 -17 17 zM948 645q29 25 57.5 36t32.5 11q2 -6 15 -18h4v-10h-10l6 -19l-15 8l4 -18l-12 6l6 -14l-16 8l8 -21l-18 13l6 -29l-23 16l17 -26q-25 0 -43.5 19.5t-18.5 37.5zM948 674v620l84 74v-637zM1073 649q0 16 17 17q16 -1 16 -19q0 -14 -16 -14q-10 0 -13.5 6t-3.5 10zM1227 907 q29 23 57.5 33t32.5 10l5 -10t13 -6v-10h-10l2 -17l-10 6l4 -16l-16 4l8 -16l-17 12l9 -25l-21 13l8 -27l-20 14l12 -26q-25 0 -41 19.5t-16 41.5zM1329 1190l152 219h82l-197 -276zM1358 901q0 16 8 20.5t10 4.5q8 0 15.5 -3t7.5 -18q0 -14 -6.5 -19t-12.5 -5q-14 0 -18 9 t-4 11zM1518 645q23 25 53.5 36t34.5 11q2 -6 5 -12t13 -6v-10h-10l4 -19l-12 8l4 -18l-15 6l7 -14l-15 8l6 -21l-18 13l8 -29l-20 16l12 -26q-27 0 -42 19.5t-15 37.5zM1518 674v459l79 127v-529zM1647 639q0 20 18 20q20 0 21 -20q-2 -2 -3 -4q0 -2 -1 -3t-1 -5 q-10 -6 -16 -6q-18 0 -18 18z" />
<glyph unicode="&#xe000;" horiz-adv-x="1413" d="M0 0v1413h1413v-1413h-1413z" />
</font>
</defs>
</svg>
