<?xml version="1.0" standalone="no"?>
<!DOCTYPE svg PUBLIC "-//W3C//DTD SVG 1.1//EN" "http://www.w3.org/Graphics/SVG/1.1/DTD/svg11.dtd" >
<svg xmlns="http://www.w3.org/2000/svg">
<metadata></metadata>
<defs>
<font id="kredit_backregular" horiz-adv-x="1105" >
<font-face units-per-em="2048" ascent="1518" descent="-530" />
<missing-glyph horiz-adv-x="655" />
<glyph horiz-adv-x="2048" />
<glyph horiz-adv-x="2048" />
<glyph unicode="&#xd;" horiz-adv-x="1525" />
<glyph horiz-adv-x="655" />
<glyph unicode=" "  horiz-adv-x="655" />
<glyph unicode="&#x09;" horiz-adv-x="655" />
<glyph unicode="&#xa0;" horiz-adv-x="655" />
<glyph unicode="!" horiz-adv-x="505" d="M68 141v72q0 27 12 52.5t31.5 45t45 30.5t52.5 11h80q53 0 98 -38t45 -99v-74q0 -59 -43 -99t-98 -40h-82q-53 0 -97 39t-44 100zM70 1294q0 55 40 98.5t99 43.5h86q59 0 99 -42t40 -102l-45 -653q0 -27 -11 -51.5t-30.5 -43t-44 -28.5t-51.5 -10q-47 0 -91 33.5 t-48 99.5z" />
<glyph unicode="&#x22;" horiz-adv-x="1087" d="M63 1296v54l140 86h819v-140l-84 -456q-25 -115 -139 -115q-117 0 -142 115l-61 315h-104l-64 -317q-12 -59 -49 -87t-90 -28q-119 0 -139 117z" />
<glyph unicode="#" horiz-adv-x="1052" d="M49 645q0 57 40 99t99 42h29v82h-29q-61 0 -100 42t-39 98q0 59 40 98t99 39h31v153q0 55 41 96.5t96 41.5q27 0 52.5 -11.5t45 -30t32 -44t12.5 -52.5v-153h55v153q0 27 11 51.5t31.5 44t45.5 31t53 11.5q53 0 97.5 -40t44.5 -98v-153h28q59 0 99.5 -41t40.5 -96 q0 -31 -13.5 -56.5t-33 -45t-44 -30t-47.5 -10.5h-30v-80h28q59 0 99.5 -43t40.5 -96t-39 -96t-99 -43h-30v-154q0 -59 -43 -98t-99 -39q-29 0 -53.5 11.5t-45 31t-31.5 44t-11 50.5v154h-55v-154q0 -53 -42 -95t-98 -42q-59 0 -99 41t-40 96v154h-31q-27 0 -51 11 t-43.5 29.5t-32 43t-12.5 53.5zM498 786h55v80h-55v-80z" />
<glyph unicode="$" horiz-adv-x="1038" d="M41 430q0 59 38 98t97 39h541v21h-537q-59 0 -98 37t-39 94v291q0 53 39 95t98 42h197v151q0 59 41 98.5t100 39.5t97 -42t38 -96v-151h205q59 0 100 -40t41 -95q0 -59 -40.5 -97t-100.5 -38h-534v-19h532q59 0 100 -39t41 -98v-293q0 -29 -11 -53.5t-30.5 -44t-45 -30.5 t-52.5 -11h-205v-150q0 -66 -43 -102.5t-92 -36.5q-53 0 -97 39t-44 98v154h-199q-20 0 -44.5 9t-45 27.5t-34 44t-13.5 58.5z" />
<glyph unicode="%" horiz-adv-x="1056" d="M49 1149v145q0 59 41 100.5t100 41.5h170q57 0 98.5 -40t41.5 -100v-147q0 -61 -42 -99t-96 -38h-174q-59 0 -99 39t-40 98zM53 283q0 23 8.5 46t24.5 46l682 868q37 47 98 47q59 0 100.5 -38t41.5 -99q0 -59 -33 -98l-682 -867q-31 -43 -94 -43q-59 0 -102.5 39 t-43.5 99zM557 137v148q0 23 9 47t27.5 44.5t44.5 34t60 13.5h170q59 0 98.5 -42t39.5 -95v-148q0 -59 -39 -99t-99 -40h-174q-53 0 -95 40t-42 97z" />
<glyph unicode="&#x26;" horiz-adv-x="1071" d="M66 309v117q0 63 55 113l108 92l-116 127q-47 53 -47 114v107q0 61 24.5 117.5t67.5 99.5t99 67.5t118 24.5h170q68 0 124 -26.5t97 -70.5t64.5 -99.5t23.5 -112.5v-113q0 -49 -14.5 -74.5t-46.5 -52.5l-158 -133l110 -114l46 38q45 35 98 35q55 0 95 -38t40 -97t-45 -98 l-45 -43l51 -58q16 -20 27.5 -40.5t11.5 -49.5q0 -53 -37 -97t-104 -44q-59 0 -99 41l-61 63l-88 -73q-6 -12 -30.5 -21.5t-55.5 -9.5h-174q-66 0 -122 24.5t-98 66.5t-65.5 98.5t-23.5 119.5zM346 305q0 -10 8 -19.5t21 -9.5h117l38 33l-108 117l-76 -66v-55zM346 920 l98 -105l131 111v55q0 12 -11 22.5t-19 10.5h-170q-10 0 -19.5 -8.5t-9.5 -24.5v-61z" />
<glyph unicode="'" horiz-adv-x="557" d="M74 725v561q0 66 36.5 108t108.5 42h164q27 0 52.5 -11.5t45 -30t31.5 -44t12 -52.5q0 -10 -3 -21t-3 -17l-168 -576q-31 -102 -135 -102q-59 0 -100 41t-41 102z" />
<glyph unicode="(" horiz-adv-x="638" d="M39 541v356q0 53 20.5 114.5t65.5 121.5l205 260q33 45 96 45q59 0 101 -35t42 -107q0 -55 -28 -79l-197 -256q-27 -33 -27 -82v-320q0 -47 27 -80l197 -254q29 -33 28 -84q0 -59 -40 -100t-99 -41q-66 0 -100 47l-203 258q-88 109 -88 236z" />
<glyph unicode=")" horiz-adv-x="638" d="M70 143q0 57 24 82l203 254q27 33 27 80v322q0 45 -27 77l-203 259q-12 10 -18 32.5t-6 44.5q0 66 43 105t96 39q61 0 98 -45l207 -260q86 -111 86 -236v-356q0 -68 -22.5 -125.5t-63.5 -110.5l-207 -258q-37 -47 -96 -47q-53 0 -97 39t-44 104z" />
<glyph unicode="*" horiz-adv-x="1044" d="M45 432q0 68 43 98l221 187l-219 188q-45 39 -45 103q0 53 36 96t101 43q49 0 97 -37l100 -86v125q0 55 41 98t100 43q49 0 93 -39t44 -100v-131l107 90q47 35 98 35q59 0 99 -39t40 -98q0 -63 -45 -103l-219 -188l217 -187q45 -39 45 -98q0 -27 -11 -52.5t-29.5 -45 t-44 -31.5t-52.5 -12q-59 0 -98 35l-107 92v-133q0 -55 -39.5 -96.5t-95.5 -41.5q-61 0 -102 39t-41 99v129l-103 -88q-43 -37 -94 -37q-59 0 -98 40t-39 103z" />
<glyph unicode="+" horiz-adv-x="1003" d="M20 721q0 25 9.5 49.5t28 44t44 32.5t58.5 13h202v201q0 53 39 96t105 43q49 0 91 -39t42 -100v-201h203q57 0 99 -41t42 -96q0 -63 -42 -102t-99 -39h-201v-203q0 -59 -41 -99t-96 -40q-61 0 -101.5 39.5t-40.5 99.5v203h-202q-55 0 -97.5 40t-42.5 99z" />
<glyph unicode="," horiz-adv-x="712" d="M18 575q0 55 39 98.5t99 43.5h340q59 0 100 -41t41 -101v-436q0 -63 -44 -101t-97 -38q-49 0 -94.5 39t-45.5 100v297h-198q-53 0 -96.5 39t-43.5 100z" />
<glyph unicode="-" horiz-adv-x="1097" d="M72 649v76q0 55 40 96t99 41h676q49 0 94 -35.5t45 -101.5v-76q0 -27 -11 -52.5t-30.5 -45t-44.5 -31.5t-51 -12h-678q-59 0 -99 41t-40 100z" />
<glyph unicode="." horiz-adv-x="587" d="M70 139v144q0 66 43 102.5t96 36.5h168q55 0 98 -40t43 -99v-144q0 -53 -40 -96t-99 -43h-172q-61 0 -99 43t-38 96z" />
<glyph unicode="/" horiz-adv-x="978" d="M12 133q0 18 6.5 43t22.5 49l684 1159q27 51 98 52q59 0 101.5 -39t42.5 -92q0 -47 -31 -95l-680 -1161q-29 -51 -98 -51q-55 0 -100.5 39t-45.5 96z" />
<glyph unicode="0" horiz-adv-x="1107" d="M76 217v1002q0 45 18.5 84.5t49 68.5t69.5 46.5t82 17.5h524q45 0 84 -18.5t67.5 -49.5t45 -69.5t16.5 -79.5v-1002q0 -45 -17.5 -85t-46 -68.5t-68.5 -46t-83 -17.5h-522q-98 0 -158.5 59.5t-60.5 157.5zM356 276h400v879h-400v-879z" />
<glyph unicode="1" horiz-adv-x="1071" d="M72 141q0 61 43 98t96 37h203v881h-199q-25 0 -49.5 9.5t-44 27.5t-32.5 44t-13 60q0 55 39 96.5t98 41.5h477v-1160h58v295q0 51 39.5 95.5t99.5 44.5q27 0 52.5 -11.5t46 -31t31.5 -44t11 -51.5v-434q0 -55 -41 -97t-100 -42h-676q-59 0 -99 41t-40 100z" />
<glyph unicode="2" horiz-adv-x="1112" d="M76 1298q0 59 40 98.5t99 39.5h600q45 0 85 -17.5t70.5 -48.5t48 -70.5t17.5 -82.5v-410q0 -51 -18.5 -92t-49 -71t-70.5 -46t-83 -16h-457v-306h541q25 0 48.5 -10t44 -27.5t32.5 -42t12 -55.5q0 -63 -41 -102t-96 -39h-817v637q0 47 18.5 88t49 70.5t70.5 47t83 17.5 h455v297h-543q-23 0 -47.5 9.5t-45 27.5t-33.5 44t-13 60z" />
<glyph unicode="3" horiz-adv-x="1107" d="M72 1298q0 55 40 96.5t99 41.5h598q45 0 86 -17.5t71.5 -48.5t48 -70.5t17.5 -82.5v-318q0 -113 -51 -178q51 -76 51 -170v-330q0 -43 -17.5 -83t-47 -70.5t-70.5 -49t-88 -18.5h-592q-51 0 -95 37t-44 102q0 59 40 98t99 39h535v275q0 10 -9.5 20.5t-19.5 10.5h-338 q-27 0 -52.5 11t-45 30.5t-30.5 45t-11 52.5q0 61 43 100t96 39h342q10 0 18.5 9.5t8.5 19.5v268h-543q-23 0 -47.5 9.5t-45 27.5t-33.5 44t-13 60z" />
<glyph unicode="4" horiz-adv-x="952" d="M41 436v860q0 55 39 97.5t98 42.5q27 0 52.5 -11.5t45 -30t31.5 -44t12 -54.5v-581h226v434q0 53 35.5 97t101.5 44q53 0 97 -36.5t44 -102.5v-449q37 -20 60.5 -49.5t23.5 -77.5q0 -37 -21.5 -75.5t-62.5 -53.5v-307q0 -59 -40 -99t-99 -40q-49 0 -94 37t-45 102v297 h-504z" />
<glyph unicode="5" horiz-adv-x="1075" d="M45 213q0 25 10.5 48.5t27.5 44t40.5 32.5t52.5 12q20 0 38.5 -4t41.5 -14l133 -56h332v306h-504v710l143 144h500q27 0 52.5 -11.5t45 -30t31.5 -44t12 -52.5q0 -55 -40.5 -98t-100.5 -43h-364v-299h280q45 0 86 -19.5t72 -50t49 -70.5t18 -81v-416q0 -43 -17 -83 t-47 -70.5t-71 -49t-90 -18.5h-387q-68 0 -133 29l-125 51q-86 35 -86 133z" />
<glyph unicode="6" horiz-adv-x="1054" d="M78 137v1161q0 59 41 98.5t100 39.5h84q55 0 96 -42t41 -96q0 -43 -26.5 -80.5t-55.5 -48.5v-456h535q59 0 99 -43t40 -97v-434q0 -59 -43 -99t-98 -40h-672q-27 0 -52.5 11.5t-45 29.5t-31.5 43t-12 53zM354 276h398v158h-398v-158z" />
<glyph unicode="7" horiz-adv-x="1032" d="M35 1227v69q0 59 37 99.5t102 40.5h815v-572q0 -63 -51 -108l-287 -250v-365q0 -25 -10 -50t-28.5 -44.5t-43 -33t-55.5 -13.5q-55 0 -99 38t-44 99v424q0 76 49 119l291 246v231h-414q-41 -70 -123 -70q-59 0 -99 41t-40 99z" />
<glyph unicode="8" horiz-adv-x="1071" d="M57 223v414q0 37 13.5 71.5t36 63.5t53 49.5t67.5 28.5v448q0 55 40 96.5t95 41.5h347q55 0 96 -41t41 -97v-448q72 -16 120 -76.5t48 -136.5v-416q0 -45 -17.5 -85t-48 -70.5t-70.5 -48t-85 -17.5h-510q-47 0 -88 17.5t-72 48t-48.5 71.5t-17.5 86zM340 276h397v306 h-397v-306zM504 858h63v299h-63v-299z" />
<glyph unicode="9" horiz-adv-x="1052" d="M23 862v436q0 53 36.5 96.5t102.5 43.5h674q57 0 98 -42t41 -98v-1159q0 -57 -39 -98t-100 -41h-84q-49 0 -92.5 37t-43.5 102q0 41 20.5 76t61.5 49v461h-536q-53 0 -96 39t-43 98zM303 1008h399v149h-399v-149z" />
<glyph unicode=":" horiz-adv-x="589" d="M72 352v148q0 25 9 49t27.5 43.5t45 33t59.5 13.5h164q59 0 100 -40t41 -99v-146q0 -55 -39 -96t-98 -41h-172q-53 0 -95 38t-42 97zM72 934v145q0 59 40 99.5t99 40.5h166q31 0 56.5 -12.5t44 -33t29.5 -44t11 -48.5v-147q0 -59 -42 -99t-95 -40h-172q-49 0 -93 36.5 t-44 102.5z" />
<glyph unicode=";" horiz-adv-x="698" d="M31 573q0 53 37.5 97.5t99.5 44.5h340q25 0 49.5 -10.5t44 -29t32.5 -44t13 -58.5v-434q0 -63 -43 -101t-96 -38t-96 38t-43 99v297h-201q-53 0 -95 40t-42 99zM35 1010v143q0 49 38 93t99 44h172q57 0 97 -40t40 -97v-143q0 -57 -40 -98.5t-97 -41.5h-170q-53 0 -96 37 t-43 103z" />
<glyph unicode="&#x3c;" horiz-adv-x="1044" d="M41 686v64q0 84 76 129l661 389q45 27 80 26q51 0 95 -38.5t44 -100.5q0 -80 -63 -119l-539 -317l539 -318q63 -43 63 -116q0 -61 -41 -100.5t-96 -39.5q-18 0 -38.5 4.5t-43.5 18.5l-659 389q-78 41 -78 129z" />
<glyph unicode="=" horiz-adv-x="1101" d="M72 575q0 27 11 51.5t29.5 44t44 32t56.5 12.5h678q53 0 96 -39t43 -101q0 -53 -40 -96t-99 -43h-678q-27 0 -52.5 10.5t-45 29t-31.5 44t-12 55.5zM72 936q0 53 41 96t100 43h678q49 0 94 -39t45 -100q0 -27 -10 -51.5t-28.5 -44t-44 -31.5t-56.5 -12h-678q-55 0 -98 42 t-43 97z" />
<glyph unicode="&#x3e;" horiz-adv-x="1046" d="M74 283q0 78 67 118l537 318l-539 317q-66 37 -65 117q0 61 45 101t94 40q39 0 82 -24l661 -391q76 -45 76 -127v-66q0 -37 -19.5 -70.5t-56.5 -56.5l-659 -391q-23 -14 -43.5 -18.5t-40.5 -4.5q-25 0 -49.5 9.5t-44 26t-32.5 42t-13 60.5z" />
<glyph unicode="?" horiz-adv-x="1007" d="M31 862q0 66 41 103l518 442q33 27 88 27q53 0 86 -27l170 -152q51 -39 51 -104v-143q0 -63 -43 -101l-463 -401v-78q0 -25 -11 -49.5t-29.5 -45t-44 -32.5t-52.5 -12q-55 0 -98 42t-43 97v139q0 72 45 111l461 397v10l-31 27l-410 -352q-25 -18 -46 -27.5t-52 -9.5 q-49 0 -93 37t-44 102zM199 139q0 55 41 98.5t98 43.5t98 -43t41 -97q0 -63 -42 -102t-95 -39t-97 39t-44 100z" />
<glyph unicode="@" horiz-adv-x="1093" d="M68 295v326q0 63 24.5 119.5t67.5 98.5t99 66.5t118 24.5h166q143 0 143 -146v-479q0 -29 31 -29q27 0 26 31v787q0 20 -18 41.5t-47 21.5h-256q-33 0 -51.5 -8t-36.5 -55q-45 -78 -125 -78q-61 0 -101 39t-40 92q0 39 25.5 89t70.5 95t104.5 75t126.5 30h285 q66 0 127 -28t109.5 -75t77 -110.5t28.5 -137.5v-790q0 -53 -23.5 -106.5t-63.5 -95.5t-95.5 -67.5t-118.5 -25.5q-98 0 -174 49q-66 -49 -170 -49q-63 0 -119.5 24.5t-98.5 64.5t-66.5 93.5t-24.5 112.5zM348 305q0 -10 8.5 -19.5t20.5 -9.5q33 0 33 31v342h-23 q-39 0 -39 -35v-309z" />
<glyph unicode="A" horiz-adv-x="1030" d="M39 141v19q0 20 8 28l336 1147q16 53 51 77t86 24q49 0 83 -22.5t46 -70.5l338 -1167l4 -33q0 -55 -38 -99t-97 -44q-104 0 -135 100l-55 187h-301l-62 -199q-4 -27 -34.5 -57.5t-90.5 -30.5q-61 0 -100 41t-39 100zM449 567h135l-66 232z" />
<glyph unicode="B" horiz-adv-x="1103" d="M78 0v1305l125 131h444q78 0 148.5 -31t124 -84t85 -125t31.5 -154v-69q0 -78 -21.5 -138.5t-70.5 -115.5q92 -111 92 -254v-74q0 -80 -30.5 -151.5t-84 -125t-124 -84t-150.5 -30.5h-569zM358 279h283q47 0 82 33.5t35 80.5v68q0 49 -34 81.5t-83 32.5h-283v-296z M358 862h283q47 0 82 33t35 80v67q0 51 -35 83t-82 32h-283v-295z" />
<glyph unicode="C" horiz-adv-x="1073" d="M45 717q0 109 41 188l197 371q18 33 47.5 62.5t63.5 51t70 34t66 12.5h334q53 0 95 -42t42 -96q0 -27 -11 -52t-30.5 -45.5t-44 -33t-51.5 -12.5h-311q-16 0 -25 -16l-186 -346q-10 -16 -13 -36t-3 -38q0 -41 18 -80l176 -340q10 -23 33 -23h303q53 0 97 -37.5t44 -99.5 q0 -59 -41 -99t-100 -40h-313q-37 0 -76 11.5t-74 31.5t-63.5 48t-46.5 61l-195 376q-25 47 -34 93.5t-9 95.5z" />
<glyph unicode="D" horiz-adv-x="1073" d="M72 139q0 49 40 94.5t101 45.5h33v876h-31q-59 0 -99 44t-40 99q0 59 42 98.5t95 39.5h334q72 0 145.5 -48.5t120.5 -121.5l164 -334q25 -51 39 -103.5t14 -111.5q0 -109 -57 -217l-164 -332q-39 -74 -111.5 -121t-162.5 -47h-322q-53 0 -97 38t-44 101zM522 276h6 q10 0 25.5 20.5t28.5 45.5l147 289q10 23 15.5 46t7.5 40q0 41 -17 78l-174 340q-12 20 -39 20v-879z" />
<glyph unicode="E" d="M78 0v1296l141 140h674q55 0 97 -40t42 -100q0 -27 -11 -52t-29.5 -44.5t-44 -32t-52.5 -12.5h-541v-297h203q57 0 97 -42t40 -95q0 -33 -13 -59.5t-32.5 -45t-44 -28.5t-47.5 -10h-203v-302h541q53 0 95 -38.5t42 -98.5q0 -61 -40 -100t-99 -39h-815z" />
<glyph unicode="F" horiz-adv-x="1038" d="M76 139v1159l139 138h676q59 0 99 -42t40 -96q0 -27 -11 -52t-30.5 -45.5t-44 -33t-51.5 -12.5h-541v-151h373q53 0 95 -41t42 -97q0 -59 -41 -100t-96 -41h-373v-586q0 -57 -39 -98t-98 -41t-99 40t-40 99z" />
<glyph unicode="G" horiz-adv-x="1089" d="M55 307v463q0 137 84 246l244 313q31 41 91.5 74t127.5 33h277q59 0 100 -39t41 -99q0 -29 -12.5 -54t-32 -45.5t-45 -32t-51.5 -11.5h-263q-12 0 -24 -16l-240 -303q-14 -29 -14 -64v-465q0 -31 29 -31h340q12 0 21 8.5t9 22.5v125h-119q-27 0 -52 11.5t-44.5 30t-32 43 t-12.5 52.5q0 59 40 100.5t99 41.5h398v-404q0 -66 -24.5 -122t-66.5 -97t-97.5 -64.5t-118.5 -23.5h-340q-66 0 -122.5 24.5t-98.5 66.5t-66.5 97.5t-24.5 118.5z" />
<glyph unicode="H" horiz-adv-x="1114" d="M78 137v1161q0 20 9 44t27.5 44.5t44 35t60.5 14.5q27 0 52.5 -11.5t45 -31t30.5 -44t11 -51.5v-440h400v440q0 53 40 95.5t99 42.5t98 -42t39 -98v-1157q0 -59 -42 -99t-95 -40q-59 0 -99 40t-40 99v443h-400v-443q0 -55 -39.5 -97t-99.5 -42q-59 0 -100 41t-41 96z" />
<glyph unicode="I" horiz-adv-x="1103" d="M74 139q0 59 41 98t96 39h205v879h-203q-55 0 -97 40t-42 99t39 100.5t98 41.5h680q55 0 97 -39t42 -99q0 -29 -11 -54t-30.5 -44.5t-44 -32t-51.5 -12.5h-201v-879h199q61 0 100 -40.5t39 -96.5q0 -61 -42 -100t-97 -39h-678q-59 0 -99 40t-40 99z" />
<glyph unicode="J" horiz-adv-x="884" d="M20 307v266q0 59 39 99.5t99 40.5q55 0 98 -41t43 -97v-268q0 -14 9 -21t22 -7h168q33 0 32 30v989q0 59 38 98.5t98 39.5q29 0 55.5 -13.5t45.5 -33t30.5 -45t11.5 -50.5v-987q0 -63 -26.5 -119.5t-69.5 -97.5t-99.5 -65.5t-115.5 -24.5h-168q-66 0 -122 24.5t-97 66.5 t-66 97.5t-25 118.5z" />
<glyph unicode="K" horiz-adv-x="1112" d="M78 137v1157q0 59 39 100.5t98 41.5q55 0 97 -41t42 -97v-278l449 381q41 35 94 35q61 0 100 -45t39 -95q0 -59 -45 -98l-559 -477l559 -483q43 -37 43 -95q0 -55 -39 -99t-98 -44t-98 35l-445 385v-281q0 -61 -41 -100t-96 -39q-61 0 -100 41t-39 96z" />
<glyph unicode="L" horiz-adv-x="1042" d="M78 0v1298q0 53 40 95.5t99 42.5t98 -42t39 -96v-1022h539q59 0 99 -38.5t40 -98.5q0 -61 -40 -100t-99 -39h-815z" />
<glyph unicode="M" horiz-adv-x="1114" d="M76 139v1166l125 131h176l180 -260l182 260h295v-1297q0 -59 -40 -99t-99 -40q-53 0 -96 41t-43 96v838l-62 -86v-29q0 -59 -41 -99t-94 -40q-61 0 -100 43t-39 96v27l-64 88v-836q0 -49 -36.5 -94t-102.5 -45q-53 0 -97 38t-44 101z" />
<glyph unicode="N" horiz-adv-x="1110" d="M78 139v1176l121 121h192l361 -774v632q0 55 39.5 98.5t99.5 43.5q61 0 101 -40t40 -100v-1204l-98 -92h-219l-361 766v-627q0 -57 -39 -98t-98 -41t-99 40t-40 99z" />
<glyph unicode="O" horiz-adv-x="1042" d="M45 694q0 59 8 110.5t33 100.5l184 379q82 152 252 152q174 0 248 -152l184 -379q23 -45 34 -90t11 -98q0 -57 -10 -100.5t-35 -90.5l-184 -374q-74 -152 -248 -152q-86 0 -149.5 42t-102.5 110l-184 374q-18 37 -29.5 79t-11.5 89zM324 717q0 -20 4 -41t14 -39l180 -361 l178 361q20 39 21 82q0 41 -19 78l-180 364l-182 -362q-16 -61 -16 -82z" />
<glyph unicode="P" horiz-adv-x="1054" d="M76 137v1149l141 150h510q57 0 112.5 -23.5t98.5 -64.5t68.5 -97.5t25.5 -122.5v-315q0 -63 -24.5 -119.5t-65.5 -97.5t-97.5 -65.5t-117.5 -24.5h-371v-367q0 -31 -13 -56.5t-32.5 -44t-44 -28.5t-49.5 -10q-61 0 -101 41t-40 96zM356 784h371q10 0 19.5 10.5t9.5 20.5 v313q0 10 -9.5 18.5t-21.5 8.5h-369v-371z" />
<glyph unicode="Q" horiz-adv-x="1081" d="M51 262v469q0 43 1 80t10.5 70.5t29 64.5t55.5 62l416 356q84 72 180 72q55 0 103.5 -21.5t84.5 -55.5t56.5 -79t20.5 -90v-514q0 -174 -144 -295l-82 -70l15 -35h73q55 0 97.5 -38.5t42.5 -98.5q0 -61 -40 -100t-100 -39h-266l-49 121l-53 -45q-45 -35 -89 -55.5 t-94 -20.5q-55 0 -104 19.5t-86 54.5t-57.5 83t-20.5 105zM330 276l59 58q10 10 25.5 24.5t34.5 36.5l-41 111q-14 27 -15 69q0 20 8.5 44t25.5 43.5t43 33t62 13.5q96 0 127 -82l17 -41l35 35q18 25 18 57v452l-340 -280q-23 -18 -34 -31.5t-17 -29t-7 -35t-1 -45.5v-433z " />
<glyph unicode="R" horiz-adv-x="1101" d="M76 139v1135l157 162h494q68 0 124 -23.5t96 -64.5t62.5 -97.5t22.5 -122.5v-96q0 -68 -25.5 -124t-67.5 -97t-97.5 -63.5t-114.5 -22.5h-12l295 -508q10 -16 16 -35.5t6 -42.5q0 -53 -40 -96t-99 -43q-82 0 -125 72l-377 653h-35v-586q0 -61 -42 -100t-97 -39 q-59 0 -100 40t-41 99zM356 999h371q10 0 19.5 10.5t9.5 22.5v96q0 10 -9.5 18.5t-21.5 8.5h-369v-156z" />
<glyph unicode="S" horiz-adv-x="1091" d="M66 272q0 147 143 148q59 0 97 -38t38 -97l4 -6h365l-590 753q-55 76 -55 156q0 51 19 97t53 79t78 52.5t93 19.5h437q49 0 98 -20.5t89 -58.5t65.5 -91.5t25.5 -116.5q0 -29 -12.5 -53.5t-31.5 -43t-44 -29.5t-47 -11q-55 0 -83 22.5t-41 49t-18.5 49t-13.5 22.5h-346 l580 -754q29 -35 43 -71.5t14 -79.5q0 -53 -20.5 -98.5t-53 -79t-73.5 -53t-82 -19.5h-453q-59 0 -109.5 24.5t-88 62.5t-59 87t-21.5 98z" />
<glyph unicode="T" horiz-adv-x="1026" d="M35 1153v147l137 136h817v-285q0 -53 -37 -94t-102 -41q-53 0 -96 38t-43 97v6h-64v-1018q0 -59 -38 -99t-97 -40q-61 0 -101 42t-40 95v1020h-60q0 -61 -43 -100t-96 -39t-95 37t-42 98z" />
<glyph unicode="U" d="M74 307v987q0 27 10 52.5t28.5 45t44 32t54.5 12.5q59 0 99 -41t40 -97v-991q0 -29 31 -28h344q27 0 27 28v987q0 59 42 100.5t95 41.5q61 0 101 -40t40 -100v-989q0 -59 -23.5 -114.5t-64.5 -98.5t-97.5 -68.5t-119.5 -25.5h-344q-63 0 -118.5 23.5t-97.5 64.5 t-66.5 97.5t-24.5 121.5z" />
<glyph unicode="V" horiz-adv-x="1044" d="M45 975v319q0 59 40 100.5t99 41.5q57 0 99.5 -43t42.5 -97v-264l198 -510l201 510v262q0 59 38 100.5t97 41.5t100 -40t41 -100v-321l-346 -879q-37 -96 -131 -96q-61 0 -88.5 24.5t-46.5 71.5z" />
<glyph unicode="W" horiz-adv-x="1107" d="M74 276v1018q0 59 41 100.5t100 41.5q53 0 94 -40t41 -100v-979l25 -41h10l31 46v540q0 61 42 99t95 38q57 0 98 -42t41 -95v-543l27 -43h8l25 46v972q0 53 41 97.5t100 44.5t99 -42t40 -96v-1019q-4 -18 -9 -38t-19 -42l-78 -129q-45 -70 -119 -70h-160q-63 0 -96 27 q-35 -27 -90 -27h-150q-94 0 -139 74l-72 121q-27 45 -26 81z" />
<glyph unicode="X" d="M72 137q0 16 5 37t17 41l295 502l-289 502q-26 28 -26 77q0 18 6 41t21.5 44.5t41 38t66.5 16.5q82 0 123 -68l221 -373l221 373q39 68 117 68q59 0 100 -39t41 -99q-2 -16 -6 -34.5t-14 -36.5l-297 -506l295 -510q20 -27 20 -72q0 -55 -37 -97t-102 -42q-78 0 -119 66 l-223 376l-217 -374q-41 -66 -117 -66q-61 0 -102 41t-41 94z" />
<glyph unicode="Y" horiz-adv-x="1028" d="M37 1100v194q0 59 40 100.5t99 41.5q29 0 54.5 -11.5t45 -31t30.5 -45t11 -52.5v-96l199 -256l201 254v96q0 53 34.5 97.5t100.5 44.5q51 0 95 -37t44 -103v-196l-338 -430v-531q0 -57 -39 -98t-98 -41t-100 41t-41 96v533z" />
<glyph unicode="Z" horiz-adv-x="1107" d="M76 0v178l573 977h-436q-29 0 -54.5 12.5t-44 33t-28.5 46t-10 51.5q0 59 39 98.5t98 39.5h819v-176l-575 -984h436q33 0 58.5 -12t44 -32.5t27.5 -44t9 -48.5q0 -27 -11 -52.5t-30.5 -44.5t-44 -30.5t-51.5 -11.5h-819z" />
<glyph unicode="[" horiz-adv-x="851" d="M66 139v1159q0 29 13 54.5t33.5 44t47 30t55.5 11.5h426q57 0 98 -42t41 -98q0 -23 -9 -47t-26.5 -44.5t-43 -35t-58.5 -14.5h-283v-878h281q59 0 99 -41t40 -95q0 -63 -41 -102t-98 -39h-424q-27 0 -54.5 11.5t-49 29.5t-34.5 43t-13 53z" />
<glyph unicode="\" horiz-adv-x="976" d="M12 1298q0 33 14.5 58.5t36 43t46 27t47.5 9.5q63 0 100 -52l678 -1159q14 -25 22.5 -47t8.5 -41q0 -63 -46.5 -101t-95.5 -38q-72 0 -100 51l-680 1163q-12 23 -21.5 43.5t-9.5 42.5z" />
<glyph unicode="]" horiz-adv-x="847" d="M70 1296q0 27 11 52.5t30.5 45t45 31t54.5 11.5h420q59 0 99 -39t40 -99v-1157q0 -66 -44 -102.5t-93 -36.5h-422q-59 0 -99 41t-40 100q0 55 40 95.5t99 40.5h278v878h-278q-27 0 -52.5 10.5t-45 28.5t-31.5 44t-12 56z" />
<glyph unicode="`" horiz-adv-x="745" d="M74 1729q0 20 8 43.5t24.5 43t41 32t57.5 12.5q31 0 53 -15l340 -139q74 -37 74 -113q0 -51 -35 -91t-96 -40q-23 0 -56 13l-338 143q-74 33 -73 111z" />
<glyph unicode="a" horiz-adv-x="1030" d="M39 141v19q0 20 8 28l336 1147q16 53 51 77t86 24q49 0 83 -22.5t46 -70.5l338 -1167l4 -33q0 -55 -38 -99t-97 -44q-104 0 -135 100l-55 187h-301l-62 -199q-4 -27 -34.5 -57.5t-90.5 -30.5q-61 0 -100 41t-39 100zM449 567h135l-66 232z" />
<glyph unicode="b" horiz-adv-x="1103" d="M78 0v1305l125 131h444q78 0 148.5 -31t124 -84t85 -125t31.5 -154v-69q0 -78 -21.5 -138.5t-70.5 -115.5q92 -111 92 -254v-74q0 -80 -30.5 -151.5t-84 -125t-124 -84t-150.5 -30.5h-569zM358 279h283q47 0 82 33.5t35 80.5v68q0 49 -34 81.5t-83 32.5h-283v-296z M358 862h283q47 0 82 33t35 80v67q0 51 -35 83t-82 32h-283v-295z" />
<glyph unicode="c" horiz-adv-x="1073" d="M45 717q0 109 41 188l197 371q18 33 47.5 62.5t63.5 51t70 34t66 12.5h334q53 0 95 -42t42 -96q0 -27 -11 -52t-30.5 -45.5t-44 -33t-51.5 -12.5h-311q-16 0 -25 -16l-186 -346q-10 -16 -13 -36t-3 -38q0 -41 18 -80l176 -340q10 -23 33 -23h303q53 0 97 -37.5t44 -99.5 q0 -59 -41 -99t-100 -40h-313q-37 0 -76 11.5t-74 31.5t-63.5 48t-46.5 61l-195 376q-25 47 -34 93.5t-9 95.5z" />
<glyph unicode="d" horiz-adv-x="1073" d="M72 139q0 49 40 94.5t101 45.5h33v876h-31q-59 0 -99 44t-40 99q0 59 42 98.5t95 39.5h334q72 0 145.5 -48.5t120.5 -121.5l164 -334q25 -51 39 -103.5t14 -111.5q0 -109 -57 -217l-164 -332q-39 -74 -111.5 -121t-162.5 -47h-322q-53 0 -97 38t-44 101zM522 276h6 q10 0 25.5 20.5t28.5 45.5l147 289q10 23 15.5 46t7.5 40q0 41 -17 78l-174 340q-12 20 -39 20v-879z" />
<glyph unicode="e" d="M78 0v1296l141 140h674q55 0 97 -40t42 -100q0 -27 -11 -52t-29.5 -44.5t-44 -32t-52.5 -12.5h-541v-297h203q57 0 97 -42t40 -95q0 -33 -13 -59.5t-32.5 -45t-44 -28.5t-47.5 -10h-203v-302h541q53 0 95 -38.5t42 -98.5q0 -61 -40 -100t-99 -39h-815z" />
<glyph unicode="f" horiz-adv-x="1038" d="M76 139v1159l139 138h676q59 0 99 -42t40 -96q0 -27 -11 -52t-30.5 -45.5t-44 -33t-51.5 -12.5h-541v-151h373q53 0 95 -41t42 -97q0 -59 -41 -100t-96 -41h-373v-586q0 -57 -39 -98t-98 -41t-99 40t-40 99z" />
<glyph unicode="g" horiz-adv-x="1089" d="M55 307v463q0 137 84 246l244 313q31 41 91.5 74t127.5 33h277q59 0 100 -39t41 -99q0 -29 -12.5 -54t-32 -45.5t-45 -32t-51.5 -11.5h-263q-12 0 -24 -16l-240 -303q-14 -29 -14 -64v-465q0 -31 29 -31h340q12 0 21 8.5t9 22.5v125h-119q-27 0 -52 11.5t-44.5 30t-32 43 t-12.5 52.5q0 59 40 100.5t99 41.5h398v-404q0 -66 -24.5 -122t-66.5 -97t-97.5 -64.5t-118.5 -23.5h-340q-66 0 -122.5 24.5t-98.5 66.5t-66.5 97.5t-24.5 118.5z" />
<glyph unicode="h" horiz-adv-x="1114" d="M78 137v1161q0 20 9 44t27.5 44.5t44 35t60.5 14.5q27 0 52.5 -11.5t45 -31t30.5 -44t11 -51.5v-440h400v440q0 53 40 95.5t99 42.5t98 -42t39 -98v-1157q0 -59 -42 -99t-95 -40q-59 0 -99 40t-40 99v443h-400v-443q0 -55 -39.5 -97t-99.5 -42q-59 0 -100 41t-41 96z" />
<glyph unicode="i" horiz-adv-x="1103" d="M74 139q0 59 41 98t96 39h205v879h-203q-55 0 -97 40t-42 99t39 100.5t98 41.5h680q55 0 97 -39t42 -99q0 -29 -11 -54t-30.5 -44.5t-44 -32t-51.5 -12.5h-201v-879h199q61 0 100 -40.5t39 -96.5q0 -61 -42 -100t-97 -39h-678q-59 0 -99 40t-40 99z" />
<glyph unicode="j" horiz-adv-x="884" d="M20 307v266q0 59 39 99.5t99 40.5q55 0 98 -41t43 -97v-268q0 -14 9 -21t22 -7h168q33 0 32 30v989q0 59 38 98.5t98 39.5q29 0 55.5 -13.5t45.5 -33t30.5 -45t11.5 -50.5v-987q0 -63 -26.5 -119.5t-69.5 -97.5t-99.5 -65.5t-115.5 -24.5h-168q-66 0 -122 24.5t-97 66.5 t-66 97.5t-25 118.5z" />
<glyph unicode="k" horiz-adv-x="1112" d="M78 137v1157q0 59 39 100.5t98 41.5q55 0 97 -41t42 -97v-278l449 381q41 35 94 35q61 0 100 -45t39 -95q0 -59 -45 -98l-559 -477l559 -483q43 -37 43 -95q0 -55 -39 -99t-98 -44t-98 35l-445 385v-281q0 -61 -41 -100t-96 -39q-61 0 -100 41t-39 96z" />
<glyph unicode="l" horiz-adv-x="1042" d="M78 0v1298q0 53 40 95.5t99 42.5t98 -42t39 -96v-1022h539q59 0 99 -38.5t40 -98.5q0 -61 -40 -100t-99 -39h-815z" />
<glyph unicode="m" horiz-adv-x="1114" d="M76 139v1166l125 131h176l180 -260l182 260h295v-1297q0 -59 -40 -99t-99 -40q-53 0 -96 41t-43 96v838l-62 -86v-29q0 -59 -41 -99t-94 -40q-61 0 -100 43t-39 96v27l-64 88v-836q0 -49 -36.5 -94t-102.5 -45q-53 0 -97 38t-44 101z" />
<glyph unicode="n" horiz-adv-x="1110" d="M78 139v1176l121 121h192l361 -774v632q0 55 39.5 98.5t99.5 43.5q61 0 101 -40t40 -100v-1204l-98 -92h-219l-361 766v-627q0 -57 -39 -98t-98 -41t-99 40t-40 99z" />
<glyph unicode="o" horiz-adv-x="1042" d="M45 694q0 59 8 110.5t33 100.5l184 379q82 152 252 152q174 0 248 -152l184 -379q23 -45 34 -90t11 -98q0 -57 -10 -100.5t-35 -90.5l-184 -374q-74 -152 -248 -152q-86 0 -149.5 42t-102.5 110l-184 374q-18 37 -29.5 79t-11.5 89zM324 717q0 -20 4 -41t14 -39l180 -361 l178 361q20 39 21 82q0 41 -19 78l-180 364l-182 -362q-16 -61 -16 -82z" />
<glyph unicode="p" horiz-adv-x="1054" d="M76 137v1149l141 150h510q57 0 112.5 -23.5t98.5 -64.5t68.5 -97.5t25.5 -122.5v-315q0 -63 -24.5 -119.5t-65.5 -97.5t-97.5 -65.5t-117.5 -24.5h-371v-367q0 -31 -13 -56.5t-32.5 -44t-44 -28.5t-49.5 -10q-61 0 -101 41t-40 96zM356 784h371q10 0 19.5 10.5t9.5 20.5 v313q0 10 -9.5 18.5t-21.5 8.5h-369v-371z" />
<glyph unicode="q" horiz-adv-x="1081" d="M51 262v469q0 43 1 80t10.5 70.5t29 64.5t55.5 62l416 356q84 72 180 72q55 0 103.5 -21.5t84.5 -55.5t56.5 -79t20.5 -90v-514q0 -174 -144 -295l-82 -70l15 -35h73q55 0 97.5 -38.5t42.5 -98.5q0 -61 -40 -100t-100 -39h-266l-49 121l-53 -45q-45 -35 -89 -55.5 t-94 -20.5q-55 0 -104 19.5t-86 54.5t-57.5 83t-20.5 105zM330 276l59 58q10 10 25.5 24.5t34.5 36.5l-41 111q-14 27 -15 69q0 20 8.5 44t25.5 43.5t43 33t62 13.5q96 0 127 -82l17 -41l35 35q18 25 18 57v452l-340 -280q-23 -18 -34 -31.5t-17 -29t-7 -35t-1 -45.5v-433z " />
<glyph unicode="r" horiz-adv-x="1101" d="M76 139v1135l157 162h494q68 0 124 -23.5t96 -64.5t62.5 -97.5t22.5 -122.5v-96q0 -68 -25.5 -124t-67.5 -97t-97.5 -63.5t-114.5 -22.5h-12l295 -508q10 -16 16 -35.5t6 -42.5q0 -53 -40 -96t-99 -43q-82 0 -125 72l-377 653h-35v-586q0 -61 -42 -100t-97 -39 q-59 0 -100 40t-41 99zM356 999h371q10 0 19.5 10.5t9.5 22.5v96q0 10 -9.5 18.5t-21.5 8.5h-369v-156z" />
<glyph unicode="s" horiz-adv-x="1091" d="M66 272q0 147 143 148q59 0 97 -38t38 -97l4 -6h365l-590 753q-55 76 -55 156q0 51 19 97t53 79t78 52.5t93 19.5h437q49 0 98 -20.5t89 -58.5t65.5 -91.5t25.5 -116.5q0 -29 -12.5 -53.5t-31.5 -43t-44 -29.5t-47 -11q-55 0 -83 22.5t-41 49t-18.5 49t-13.5 22.5h-346 l580 -754q29 -35 43 -71.5t14 -79.5q0 -53 -20.5 -98.5t-53 -79t-73.5 -53t-82 -19.5h-453q-59 0 -109.5 24.5t-88 62.5t-59 87t-21.5 98z" />
<glyph unicode="t" horiz-adv-x="1026" d="M35 1153v147l137 136h817v-285q0 -53 -37 -94t-102 -41q-53 0 -96 38t-43 97v6h-64v-1018q0 -59 -38 -99t-97 -40q-61 0 -101 42t-40 95v1020h-60q0 -61 -43 -100t-96 -39t-95 37t-42 98z" />
<glyph unicode="u" d="M74 307v987q0 27 10 52.5t28.5 45t44 32t54.5 12.5q59 0 99 -41t40 -97v-991q0 -29 31 -28h344q27 0 27 28v987q0 59 42 100.5t95 41.5q61 0 101 -40t40 -100v-989q0 -59 -23.5 -114.5t-64.5 -98.5t-97.5 -68.5t-119.5 -25.5h-344q-63 0 -118.5 23.5t-97.5 64.5 t-66.5 97.5t-24.5 121.5z" />
<glyph unicode="v" horiz-adv-x="1044" d="M45 975v319q0 59 40 100.5t99 41.5q57 0 99.5 -43t42.5 -97v-264l198 -510l201 510v262q0 59 38 100.5t97 41.5t100 -40t41 -100v-321l-346 -879q-37 -96 -131 -96q-61 0 -88.5 24.5t-46.5 71.5z" />
<glyph unicode="w" horiz-adv-x="1107" d="M74 276v1018q0 59 41 100.5t100 41.5q53 0 94 -40t41 -100v-979l25 -41h10l31 46v540q0 61 42 99t95 38q57 0 98 -42t41 -95v-543l27 -43h8l25 46v972q0 53 41 97.5t100 44.5t99 -42t40 -96v-1019q-4 -18 -9 -38t-19 -42l-78 -129q-45 -70 -119 -70h-160q-63 0 -96 27 q-35 -27 -90 -27h-150q-94 0 -139 74l-72 121q-27 45 -26 81z" />
<glyph unicode="x" d="M72 137q0 16 5 37t17 41l295 502l-289 502q-26 28 -26 77q0 18 6 41t21.5 44.5t41 38t66.5 16.5q82 0 123 -68l221 -373l221 373q39 68 117 68q59 0 100 -39t41 -99q-2 -16 -6 -34.5t-14 -36.5l-297 -506l295 -510q20 -27 20 -72q0 -55 -37 -97t-102 -42q-78 0 -119 66 l-223 376l-217 -374q-41 -66 -117 -66q-61 0 -102 41t-41 94z" />
<glyph unicode="y" horiz-adv-x="1028" d="M37 1100v194q0 59 40 100.5t99 41.5q29 0 54.5 -11.5t45 -31t30.5 -45t11 -52.5v-96l199 -256l201 254v96q0 53 34.5 97.5t100.5 44.5q51 0 95 -37t44 -103v-196l-338 -430v-531q0 -57 -39 -98t-98 -41t-100 41t-41 96v533z" />
<glyph unicode="z" horiz-adv-x="1107" d="M76 0v178l573 977h-436q-29 0 -54.5 12.5t-44 33t-28.5 46t-10 51.5q0 59 39 98.5t98 39.5h819v-176l-575 -984h436q33 0 58.5 -12t44 -32.5t27.5 -44t9 -48.5q0 -27 -11 -52.5t-30.5 -44.5t-44 -30.5t-51.5 -11.5h-819z" />
<glyph unicode="{" horiz-adv-x="1042" d="M16 719q0 66 43 102.5t97 36.5h168q12 0 21 12.5t9 22.5v324q0 43 18.5 82.5t49.5 70.5t70.5 48.5t85.5 17.5h256q59 0 98 -42t39 -96q0 -59 -39 -100t-98 -41h-201v-270q0 -102 -51 -168q51 -70 51 -168v-272h201q31 0 56 -12.5t42.5 -32t28 -43t10.5 -48.5 q0 -57 -39 -99t-98 -42h-256q-45 0 -86 18.5t-72 49t-48.5 70.5t-17.5 83v322q0 10 -10 23.5t-20 13.5h-168q-59 0 -99.5 38.5t-40.5 98.5z" />
<glyph unicode="|" horiz-adv-x="436" d="M76 141v1157q0 59 41 98.5t102 39.5q49 0 92 -38t43 -100v-1157q0 -57 -40 -99t-99 -42q-55 0 -97 41t-42 100z" />
<glyph unicode="}" horiz-adv-x="1042" d="M72 141q0 55 41 96.5t100 41.5h201v272q0 92 47 168q-23 31 -35 75t-12 91v272h-201q-53 0 -97 38t-44 103q0 53 40 95.5t101 42.5h254q47 0 88 -19.5t70.5 -51.5t47 -71t17.5 -77v-328q0 -8 9.5 -19.5t23.5 -11.5h166q61 0 100 -44t39 -93q0 -66 -45 -104.5t-94 -38.5 h-166q-14 0 -23.5 -10.5t-9.5 -24.5v-322q0 -41 -17.5 -81t-48 -70.5t-71.5 -49t-86 -18.5h-254q-53 0 -97 38t-44 101z" />
<glyph unicode="~" horiz-adv-x="1089" d="M61 641q0 76 68 117l150 92q29 23 73 22h58q29 0 39 -6l247 -86l117 70q16 10 34.5 17t39.5 7q31 0 56.5 -13t45 -33.5t30.5 -45t11 -49.5q0 -78 -72 -119l-153 -92q-41 -23 -68 -22h-55q-10 0 -45 10l-246 82l-117 -70q-39 -23 -71 -22q-55 0 -98.5 43t-43.5 98z" />
<glyph unicode="&#xa1;" horiz-adv-x="501" d="M68 141l43 652q0 53 42 94t95 41q49 0 93 -35t48 -100l41 -652q0 -53 -36 -98t-101 -45h-86q-59 0 -99 42t-40 101zM72 1225v71q0 27 11 52.5t30.5 45t45 31t52.5 11.5h82q59 0 101 -41t42 -95v-75q0 -55 -43 -97.5t-98 -42.5h-84q-25 0 -49.5 10.5t-44 29t-32.5 44 t-13 56.5z" />
<glyph unicode="&#xa3;" horiz-adv-x="1122" d="M37 139q0 55 40 94t95 43v494q0 137 80 246l246 313q31 41 92 74t127 33h108q27 0 51.5 -11.5t44 -30t32 -44t12.5 -52.5q0 -29 -12.5 -54t-32 -44.5t-44 -32t-51.5 -12.5h-92q-14 0 -26 -16l-234 -297h350q55 0 96.5 -42t41.5 -95q0 -61 -42 -101.5t-96 -40.5h-370v-287 h471q59 0 98 -40.5t39 -96.5q0 -66 -42 -102.5t-95 -36.5h-750q-55 0 -96 40t-41 99z" />
<glyph unicode="&#xa8;" horiz-adv-x="886" d="M74 1642v103q0 41 28.5 69.5t69.5 28.5h121q41 0 69.5 -28.5t28.5 -67.5v-105q0 -35 -28.5 -64.5t-69.5 -29.5h-121q-41 0 -69.5 29t-28.5 65zM496 1642v103q0 41 28.5 69.5t69.5 28.5h121q35 0 66.5 -27.5t31.5 -68.5v-105q0 -37 -27.5 -65.5t-68.5 -28.5h-123 q-41 0 -69.5 29t-28.5 65z" />
<glyph unicode="&#xa9;" horiz-adv-x="1404" d="M76 217v1002q0 45 17.5 83.5t47 68.5t69.5 47.5t85 17.5h819q43 0 82 -17.5t68.5 -48.5t46 -69.5t16.5 -81.5v-1002q0 -45 -17.5 -84t-46 -68.5t-68.5 -47t-83 -17.5h-817q-98 0 -158.5 62.5t-60.5 154.5zM354 276h215q-43 20 -80.5 52t-60.5 73l-74 103v-228zM354 834 q6 10 10.5 23t12.5 28l65 125q23 47 66 87t102 58h-256v-321zM618 696q0 -23 9.5 -52.5t23 -56t27.5 -44t22 -17.5h179q27 0 52 -11t44.5 -29.5t32 -44t12.5 -54.5q0 -72 -57 -111h90v879h-101q37 -16 59.5 -49t22.5 -74q0 -29 -11 -55.5t-29.5 -46t-43 -31.5t-51.5 -12 q-86 0 -145.5 -2t-67.5 -15l-51 -100q-10 -18 -12 -36.5t-5 -37.5z" />
<glyph unicode="&#xab;" horiz-adv-x="1243" d="M57 686v64q0 82 78 129l311 182q23 10 42.5 17t41.5 7q53 0 95.5 -37.5t42.5 -99.5q0 -41 -15 -67l308 180q23 12 41 18t40 6q53 0 97.5 -37.5t44.5 -99.5q0 -82 -66 -119l-188 -110l188 -113q63 -45 64 -117q0 -66 -46 -103.5t-106 -37.5q-16 0 -33.5 7t-35.5 18 l-312 184q18 -29 19 -68q0 -66 -48.5 -103.5t-103.5 -37.5q-16 0 -33.5 7t-36.5 18l-309 184q-80 43 -80 129zM416 719l178 -107q-20 27 -21 74v64q0 33 17 71z" />
<glyph unicode="&#xad;" horiz-adv-x="1097" d="M72 649v76q0 55 40 96t99 41h676q49 0 94 -35.5t45 -101.5v-76q0 -27 -11 -52.5t-30.5 -45t-44.5 -31.5t-51 -12h-678q-59 0 -99 41t-40 100z" />
<glyph unicode="&#xae;" horiz-adv-x="1404" d="M76 217v1002q0 45 17.5 83.5t47 68.5t69.5 47.5t85 17.5h819q43 0 82 -17.5t68.5 -48.5t46 -69.5t16.5 -81.5v-1002q0 -45 -17.5 -84t-46 -68.5t-68.5 -47t-83 -17.5h-817q-98 0 -158.5 62.5t-60.5 154.5zM354 276h166q-49 4 -79.5 41t-30.5 84v682l79 72h-135v-879z M541 276h333q-29 4 -43 19.5t-28 44.5l-148 244v-183q0 -53 -33.5 -85.5t-80.5 -39.5zM653 868h183q4 0 13 8.5t9 18.5v39q0 10 -8 17t-55 7h-142v-90zM922 625l92 -158q8 -14 13 -31.5t5 -36.5q0 -41 -27.5 -77.5t-74.5 -45.5h123v461q-43 -59 -84 -85.5t-47 -26.5z M989 1155l64 -63v63h-64z" />
<glyph unicode="&#xaf;" horiz-adv-x="845" d="M74 1675v54q0 43 29.5 71.5t70.5 28.5h496q39 0 70.5 -26.5t31.5 -73.5v-54q0 -41 -30.5 -72.5t-69.5 -31.5h-496q-43 0 -72.5 31.5t-29.5 72.5z" />
<glyph unicode="&#xb0;" horiz-adv-x="772" d="M66 1026v195q0 45 18 85t49 68.5t70 46t82 17.5h204q45 0 85 -18.5t69 -49.5t45.5 -69.5t16.5 -79.5v-195q0 -45 -17.5 -84t-46.5 -68.5t-67.5 -46t-84.5 -16.5h-204q-47 0 -87 16.5t-69 46t-46 68.5t-17 84zM344 1085h86v72h-86v-72z" />
<glyph unicode="&#xb4;" horiz-adv-x="745" d="M74 1593q0 76 73 113l338 139q27 14 56 15q61 0 96 -42t35 -89q0 -76 -72 -111l-340 -143q-29 -12 -57 -13q-55 0 -92 39t-37 92z" />
<glyph unicode="&#xb7;" horiz-adv-x="585" d="M68 608v144q0 61 43 99t96 38h170q53 0 96 -39t43 -98v-144q0 -53 -39 -97t-98 -44h-174q-59 0 -98 44t-39 97z" />
<glyph unicode="&#xb8;" horiz-adv-x="485" d="M74 -158q0 66 36.5 108t108.5 42h51q55 0 98.5 -41t43.5 -98q0 -10 -2 -20.5t-4 -16.5l-56 -191q-31 -102 -135 -102q-59 0 -100 37t-41 96v186z" />
<glyph unicode="&#xbb;" horiz-adv-x="1232" d="M57 483q0 78 66 119l188 117l-190 110q-63 39 -64 117q0 66 45 102.5t95 36.5q23 0 40 -6t39 -18l302 -174q-12 33 -13 59q0 63 45 101t95 38q23 0 41 -6t40 -18l314 -182q74 -47 74 -127v-66q0 -82 -74 -127l-314 -188q-45 -27 -81 -27q-25 0 -49.5 9t-44 27.5t-33 44.5 t-13.5 58q0 33 17 70l-303 -182q-45 -27 -82 -27q-25 0 -49.5 9t-44 26.5t-33 43.5t-13.5 60zM643 610l176 109l-168 100q14 -27 15 -67v-66q0 -35 -23 -76z" />
<glyph unicode="&#xbf;" horiz-adv-x="1007" d="M23 285v143q0 63 40 100l467 402v78q0 49 39 93t99 44q27 0 52 -11.5t44.5 -31t32 -44t12.5 -50.5v-142q0 -70 -47 -110l-461 -398v-10l31 -24l409 350q25 20 46.5 29.5t50.5 9.5q51 0 95 -38t44 -104t-43 -102l-516 -440q-35 -29 -86 -29q-59 0 -88 29l-172 149 q-49 37 -49 107zM532 1294q0 59 38 100.5t98 41.5q31 0 56.5 -12.5t44.5 -32t30.5 -44t11.5 -51.5q0 -29 -12.5 -54t-31.5 -44.5t-45 -31t-52 -11.5q-49 0 -93.5 39t-44.5 100z" />
<glyph unicode="&#xc0;" horiz-adv-x="1030" d="M39 141v19q0 20 8 28l336 1147q16 53 51 77t86 24q49 0 83 -22.5t46 -70.5l338 -1167l4 -33q0 -55 -38 -99t-97 -44q-104 0 -135 100l-55 187h-301l-62 -199q-4 -27 -34.5 -57.5t-90.5 -30.5q-61 0 -100 41t-39 100zM115 1729q0 20 8 43.5t24.5 43t41 32t57.5 12.5 q31 0 53 -15l340 -139q74 -37 74 -113q0 -51 -35 -91t-96 -40q-23 0 -56 13l-338 143q-74 33 -73 111zM449 567h135l-66 232z" />
<glyph unicode="&#xc1;" horiz-adv-x="1030" d="M39 141v19q0 20 8 28l336 1147q16 53 51 77t86 24q49 0 83 -22.5t46 -70.5l338 -1167l4 -33q0 -55 -38 -99t-97 -44q-104 0 -135 100l-55 187h-301l-62 -199q-4 -27 -34.5 -57.5t-90.5 -30.5q-61 0 -100 41t-39 100zM316 1593q0 76 73 113l338 139q27 14 56 15 q61 0 96 -42t35 -89q0 -76 -72 -111l-340 -143q-29 -12 -57 -13q-55 0 -92 39t-37 92zM449 567h135l-66 232z" />
<glyph unicode="&#xc2;" horiz-adv-x="1030" d="M39 141v19q0 20 8 28l336 1147q16 53 51 77t86 24q49 0 83 -22.5t46 -70.5l338 -1167l4 -33q0 -55 -38 -99t-97 -44q-104 0 -135 100l-55 187h-301l-62 -199q-4 -27 -34.5 -57.5t-90.5 -30.5q-61 0 -100 41t-39 100zM242 1587q0 16 3 33.5t17 36.5l146 207q18 29 43.5 46 t60.5 17t59.5 -16.5t47.5 -46.5l145 -205q20 -33 22 -66q0 -47 -34.5 -82.5t-83.5 -35.5q-37 0 -63.5 10t-55.5 47l-45 61l-43 -69q-35 -51 -98 -51q-49 0 -85 32.5t-36 81.5zM449 567h135l-66 232z" />
<glyph unicode="&#xc3;" horiz-adv-x="1030" d="M39 141v19q0 20 8 28l336 1147q16 53 51 77t86 24q49 0 83 -22.5t46 -70.5l338 -1167l4 -33q0 -55 -38 -99t-97 -44q-104 0 -135 100l-55 187h-301l-62 -199q-4 -27 -34.5 -57.5t-90.5 -30.5q-61 0 -100 41t-39 100zM176 1599q0 51 49 82l104 64q14 14 52 14h36 q20 0 31 -6l170 -57l84 49q10 6 24.5 10t24.5 6q47 0 74 -30.5t27 -69.5q0 -55 -45 -82l-111 -63q-27 -14 -49 -15h-37q-18 0 -31 6l-172 56l-80 -47q-20 -14 -53 -15q-41 0 -69.5 31t-28.5 67zM449 567h135l-66 232z" />
<glyph unicode="&#xc4;" horiz-adv-x="1030" d="M39 141v19q0 20 8 28l336 1147q16 53 51 77t86 24q49 0 83 -22.5t46 -70.5l338 -1167l4 -33q0 -55 -38 -99t-97 -44q-104 0 -135 100l-55 187h-301l-62 -199q-4 -27 -34.5 -57.5t-90.5 -30.5q-61 0 -100 41t-39 100zM170 1642v103q0 41 28.5 69.5t69.5 28.5h121 q41 0 69.5 -28.5t28.5 -67.5v-105q0 -35 -28.5 -64.5t-69.5 -29.5h-121q-41 0 -69.5 29t-28.5 65zM449 567h135l-66 232zM592 1642v103q0 41 28.5 69.5t69.5 28.5h121q35 0 66.5 -27.5t31.5 -68.5v-105q0 -37 -27.5 -65.5t-68.5 -28.5h-123q-41 0 -69.5 29t-28.5 65z" />
<glyph unicode="&#xc5;" horiz-adv-x="1030" d="M39 141v19q0 20 8 28l336 1147q16 53 51 77t86 24q49 0 83 -22.5t46 -70.5l338 -1167l4 -33q0 -55 -38 -99t-97 -44q-104 0 -135 100l-55 187h-301l-62 -199q-4 -27 -34.5 -57.5t-90.5 -30.5q-61 0 -100 41t-39 100zM332 1610v125q0 59 43 101t102 42h133 q29 0 54.5 -12.5t44 -33t30 -46t11.5 -51.5v-125q0 -27 -10.5 -52.5t-30 -46t-45 -33t-56.5 -12.5h-131q-66 0 -105.5 42t-39.5 102zM449 567h135l-66 232zM514 1647h55v47h-55v-47z" />
<glyph unicode="&#xc6;" horiz-adv-x="1527" d="M49 141q0 10 1 21.5t5 25.5l342 1147q33 100 138 101q96 0 129 -93l59 -200v153l137 140h453q27 0 52.5 -11.5t46 -31t31.5 -45t11 -52.5t-11 -52t-30.5 -44.5t-45.5 -32t-52 -12.5h-316v-297h113q57 0 98 -42t41 -95q0 -33 -12 -59.5t-32.5 -45t-44 -28.5t-48.5 -10 h-115v-302h316q53 0 96 -40.5t43 -96.5q0 -59 -44 -99t-97 -40h-453q-100 8 -125 100l-57 187h-301l-62 -199q-4 -25 -33.5 -56.5t-91.5 -31.5q-59 0 -100 41t-41 100zM461 567h137l-66 232z" />
<glyph unicode="&#xc7;" horiz-adv-x="1073" d="M45 717q0 109 41 188l197 371q18 33 47.5 62.5t63.5 51t70 34t66 12.5h334q53 0 95 -42t42 -96q0 -27 -11 -52t-30.5 -45.5t-44 -33t-51.5 -12.5h-311q-16 0 -25 -16l-186 -346q-10 -16 -13 -36t-3 -38q0 -41 18 -80l176 -340q10 -23 33 -23h303q53 0 97 -37.5t44 -99.5 q0 -59 -41 -99t-100 -40h-313q-37 0 -76 11.5t-74 31.5t-63.5 48t-46.5 61l-195 376q-25 47 -34 93.5t-9 95.5zM467 -158q0 66 36.5 108t108.5 42h51q55 0 98.5 -41t43.5 -98q0 -10 -2 -20.5t-4 -16.5l-56 -191q-31 -102 -135 -102q-59 0 -100 37t-41 96v186z" />
<glyph unicode="&#xc8;" d="M78 0v1296l141 140h674q55 0 97 -40t42 -100q0 -27 -11 -52t-29.5 -44.5t-44 -32t-52.5 -12.5h-541v-297h203q57 0 97 -42t40 -95q0 -33 -13 -59.5t-32.5 -45t-44 -28.5t-47.5 -10h-203v-302h541q53 0 95 -38.5t42 -98.5q0 -61 -40 -100t-99 -39h-815zM152 1729 q0 20 8 43.5t24.5 43t41 32t57.5 12.5q31 0 53 -15l340 -139q74 -37 74 -113q0 -51 -35 -91t-96 -40q-23 0 -56 13l-338 143q-74 33 -73 111z" />
<glyph unicode="&#xc9;" d="M78 0v1296l141 140h674q55 0 97 -40t42 -100q0 -27 -11 -52t-29.5 -44.5t-44 -32t-52.5 -12.5h-541v-297h203q57 0 97 -42t40 -95q0 -33 -13 -59.5t-32.5 -45t-44 -28.5t-47.5 -10h-203v-302h541q53 0 95 -38.5t42 -98.5q0 -61 -40 -100t-99 -39h-815zM353 1593 q0 76 73 113l338 139q27 14 56 15q61 0 96 -42t35 -89q0 -76 -72 -111l-340 -143q-29 -12 -57 -13q-55 0 -92 39t-37 92z" />
<glyph unicode="&#xca;" d="M78 0v1296l141 140h674q55 0 97 -40t42 -100q0 -27 -11 -52t-29.5 -44.5t-44 -32t-52.5 -12.5h-541v-297h203q57 0 97 -42t40 -95q0 -33 -13 -59.5t-32.5 -45t-44 -28.5t-47.5 -10h-203v-302h541q53 0 95 -38.5t42 -98.5q0 -61 -40 -100t-99 -39h-815zM281 1587 q0 16 3 33.5t17 36.5l146 207q18 29 43.5 46t60.5 17t59.5 -16.5t47.5 -46.5l145 -205q20 -33 22 -66q0 -47 -34.5 -82.5t-83.5 -35.5q-37 0 -63.5 10t-55.5 47l-45 61l-43 -69q-35 -51 -98 -51q-49 0 -85 32.5t-36 81.5z" />
<glyph unicode="&#xcb;" d="M78 0v1296l141 140h674q55 0 97 -40t42 -100q0 -27 -11 -52t-29.5 -44.5t-44 -32t-52.5 -12.5h-541v-297h203q57 0 97 -42t40 -95q0 -33 -13 -59.5t-32.5 -45t-44 -28.5t-47.5 -10h-203v-302h541q53 0 95 -38.5t42 -98.5q0 -61 -40 -100t-99 -39h-815zM183 1642v103 q0 41 28.5 69.5t69.5 28.5h121q41 0 69.5 -28.5t28.5 -67.5v-105q0 -35 -28.5 -64.5t-69.5 -29.5h-121q-41 0 -69.5 29t-28.5 65zM605 1642v103q0 41 28.5 69.5t69.5 28.5h121q35 0 66.5 -27.5t31.5 -68.5v-105q0 -37 -27.5 -65.5t-68.5 -28.5h-123q-41 0 -69.5 29t-28.5 65 z" />
<glyph unicode="&#xcc;" horiz-adv-x="1103" d="M74 139q0 59 41 98t96 39h205v879h-203q-55 0 -97 40t-42 99t39 100.5t98 41.5h680q55 0 97 -39t42 -99q0 -29 -11 -54t-30.5 -44.5t-44 -32t-51.5 -12.5h-201v-879h199q61 0 100 -40.5t39 -96.5q0 -61 -42 -100t-97 -39h-678q-59 0 -99 40t-40 99zM152 1729q0 20 8 43.5 t24.5 43t41 32t57.5 12.5q31 0 53 -15l340 -139q74 -37 74 -113q0 -51 -35 -91t-96 -40q-23 0 -56 13l-338 143q-74 33 -73 111z" />
<glyph unicode="&#xcd;" horiz-adv-x="1103" d="M74 139q0 59 41 98t96 39h205v879h-203q-55 0 -97 40t-42 99t39 100.5t98 41.5h680q55 0 97 -39t42 -99q0 -29 -11 -54t-30.5 -44.5t-44 -32t-51.5 -12.5h-201v-879h199q61 0 100 -40.5t39 -96.5q0 -61 -42 -100t-97 -39h-678q-59 0 -99 40t-40 99zM353 1593q0 76 73 113 l338 139q27 14 56 15q61 0 96 -42t35 -89q0 -76 -72 -111l-340 -143q-29 -12 -57 -13q-55 0 -92 39t-37 92z" />
<glyph unicode="&#xce;" horiz-adv-x="1103" d="M74 139q0 59 41 98t96 39h205v879h-203q-55 0 -97 40t-42 99t39 100.5t98 41.5h680q55 0 97 -39t42 -99q0 -29 -11 -54t-30.5 -44.5t-44 -32t-51.5 -12.5h-201v-879h199q61 0 100 -40.5t39 -96.5q0 -61 -42 -100t-97 -39h-678q-59 0 -99 40t-40 99zM279 1587q0 16 3 33.5 t17 36.5l146 207q18 29 43.5 46t60.5 17t59.5 -16.5t47.5 -46.5l145 -205q20 -33 22 -66q0 -47 -34.5 -82.5t-83.5 -35.5q-37 0 -63.5 10t-55.5 47l-45 61l-43 -69q-35 -51 -98 -51q-49 0 -85 32.5t-36 81.5z" />
<glyph unicode="&#xcf;" horiz-adv-x="1103" d="M74 139q0 59 41 98t96 39h205v879h-203q-55 0 -97 40t-42 99t39 100.5t98 41.5h680q55 0 97 -39t42 -99q0 -29 -11 -54t-30.5 -44.5t-44 -32t-51.5 -12.5h-201v-879h199q61 0 100 -40.5t39 -96.5q0 -61 -42 -100t-97 -39h-678q-59 0 -99 40t-40 99zM183 1642v103 q0 41 28.5 69.5t69.5 28.5h121q41 0 69.5 -28.5t28.5 -67.5v-105q0 -35 -28.5 -64.5t-69.5 -29.5h-121q-41 0 -69.5 29t-28.5 65zM605 1642v103q0 41 28.5 69.5t69.5 28.5h121q35 0 66.5 -27.5t31.5 -68.5v-105q0 -37 -27.5 -65.5t-68.5 -28.5h-123q-41 0 -69.5 29t-28.5 65 z" />
<glyph unicode="&#xd0;" horiz-adv-x="1073" d="M72 139q0 49 40 94.5t101 45.5h33v339h-58q-35 0 -57 25t-22 59v46q0 33 22.5 57t56.5 24h58v326h-31q-59 0 -99 44t-40 99q0 59 42 98.5t95 39.5h334q37 0 74.5 -12.5t73.5 -34t67 -53t51 -70.5l164 -334q25 -51 39 -103.5t14 -111.5q0 -109 -57 -217l-164 -332 q-41 -72 -112.5 -120t-161.5 -48h-322q-53 0 -97 38t-44 101zM522 276h6q16 0 33 25l168 330q10 23 16.5 46t6.5 40q0 41 -17 78l-174 340q-12 20 -39 20v-326h74q29 0 56.5 -20.5t27.5 -60.5v-46q0 -33 -25.5 -58.5t-58.5 -25.5h-74v-342z" />
<glyph unicode="&#xd1;" horiz-adv-x="1110" d="M78 139v1176l121 121h192l361 -774v632q0 55 39.5 98.5t99.5 43.5q61 0 101 -40t40 -100v-1204l-98 -92h-219l-361 766v-627q0 -57 -39 -98t-98 -41t-99 40t-40 99zM217 1599q0 51 49 82l104 64q14 14 52 14h36q20 0 31 -6l170 -57l84 49q10 6 24.5 10t24.5 6 q47 0 74 -30.5t27 -69.5q0 -55 -45 -82l-111 -63q-27 -14 -49 -15h-37q-18 0 -31 6l-172 56l-80 -47q-20 -14 -53 -15q-41 0 -69.5 31t-28.5 67z" />
<glyph unicode="&#xd2;" horiz-adv-x="1042" d="M45 694q0 59 8 110.5t33 100.5l184 379q82 152 252 152q174 0 248 -152l184 -379q23 -45 34 -90t11 -98q0 -57 -10 -100.5t-35 -90.5l-184 -374q-74 -152 -248 -152q-86 0 -149.5 42t-102.5 110l-184 374q-18 37 -29.5 79t-11.5 89zM123 1729q0 20 8 43.5t24.5 43t41 32 t57.5 12.5q31 0 53 -15l340 -139q74 -37 74 -113q0 -51 -35 -91t-96 -40q-23 0 -56 13l-338 143q-74 33 -73 111zM324 717q0 -20 4 -41t14 -39l180 -361l178 361q20 39 21 82q0 41 -19 78l-180 364l-182 -362q-16 -61 -16 -82z" />
<glyph unicode="&#xd3;" horiz-adv-x="1042" d="M45 694q0 59 8 110.5t33 100.5l184 379q82 152 252 152q174 0 248 -152l184 -379q23 -45 34 -90t11 -98q0 -57 -10 -100.5t-35 -90.5l-184 -374q-74 -152 -248 -152q-86 0 -149.5 42t-102.5 110l-184 374q-18 37 -29.5 79t-11.5 89zM322 1593q0 76 73 113l338 139 q27 14 56 15q61 0 96 -42t35 -89q0 -76 -72 -111l-340 -143q-29 -12 -57 -13q-55 0 -92 39t-37 92zM324 717q0 -20 4 -41t14 -39l180 -361l178 361q20 39 21 82q0 41 -19 78l-180 364l-182 -362q-16 -61 -16 -82z" />
<glyph unicode="&#xd4;" horiz-adv-x="1042" d="M45 694q0 59 8 110.5t33 100.5l184 379q82 152 252 152q174 0 248 -152l184 -379q23 -45 34 -90t11 -98q0 -57 -10 -100.5t-35 -90.5l-184 -374q-74 -152 -248 -152q-86 0 -149.5 42t-102.5 110l-184 374q-18 37 -29.5 79t-11.5 89zM248 1587q0 16 3 33.5t17 36.5 l146 207q18 29 43.5 46t60.5 17t59.5 -16.5t47.5 -46.5l145 -205q20 -33 22 -66q0 -47 -34.5 -82.5t-83.5 -35.5q-37 0 -63.5 10t-55.5 47l-45 61l-43 -69q-35 -51 -98 -51q-49 0 -85 32.5t-36 81.5zM324 717q0 -20 4 -41t14 -39l180 -361l178 361q20 39 21 82q0 41 -19 78 l-180 364l-182 -362q-16 -61 -16 -82z" />
<glyph unicode="&#xd5;" horiz-adv-x="1042" d="M45 694q0 59 8 110.5t33 100.5l184 379q82 152 252 152q174 0 248 -152l184 -379q23 -45 34 -90t11 -98q0 -57 -10 -100.5t-35 -90.5l-184 -374q-74 -152 -248 -152q-86 0 -149.5 42t-102.5 110l-184 374q-18 37 -29.5 79t-11.5 89zM183 1599q0 51 49 82l104 64 q14 14 52 14h36q20 0 31 -6l170 -57l84 49q10 6 24.5 10t24.5 6q47 0 74 -30.5t27 -69.5q0 -55 -45 -82l-111 -63q-27 -14 -49 -15h-37q-18 0 -31 6l-172 56l-80 -47q-20 -14 -53 -15q-41 0 -69.5 31t-28.5 67zM324 717q0 -20 4 -41t14 -39l180 -361l178 361q20 39 21 82 q0 41 -19 78l-180 364l-182 -362q-16 -61 -16 -82z" />
<glyph unicode="&#xd6;" horiz-adv-x="1042" d="M45 694q0 59 8 110.5t33 100.5l184 379q82 152 252 152q174 0 248 -152l184 -379q23 -45 34 -90t11 -98q0 -57 -10 -100.5t-35 -90.5l-184 -374q-74 -152 -248 -152q-86 0 -149.5 42t-102.5 110l-184 374q-18 37 -29.5 79t-11.5 89zM166 1642v103q0 41 28.5 69.5 t69.5 28.5h121q41 0 69.5 -28.5t28.5 -67.5v-105q0 -35 -28.5 -64.5t-69.5 -29.5h-121q-41 0 -69.5 29t-28.5 65zM324 717q0 -20 4 -41t14 -39l180 -361l178 361q20 39 21 82q0 41 -19 78l-180 364l-182 -362q-16 -61 -16 -82zM588 1642v103q0 41 28.5 69.5t69.5 28.5h121 q35 0 66.5 -27.5t31.5 -68.5v-105q0 -37 -27.5 -65.5t-68.5 -28.5h-123q-41 0 -69.5 29t-28.5 65z" />
<glyph unicode="&#xd8;" horiz-adv-x="1071" d="M53 133q0 23 5 43.5t22 48.5l94 158l-70 143q-43 74 -43 166q0 66 8.5 116t34.5 97l185 379q82 152 252 152q131 0 202 -84l19 32q31 51 102 52q27 0 52.5 -10.5t46 -29t33 -42t12.5 -49.5q0 -33 -7.5 -52.5t-23.5 -42.5l-82 -143l78 -162q23 -47 34 -93t11 -95 q0 -57 -10.5 -100.5t-34.5 -90.5l-185 -374q-76 -152 -247 -152q-70 0 -124.5 27.5t-90.5 70.5l-29 -49q-33 -51 -98 -51q-27 0 -52.5 9t-46 27.5t-34 43t-13.5 55.5zM342 717q0 -10 1 -19.5t1 -19.5l238 399l-41 80q-4 -4 -4 -6l-181 -352q-14 -55 -14 -82zM487 377 l54 -101l178 361q10 18 14 38.5t4 43.5q0 14 -2 30.5t-8 32.5z" />
<glyph unicode="&#xd9;" d="M74 307v987q0 27 10 52.5t28.5 45t44 32t54.5 12.5q59 0 99 -41t40 -97v-991q0 -29 31 -28h344q27 0 27 28v987q0 59 42 100.5t95 41.5q61 0 101 -40t40 -100v-989q0 -59 -23.5 -114.5t-64.5 -98.5t-97.5 -68.5t-119.5 -25.5h-344q-63 0 -118.5 23.5t-97.5 64.5 t-66.5 97.5t-24.5 121.5zM152 1729q0 20 8 43.5t24.5 43t41 32t57.5 12.5q31 0 53 -15l340 -139q74 -37 74 -113q0 -51 -35 -91t-96 -40q-23 0 -56 13l-338 143q-74 33 -73 111z" />
<glyph unicode="&#xda;" d="M74 307v987q0 27 10 52.5t28.5 45t44 32t54.5 12.5q59 0 99 -41t40 -97v-991q0 -29 31 -28h344q27 0 27 28v987q0 59 42 100.5t95 41.5q61 0 101 -40t40 -100v-989q0 -59 -23.5 -114.5t-64.5 -98.5t-97.5 -68.5t-119.5 -25.5h-344q-63 0 -118.5 23.5t-97.5 64.5 t-66.5 97.5t-24.5 121.5zM353 1593q0 76 73 113l338 139q27 14 56 15q61 0 96 -42t35 -89q0 -76 -72 -111l-340 -143q-29 -12 -57 -13q-55 0 -92 39t-37 92z" />
<glyph unicode="&#xdb;" d="M74 307v987q0 27 10 52.5t28.5 45t44 32t54.5 12.5q59 0 99 -41t40 -97v-991q0 -29 31 -28h344q27 0 27 28v987q0 59 42 100.5t95 41.5q61 0 101 -40t40 -100v-989q0 -59 -23.5 -114.5t-64.5 -98.5t-97.5 -68.5t-119.5 -25.5h-344q-63 0 -118.5 23.5t-97.5 64.5 t-66.5 97.5t-24.5 121.5zM281 1587q0 16 3 33.5t17 36.5l146 207q18 29 43.5 46t60.5 17t59.5 -16.5t47.5 -46.5l145 -205q20 -33 22 -66q0 -47 -34.5 -82.5t-83.5 -35.5q-37 0 -63.5 10t-55.5 47l-45 61l-43 -69q-35 -51 -98 -51q-49 0 -85 32.5t-36 81.5z" />
<glyph unicode="&#xdc;" d="M74 307v987q0 27 10 52.5t28.5 45t44 32t54.5 12.5q59 0 99 -41t40 -97v-991q0 -29 31 -28h344q27 0 27 28v987q0 59 42 100.5t95 41.5q61 0 101 -40t40 -100v-989q0 -59 -23.5 -114.5t-64.5 -98.5t-97.5 -68.5t-119.5 -25.5h-344q-63 0 -118.5 23.5t-97.5 64.5 t-66.5 97.5t-24.5 121.5zM183 1642v103q0 41 28.5 69.5t69.5 28.5h121q41 0 69.5 -28.5t28.5 -67.5v-105q0 -35 -28.5 -64.5t-69.5 -29.5h-121q-41 0 -69.5 29t-28.5 65zM605 1642v103q0 41 28.5 69.5t69.5 28.5h121q35 0 66.5 -27.5t31.5 -68.5v-105q0 -37 -27.5 -65.5 t-68.5 -28.5h-123q-41 0 -69.5 29t-28.5 65z" />
<glyph unicode="&#xdd;" horiz-adv-x="1028" d="M37 1100v194q0 59 40 100.5t99 41.5q29 0 54.5 -11.5t45 -31t30.5 -45t11 -52.5v-96l199 -256l201 254v96q0 53 34.5 97.5t100.5 44.5q51 0 95 -37t44 -103v-196l-338 -430v-531q0 -57 -39 -98t-98 -41t-100 41t-41 96v533zM316 1593q0 76 73 113l338 139q27 14 56 15 q61 0 96 -42t35 -89q0 -76 -72 -111l-340 -143q-29 -12 -57 -13q-55 0 -92 39t-37 92z" />
<glyph unicode="&#xde;" horiz-adv-x="1050" d="M78 137v1161q0 53 40 95.5t99 42.5q55 0 97 -42t42 -96v-127h373q59 0 114.5 -24.5t97.5 -66.5t66.5 -97t24.5 -119v-315q0 -63 -23.5 -118.5t-65.5 -97.5t-97 -65.5t-117 -23.5h-371v-105q0 -31 -13 -56.5t-32.5 -44t-44 -28.5t-49.5 -10q-61 0 -101 41t-40 96zM358 522 h371q10 0 19.5 9.5t9.5 19.5v313q0 8 -9.5 17.5t-21.5 9.5h-369v-369z" />
<glyph unicode="&#xdf;" horiz-adv-x="2183" d="M66 272q0 147 143 148q59 0 97 -38t38 -97l4 -6h365l-590 753q-55 76 -55 156q0 51 19 97t53 79t78 52.5t93 19.5h437q49 0 98 -20.5t89 -58.5t65.5 -91.5t25.5 -116.5q0 -29 -12.5 -53.5t-31.5 -43t-44 -29.5t-47 -11q-55 0 -83 22.5t-41 49t-18.5 49t-13.5 22.5h-346 l580 -754q29 -35 43 -71.5t14 -79.5q0 -53 -20.5 -98.5t-53 -79t-73.5 -53t-82 -19.5h-453q-59 0 -109.5 24.5t-88 62.5t-59 87t-21.5 98zM1158 272q0 147 143 148q59 0 97 -38t38 -97l4 -6h365l-590 753q-55 76 -55 156q0 51 19 97t53 79t78 52.5t93 19.5h437 q49 0 98 -20.5t89 -58.5t65.5 -91.5t25.5 -116.5q0 -29 -12.5 -53.5t-31.5 -43t-44 -29.5t-47 -11q-55 0 -83 22.5t-41 49t-18.5 49t-13.5 22.5h-346l580 -754q29 -35 43 -71.5t14 -79.5q0 -53 -20.5 -98.5t-53 -79t-73.5 -53t-82 -19.5h-453q-59 0 -109.5 24.5t-88 62.5 t-59 87t-21.5 98z" />
<glyph unicode="&#xe0;" horiz-adv-x="1030" d="M39 141v19q0 20 8 28l336 1147q16 53 51 77t86 24q49 0 83 -22.5t46 -70.5l338 -1167l4 -33q0 -55 -38 -99t-97 -44q-104 0 -135 100l-55 187h-301l-62 -199q-4 -27 -34.5 -57.5t-90.5 -30.5q-61 0 -100 41t-39 100zM115 1729q0 20 8 43.5t24.5 43t41 32t57.5 12.5 q31 0 53 -15l340 -139q74 -37 74 -113q0 -51 -35 -91t-96 -40q-23 0 -56 13l-338 143q-74 33 -73 111zM449 567h135l-66 232z" />
<glyph unicode="&#xe1;" horiz-adv-x="1030" d="M39 141v19q0 20 8 28l336 1147q16 53 51 77t86 24q49 0 83 -22.5t46 -70.5l338 -1167l4 -33q0 -55 -38 -99t-97 -44q-104 0 -135 100l-55 187h-301l-62 -199q-4 -27 -34.5 -57.5t-90.5 -30.5q-61 0 -100 41t-39 100zM316 1593q0 76 73 113l338 139q27 14 56 15 q61 0 96 -42t35 -89q0 -76 -72 -111l-340 -143q-29 -12 -57 -13q-55 0 -92 39t-37 92zM449 567h135l-66 232z" />
<glyph unicode="&#xe2;" horiz-adv-x="1030" d="M39 141v19q0 20 8 28l336 1147q16 53 51 77t86 24q49 0 83 -22.5t46 -70.5l338 -1167l4 -33q0 -55 -38 -99t-97 -44q-104 0 -135 100l-55 187h-301l-62 -199q-4 -27 -34.5 -57.5t-90.5 -30.5q-61 0 -100 41t-39 100zM242 1587q0 16 3 33.5t17 36.5l146 207q18 29 43.5 46 t60.5 17t59.5 -16.5t47.5 -46.5l145 -205q20 -33 22 -66q0 -47 -34.5 -82.5t-83.5 -35.5q-37 0 -63.5 10t-55.5 47l-45 61l-43 -69q-35 -51 -98 -51q-49 0 -85 32.5t-36 81.5zM449 567h135l-66 232z" />
<glyph unicode="&#xe3;" horiz-adv-x="1030" d="M39 141v19q0 20 8 28l336 1147q16 53 51 77t86 24q49 0 83 -22.5t46 -70.5l338 -1167l4 -33q0 -55 -38 -99t-97 -44q-104 0 -135 100l-55 187h-301l-62 -199q-4 -27 -34.5 -57.5t-90.5 -30.5q-61 0 -100 41t-39 100zM176 1599q0 51 49 82l104 64q14 14 52 14h36 q20 0 31 -6l170 -57l84 49q10 6 24.5 10t24.5 6q47 0 74 -30.5t27 -69.5q0 -55 -45 -82l-111 -63q-27 -14 -49 -15h-37q-18 0 -31 6l-172 56l-80 -47q-20 -14 -53 -15q-41 0 -69.5 31t-28.5 67zM449 567h135l-66 232z" />
<glyph unicode="&#xe4;" horiz-adv-x="1030" d="M39 141v19q0 20 8 28l336 1147q16 53 51 77t86 24q49 0 83 -22.5t46 -70.5l338 -1167l4 -33q0 -55 -38 -99t-97 -44q-104 0 -135 100l-55 187h-301l-62 -199q-4 -27 -34.5 -57.5t-90.5 -30.5q-61 0 -100 41t-39 100zM170 1642v103q0 41 28.5 69.5t69.5 28.5h121 q41 0 69.5 -28.5t28.5 -67.5v-105q0 -35 -28.5 -64.5t-69.5 -29.5h-121q-41 0 -69.5 29t-28.5 65zM449 567h135l-66 232zM592 1642v103q0 41 28.5 69.5t69.5 28.5h121q35 0 66.5 -27.5t31.5 -68.5v-105q0 -37 -27.5 -65.5t-68.5 -28.5h-123q-41 0 -69.5 29t-28.5 65z" />
<glyph unicode="&#xe5;" horiz-adv-x="1030" d="M39 141v19q0 20 8 28l336 1147q16 53 51 77t86 24q49 0 83 -22.5t46 -70.5l338 -1167l4 -33q0 -55 -38 -99t-97 -44q-104 0 -135 100l-55 187h-301l-62 -199q-4 -27 -34.5 -57.5t-90.5 -30.5q-61 0 -100 41t-39 100zM332 1610v125q0 59 43 101t102 42h133 q29 0 54.5 -12.5t44 -33t30 -46t11.5 -51.5v-125q0 -27 -10.5 -52.5t-30 -46t-45 -33t-56.5 -12.5h-131q-66 0 -105.5 42t-39.5 102zM449 567h135l-66 232zM514 1647h55v47h-55v-47z" />
<glyph unicode="&#xe6;" horiz-adv-x="1527" d="M49 141q0 10 1 21.5t5 25.5l342 1147q33 100 138 101q96 0 129 -93l59 -200v153l137 140h453q27 0 52.5 -11.5t46 -31t31.5 -45t11 -52.5t-11 -52t-30.5 -44.5t-45.5 -32t-52 -12.5h-316v-297h113q57 0 98 -42t41 -95q0 -33 -12 -59.5t-32.5 -45t-44 -28.5t-48.5 -10 h-115v-302h316q53 0 96 -40.5t43 -96.5q0 -59 -44 -99t-97 -40h-453q-100 8 -125 100l-57 187h-301l-62 -199q-4 -25 -33.5 -56.5t-91.5 -31.5q-59 0 -100 41t-41 100zM461 567h137l-66 232z" />
<glyph unicode="&#xe7;" horiz-adv-x="1073" d="M45 717q0 109 41 188l197 371q18 33 47.5 62.5t63.5 51t70 34t66 12.5h334q53 0 95 -42t42 -96q0 -27 -11 -52t-30.5 -45.5t-44 -33t-51.5 -12.5h-311q-16 0 -25 -16l-186 -346q-10 -16 -13 -36t-3 -38q0 -41 18 -80l176 -340q10 -23 33 -23h303q53 0 97 -37.5t44 -99.5 q0 -59 -41 -99t-100 -40h-313q-37 0 -76 11.5t-74 31.5t-63.5 48t-46.5 61l-195 376q-25 47 -34 93.5t-9 95.5zM467 -158q0 66 36.5 108t108.5 42h51q55 0 98.5 -41t43.5 -98q0 -10 -2 -20.5t-4 -16.5l-56 -191q-31 -102 -135 -102q-59 0 -100 37t-41 96v186z" />
<glyph unicode="&#xe8;" d="M78 0v1296l141 140h674q55 0 97 -40t42 -100q0 -27 -11 -52t-29.5 -44.5t-44 -32t-52.5 -12.5h-541v-297h203q57 0 97 -42t40 -95q0 -33 -13 -59.5t-32.5 -45t-44 -28.5t-47.5 -10h-203v-302h541q53 0 95 -38.5t42 -98.5q0 -61 -40 -100t-99 -39h-815zM152 1729 q0 20 8 43.5t24.5 43t41 32t57.5 12.5q31 0 53 -15l340 -139q74 -37 74 -113q0 -51 -35 -91t-96 -40q-23 0 -56 13l-338 143q-74 33 -73 111z" />
<glyph unicode="&#xe9;" d="M78 0v1296l141 140h674q55 0 97 -40t42 -100q0 -27 -11 -52t-29.5 -44.5t-44 -32t-52.5 -12.5h-541v-297h203q57 0 97 -42t40 -95q0 -33 -13 -59.5t-32.5 -45t-44 -28.5t-47.5 -10h-203v-302h541q53 0 95 -38.5t42 -98.5q0 -61 -40 -100t-99 -39h-815zM353 1593 q0 76 73 113l338 139q27 14 56 15q61 0 96 -42t35 -89q0 -76 -72 -111l-340 -143q-29 -12 -57 -13q-55 0 -92 39t-37 92z" />
<glyph unicode="&#xea;" d="M78 0v1296l141 140h674q55 0 97 -40t42 -100q0 -27 -11 -52t-29.5 -44.5t-44 -32t-52.5 -12.5h-541v-297h203q57 0 97 -42t40 -95q0 -33 -13 -59.5t-32.5 -45t-44 -28.5t-47.5 -10h-203v-302h541q53 0 95 -38.5t42 -98.5q0 -61 -40 -100t-99 -39h-815zM281 1587 q0 16 3 33.5t17 36.5l146 207q18 29 43.5 46t60.5 17t59.5 -16.5t47.5 -46.5l145 -205q20 -33 22 -66q0 -47 -34.5 -82.5t-83.5 -35.5q-37 0 -63.5 10t-55.5 47l-45 61l-43 -69q-35 -51 -98 -51q-49 0 -85 32.5t-36 81.5z" />
<glyph unicode="&#xeb;" d="M78 0v1296l141 140h674q55 0 97 -40t42 -100q0 -27 -11 -52t-29.5 -44.5t-44 -32t-52.5 -12.5h-541v-297h203q57 0 97 -42t40 -95q0 -33 -13 -59.5t-32.5 -45t-44 -28.5t-47.5 -10h-203v-302h541q53 0 95 -38.5t42 -98.5q0 -61 -40 -100t-99 -39h-815zM183 1642v103 q0 41 28.5 69.5t69.5 28.5h121q41 0 69.5 -28.5t28.5 -67.5v-105q0 -35 -28.5 -64.5t-69.5 -29.5h-121q-41 0 -69.5 29t-28.5 65zM605 1642v103q0 41 28.5 69.5t69.5 28.5h121q35 0 66.5 -27.5t31.5 -68.5v-105q0 -37 -27.5 -65.5t-68.5 -28.5h-123q-41 0 -69.5 29t-28.5 65 z" />
<glyph unicode="&#xec;" horiz-adv-x="1103" d="M74 139q0 59 41 98t96 39h205v879h-203q-55 0 -97 40t-42 99t39 100.5t98 41.5h680q55 0 97 -39t42 -99q0 -29 -11 -54t-30.5 -44.5t-44 -32t-51.5 -12.5h-201v-879h199q61 0 100 -40.5t39 -96.5q0 -61 -42 -100t-97 -39h-678q-59 0 -99 40t-40 99zM152 1729q0 20 8 43.5 t24.5 43t41 32t57.5 12.5q31 0 53 -15l340 -139q74 -37 74 -113q0 -51 -35 -91t-96 -40q-23 0 -56 13l-338 143q-74 33 -73 111z" />
<glyph unicode="&#xed;" horiz-adv-x="1103" d="M74 139q0 59 41 98t96 39h205v879h-203q-55 0 -97 40t-42 99t39 100.5t98 41.5h680q55 0 97 -39t42 -99q0 -29 -11 -54t-30.5 -44.5t-44 -32t-51.5 -12.5h-201v-879h199q61 0 100 -40.5t39 -96.5q0 -61 -42 -100t-97 -39h-678q-59 0 -99 40t-40 99zM353 1593q0 76 73 113 l338 139q27 14 56 15q61 0 96 -42t35 -89q0 -76 -72 -111l-340 -143q-29 -12 -57 -13q-55 0 -92 39t-37 92z" />
<glyph unicode="&#xee;" horiz-adv-x="1103" d="M74 139q0 59 41 98t96 39h205v879h-203q-55 0 -97 40t-42 99t39 100.5t98 41.5h680q55 0 97 -39t42 -99q0 -29 -11 -54t-30.5 -44.5t-44 -32t-51.5 -12.5h-201v-879h199q61 0 100 -40.5t39 -96.5q0 -61 -42 -100t-97 -39h-678q-59 0 -99 40t-40 99zM279 1587q0 16 3 33.5 t17 36.5l146 207q18 29 43.5 46t60.5 17t59.5 -16.5t47.5 -46.5l145 -205q20 -33 22 -66q0 -47 -34.5 -82.5t-83.5 -35.5q-37 0 -63.5 10t-55.5 47l-45 61l-43 -69q-35 -51 -98 -51q-49 0 -85 32.5t-36 81.5z" />
<glyph unicode="&#xef;" horiz-adv-x="1103" d="M74 139q0 59 41 98t96 39h205v879h-203q-55 0 -97 40t-42 99t39 100.5t98 41.5h680q55 0 97 -39t42 -99q0 -29 -11 -54t-30.5 -44.5t-44 -32t-51.5 -12.5h-201v-879h199q61 0 100 -40.5t39 -96.5q0 -61 -42 -100t-97 -39h-678q-59 0 -99 40t-40 99zM183 1642v103 q0 41 28.5 69.5t69.5 28.5h121q41 0 69.5 -28.5t28.5 -67.5v-105q0 -35 -28.5 -64.5t-69.5 -29.5h-121q-41 0 -69.5 29t-28.5 65zM605 1642v103q0 41 28.5 69.5t69.5 28.5h121q35 0 66.5 -27.5t31.5 -68.5v-105q0 -37 -27.5 -65.5t-68.5 -28.5h-123q-41 0 -69.5 29t-28.5 65 z" />
<glyph unicode="&#xf0;" horiz-adv-x="1073" d="M72 139q0 49 40 94.5t101 45.5h33v339h-58q-35 0 -57 25t-22 59v46q0 33 22.5 57t56.5 24h58v326h-31q-59 0 -99 44t-40 99q0 59 42 98.5t95 39.5h334q37 0 74.5 -12.5t73.5 -34t67 -53t51 -70.5l164 -334q25 -51 39 -103.5t14 -111.5q0 -109 -57 -217l-164 -332 q-41 -72 -112.5 -120t-161.5 -48h-322q-53 0 -97 38t-44 101zM522 276h6q16 0 33 25l168 330q10 23 16.5 46t6.5 40q0 41 -17 78l-174 340q-12 20 -39 20v-326h74q29 0 56.5 -20.5t27.5 -60.5v-46q0 -33 -25.5 -58.5t-58.5 -25.5h-74v-342z" />
<glyph unicode="&#xf1;" horiz-adv-x="1110" d="M78 139v1176l121 121h192l361 -774v632q0 55 39.5 98.5t99.5 43.5q61 0 101 -40t40 -100v-1204l-98 -92h-219l-361 766v-627q0 -57 -39 -98t-98 -41t-99 40t-40 99zM217 1599q0 51 49 82l104 64q14 14 52 14h36q20 0 31 -6l170 -57l84 49q10 6 24.5 10t24.5 6 q47 0 74 -30.5t27 -69.5q0 -55 -45 -82l-111 -63q-27 -14 -49 -15h-37q-18 0 -31 6l-172 56l-80 -47q-20 -14 -53 -15q-41 0 -69.5 31t-28.5 67z" />
<glyph unicode="&#xf2;" horiz-adv-x="1042" d="M45 694q0 59 8 110.5t33 100.5l184 379q82 152 252 152q174 0 248 -152l184 -379q23 -45 34 -90t11 -98q0 -57 -10 -100.5t-35 -90.5l-184 -374q-74 -152 -248 -152q-86 0 -149.5 42t-102.5 110l-184 374q-18 37 -29.5 79t-11.5 89zM123 1729q0 20 8 43.5t24.5 43t41 32 t57.5 12.5q31 0 53 -15l340 -139q74 -37 74 -113q0 -51 -35 -91t-96 -40q-23 0 -56 13l-338 143q-74 33 -73 111zM324 717q0 -20 4 -41t14 -39l180 -361l178 361q20 39 21 82q0 41 -19 78l-180 364l-182 -362q-16 -61 -16 -82z" />
<glyph unicode="&#xf3;" horiz-adv-x="1042" d="M45 694q0 59 8 110.5t33 100.5l184 379q82 152 252 152q174 0 248 -152l184 -379q23 -45 34 -90t11 -98q0 -57 -10 -100.5t-35 -90.5l-184 -374q-74 -152 -248 -152q-86 0 -149.5 42t-102.5 110l-184 374q-18 37 -29.5 79t-11.5 89zM322 1593q0 76 73 113l338 139 q27 14 56 15q61 0 96 -42t35 -89q0 -76 -72 -111l-340 -143q-29 -12 -57 -13q-55 0 -92 39t-37 92zM324 717q0 -20 4 -41t14 -39l180 -361l178 361q20 39 21 82q0 41 -19 78l-180 364l-182 -362q-16 -61 -16 -82z" />
<glyph unicode="&#xf4;" horiz-adv-x="1042" d="M45 694q0 59 8 110.5t33 100.5l184 379q82 152 252 152q174 0 248 -152l184 -379q23 -45 34 -90t11 -98q0 -57 -10 -100.5t-35 -90.5l-184 -374q-74 -152 -248 -152q-86 0 -149.5 42t-102.5 110l-184 374q-18 37 -29.5 79t-11.5 89zM248 1587q0 16 3 33.5t17 36.5 l146 207q18 29 43.5 46t60.5 17t59.5 -16.5t47.5 -46.5l145 -205q20 -33 22 -66q0 -47 -34.5 -82.5t-83.5 -35.5q-37 0 -63.5 10t-55.5 47l-45 61l-43 -69q-35 -51 -98 -51q-49 0 -85 32.5t-36 81.5zM324 717q0 -20 4 -41t14 -39l180 -361l178 361q20 39 21 82q0 41 -19 78 l-180 364l-182 -362q-16 -61 -16 -82z" />
<glyph unicode="&#xf5;" horiz-adv-x="1042" d="M45 694q0 59 8 110.5t33 100.5l184 379q82 152 252 152q174 0 248 -152l184 -379q23 -45 34 -90t11 -98q0 -57 -10 -100.5t-35 -90.5l-184 -374q-74 -152 -248 -152q-86 0 -149.5 42t-102.5 110l-184 374q-18 37 -29.5 79t-11.5 89zM183 1599q0 51 49 82l104 64 q14 14 52 14h36q20 0 31 -6l170 -57l84 49q10 6 24.5 10t24.5 6q47 0 74 -30.5t27 -69.5q0 -55 -45 -82l-111 -63q-27 -14 -49 -15h-37q-18 0 -31 6l-172 56l-80 -47q-20 -14 -53 -15q-41 0 -69.5 31t-28.5 67zM324 717q0 -20 4 -41t14 -39l180 -361l178 361q20 39 21 82 q0 41 -19 78l-180 364l-182 -362q-16 -61 -16 -82z" />
<glyph unicode="&#xf6;" horiz-adv-x="1042" d="M45 694q0 59 8 110.5t33 100.5l184 379q82 152 252 152q174 0 248 -152l184 -379q23 -45 34 -90t11 -98q0 -57 -10 -100.5t-35 -90.5l-184 -374q-74 -152 -248 -152q-86 0 -149.5 42t-102.5 110l-184 374q-18 37 -29.5 79t-11.5 89zM166 1642v103q0 41 28.5 69.5 t69.5 28.5h121q41 0 69.5 -28.5t28.5 -67.5v-105q0 -35 -28.5 -64.5t-69.5 -29.5h-121q-41 0 -69.5 29t-28.5 65zM324 717q0 -20 4 -41t14 -39l180 -361l178 361q20 39 21 82q0 41 -19 78l-180 364l-182 -362q-16 -61 -16 -82zM588 1642v103q0 41 28.5 69.5t69.5 28.5h121 q35 0 66.5 -27.5t31.5 -68.5v-105q0 -37 -27.5 -65.5t-68.5 -28.5h-123q-41 0 -69.5 29t-28.5 65z" />
<glyph unicode="&#xf8;" horiz-adv-x="1071" d="M53 133q0 23 5 43.5t22 48.5l94 158l-70 143q-43 74 -43 166q0 66 8.5 116t34.5 97l185 379q82 152 252 152q131 0 202 -84l19 32q31 51 102 52q27 0 52.5 -10.5t46 -29t33 -42t12.5 -49.5q0 -33 -7.5 -52.5t-23.5 -42.5l-82 -143l78 -162q23 -47 34 -93t11 -95 q0 -57 -10.5 -100.5t-34.5 -90.5l-185 -374q-76 -152 -247 -152q-70 0 -124.5 27.5t-90.5 70.5l-29 -49q-33 -51 -98 -51q-27 0 -52.5 9t-46 27.5t-34 43t-13.5 55.5zM342 717q0 -10 1 -19.5t1 -19.5l238 399l-41 80q-4 -4 -4 -6l-181 -352q-14 -55 -14 -82zM487 377 l54 -101l178 361q10 18 14 38.5t4 43.5q0 14 -2 30.5t-8 32.5z" />
<glyph unicode="&#xf9;" d="M74 307v987q0 27 10 52.5t28.5 45t44 32t54.5 12.5q59 0 99 -41t40 -97v-991q0 -29 31 -28h344q27 0 27 28v987q0 59 42 100.5t95 41.5q61 0 101 -40t40 -100v-989q0 -59 -23.5 -114.5t-64.5 -98.5t-97.5 -68.5t-119.5 -25.5h-344q-63 0 -118.5 23.5t-97.5 64.5 t-66.5 97.5t-24.5 121.5zM152 1729q0 20 8 43.5t24.5 43t41 32t57.5 12.5q31 0 53 -15l340 -139q74 -37 74 -113q0 -51 -35 -91t-96 -40q-23 0 -56 13l-338 143q-74 33 -73 111z" />
<glyph unicode="&#xfa;" d="M74 307v987q0 27 10 52.5t28.5 45t44 32t54.5 12.5q59 0 99 -41t40 -97v-991q0 -29 31 -28h344q27 0 27 28v987q0 59 42 100.5t95 41.5q61 0 101 -40t40 -100v-989q0 -59 -23.5 -114.5t-64.5 -98.5t-97.5 -68.5t-119.5 -25.5h-344q-63 0 -118.5 23.5t-97.5 64.5 t-66.5 97.5t-24.5 121.5zM353 1593q0 76 73 113l338 139q27 14 56 15q61 0 96 -42t35 -89q0 -76 -72 -111l-340 -143q-29 -12 -57 -13q-55 0 -92 39t-37 92z" />
<glyph unicode="&#xfb;" d="M74 307v987q0 27 10 52.5t28.5 45t44 32t54.5 12.5q59 0 99 -41t40 -97v-991q0 -29 31 -28h344q27 0 27 28v987q0 59 42 100.5t95 41.5q61 0 101 -40t40 -100v-989q0 -59 -23.5 -114.5t-64.5 -98.5t-97.5 -68.5t-119.5 -25.5h-344q-63 0 -118.5 23.5t-97.5 64.5 t-66.5 97.5t-24.5 121.5zM281 1587q0 16 3 33.5t17 36.5l146 207q18 29 43.5 46t60.5 17t59.5 -16.5t47.5 -46.5l145 -205q20 -33 22 -66q0 -47 -34.5 -82.5t-83.5 -35.5q-37 0 -63.5 10t-55.5 47l-45 61l-43 -69q-35 -51 -98 -51q-49 0 -85 32.5t-36 81.5z" />
<glyph unicode="&#xfc;" d="M74 307v987q0 27 10 52.5t28.5 45t44 32t54.5 12.5q59 0 99 -41t40 -97v-991q0 -29 31 -28h344q27 0 27 28v987q0 59 42 100.5t95 41.5q61 0 101 -40t40 -100v-989q0 -59 -23.5 -114.5t-64.5 -98.5t-97.5 -68.5t-119.5 -25.5h-344q-63 0 -118.5 23.5t-97.5 64.5 t-66.5 97.5t-24.5 121.5zM183 1642v103q0 41 28.5 69.5t69.5 28.5h121q41 0 69.5 -28.5t28.5 -67.5v-105q0 -35 -28.5 -64.5t-69.5 -29.5h-121q-41 0 -69.5 29t-28.5 65zM605 1642v103q0 41 28.5 69.5t69.5 28.5h121q35 0 66.5 -27.5t31.5 -68.5v-105q0 -37 -27.5 -65.5 t-68.5 -28.5h-123q-41 0 -69.5 29t-28.5 65z" />
<glyph unicode="&#xfd;" horiz-adv-x="1028" d="M37 1100v194q0 59 40 100.5t99 41.5q29 0 54.5 -11.5t45 -31t30.5 -45t11 -52.5v-96l199 -256l201 254v96q0 53 34.5 97.5t100.5 44.5q51 0 95 -37t44 -103v-196l-338 -430v-531q0 -57 -39 -98t-98 -41t-100 41t-41 96v533zM316 1593q0 76 73 113l338 139q27 14 56 15 q61 0 96 -42t35 -89q0 -76 -72 -111l-340 -143q-29 -12 -57 -13q-55 0 -92 39t-37 92z" />
<glyph unicode="&#xfe;" horiz-adv-x="1050" d="M78 137v1161q0 53 40 95.5t99 42.5q55 0 97 -42t42 -96v-127h373q59 0 114.5 -24.5t97.5 -66.5t66.5 -97t24.5 -119v-315q0 -63 -23.5 -118.5t-65.5 -97.5t-97 -65.5t-117 -23.5h-371v-105q0 -31 -13 -56.5t-32.5 -44t-44 -28.5t-49.5 -10q-61 0 -101 41t-40 96zM358 522 h371q10 0 19.5 9.5t9.5 19.5v313q0 8 -9.5 17.5t-21.5 9.5h-369v-369z" />
<glyph unicode="&#xff;" horiz-adv-x="1028" d="M37 1100v194q0 59 40 100.5t99 41.5q29 0 54.5 -11.5t45 -31t30.5 -45t11 -52.5v-96l199 -256l201 254v96q0 53 34.5 97.5t100.5 44.5q51 0 95 -37t44 -103v-196l-338 -430v-531q0 -57 -39 -98t-98 -41t-100 41t-41 96v533zM144 1642v103q0 41 28.5 69.5t69.5 28.5h121 q41 0 69.5 -28.5t28.5 -67.5v-105q0 -35 -28.5 -64.5t-69.5 -29.5h-121q-41 0 -69.5 29t-28.5 65zM566 1642v103q0 41 28.5 69.5t69.5 28.5h121q35 0 66.5 -27.5t31.5 -68.5v-105q0 -37 -27.5 -65.5t-68.5 -28.5h-123q-41 0 -69.5 29t-28.5 65z" />
<glyph unicode="&#x152;" horiz-adv-x="1511" d="M53 694q0 59 9.5 110.5t33.5 100.5l191 379q78 152 248 152q147 0 221 -113l114 113h426q53 0 96.5 -39t43.5 -101q0 -59 -41 -100t-97 -41h-288v-297h161q59 0 99.5 -42t40.5 -95q0 -33 -13.5 -59.5t-33 -45t-44 -28.5t-46.5 -10h-164v-302h290q20 0 45 -9t44.5 -26.5 t33 -43t13.5 -58.5q0 -68 -43 -103.5t-97 -35.5h-563v78q-78 -78 -198 -78q-86 0 -153 40t-101 112l-185 374q-18 37 -30.5 79t-12.5 89zM336 717q0 -20 3 -41t13 -39l183 -361v7l178 354q20 35 20 82q0 20 -5 38.5t-15 39.5l-178 360l-185 -358q-6 -29 -10 -49.5t-4 -32.5z " />
<glyph unicode="&#x153;" horiz-adv-x="1511" d="M53 694q0 59 9.5 110.5t33.5 100.5l191 379q78 152 248 152q147 0 221 -113l114 113h426q53 0 96.5 -39t43.5 -101q0 -59 -41 -100t-97 -41h-288v-297h161q59 0 99.5 -42t40.5 -95q0 -33 -13.5 -59.5t-33 -45t-44 -28.5t-46.5 -10h-164v-302h290q20 0 45 -9t44.5 -26.5 t33 -43t13.5 -58.5q0 -68 -43 -103.5t-97 -35.5h-563v78q-78 -78 -198 -78q-86 0 -153 40t-101 112l-185 374q-18 37 -30.5 79t-12.5 89zM336 717q0 -20 3 -41t13 -39l183 -361v7l178 354q20 35 20 82q0 20 -5 38.5t-15 39.5l-178 360l-185 -358q-6 -29 -10 -49.5t-4 -32.5z " />
<glyph unicode="&#x178;" horiz-adv-x="1028" d="M37 1100v194q0 59 40 100.5t99 41.5q29 0 54.5 -11.5t45 -31t30.5 -45t11 -52.5v-96l199 -256l201 254v96q0 53 34.5 97.5t100.5 44.5q51 0 95 -37t44 -103v-196l-338 -430v-531q0 -57 -39 -98t-98 -41t-100 41t-41 96v533zM144 1642v103q0 41 28.5 69.5t69.5 28.5h121 q41 0 69.5 -28.5t28.5 -67.5v-105q0 -35 -28.5 -64.5t-69.5 -29.5h-121q-41 0 -69.5 29t-28.5 65zM566 1642v103q0 41 28.5 69.5t69.5 28.5h121q35 0 66.5 -27.5t31.5 -68.5v-105q0 -37 -27.5 -65.5t-68.5 -28.5h-123q-41 0 -69.5 29t-28.5 65z" />
<glyph unicode="&#x2c6;" horiz-adv-x="692" d="M74 1587q0 16 3 33.5t17 36.5l146 207q18 29 43.5 46t60.5 17t59.5 -16.5t47.5 -46.5l145 -205q20 -33 22 -66q0 -47 -34.5 -82.5t-83.5 -35.5q-37 0 -63.5 10t-55.5 47l-45 61l-43 -69q-35 -51 -98 -51q-49 0 -85 32.5t-36 81.5z" />
<glyph unicode="&#x2dc;" horiz-adv-x="825" d="M74 1599q0 51 49 82l104 64q14 14 52 14h36q20 0 31 -6l170 -57l84 49q10 6 24.5 10t24.5 6q47 0 74 -30.5t27 -69.5q0 -55 -45 -82l-111 -63q-27 -14 -49 -15h-37q-18 0 -31 6l-172 56l-80 -47q-20 -14 -53 -15q-41 0 -69.5 31t-28.5 67z" />
<glyph unicode="&#x2000;" horiz-adv-x="963" />
<glyph unicode="&#x2001;" horiz-adv-x="1927" />
<glyph unicode="&#x2002;" horiz-adv-x="963" />
<glyph unicode="&#x2003;" horiz-adv-x="1927" />
<glyph unicode="&#x2004;" horiz-adv-x="642" />
<glyph unicode="&#x2005;" horiz-adv-x="481" />
<glyph unicode="&#x2006;" horiz-adv-x="321" />
<glyph unicode="&#x2007;" horiz-adv-x="321" />
<glyph unicode="&#x2008;" horiz-adv-x="240" />
<glyph unicode="&#x2009;" horiz-adv-x="385" />
<glyph unicode="&#x200a;" horiz-adv-x="107" />
<glyph unicode="&#x2010;" horiz-adv-x="1097" d="M72 649v76q0 55 40 96t99 41h676q49 0 94 -35.5t45 -101.5v-76q0 -27 -11 -52.5t-30.5 -45t-44.5 -31.5t-51 -12h-678q-59 0 -99 41t-40 100z" />
<glyph unicode="&#x2011;" horiz-adv-x="1097" d="M72 649v76q0 55 40 96t99 41h676q49 0 94 -35.5t45 -101.5v-76q0 -27 -11 -52.5t-30.5 -45t-44.5 -31.5t-51 -12h-678q-59 0 -99 41t-40 100z" />
<glyph unicode="&#x2012;" horiz-adv-x="1097" d="M72 649v76q0 55 40 96t99 41h676q49 0 94 -35.5t45 -101.5v-76q0 -27 -11 -52.5t-30.5 -45t-44.5 -31.5t-51 -12h-678q-59 0 -99 41t-40 100z" />
<glyph unicode="&#x2013;" horiz-adv-x="1290" d="M74 649v76q0 55 40 96t99 41h864q23 0 47.5 -9t45 -27.5t34 -44t13.5 -56.5v-76q0 -25 -11.5 -50.5t-31 -46t-44 -32.5t-51.5 -12h-866q-59 0 -99 41t-40 100z" />
<glyph unicode="&#x2014;" horiz-adv-x="1990" d="M76 649v76q0 55 40 96t99 41h1561q49 0 94 -35.5t45 -101.5v-76q0 -27 -11.5 -52.5t-31 -45t-44 -31.5t-50.5 -12h-1563q-59 0 -99 41t-40 100z" />
<glyph unicode="&#x2018;" horiz-adv-x="559" d="M35 1298q0 55 43 96.5t96 41.5h166q72 0 107.5 -42t35.5 -108v-561q0 -61 -40 -102t-99 -41q-106 0 -137 102l-168 576q0 6 -2 17t-2 21z" />
<glyph unicode="&#x2019;" horiz-adv-x="557" d="M74 725v561q0 66 36.5 108t108.5 42h164q27 0 52.5 -11.5t45 -30t31.5 -44t12 -52.5q0 -10 -3 -21t-3 -17l-168 -576q-31 -102 -135 -102q-59 0 -100 41t-41 102z" />
<glyph unicode="&#x201a;" horiz-adv-x="559" d="M74 2v561q0 61 36.5 105.5t108.5 44.5h166q27 0 51.5 -10.5t45 -29t32.5 -44t12 -56.5q0 -8 -3 -19t-3 -15l-170 -580q-29 -102 -135 -102q-53 0 -97 42t-44 103z" />
<glyph unicode="&#x201c;" horiz-adv-x="1087" d="M63 1296v54l140 86h819v-140l-84 -456q-25 -115 -139 -115q-117 0 -142 115l-61 315h-104l-64 -317q-12 -59 -49 -87t-90 -28q-119 0 -139 117z" />
<glyph unicode="&#x201d;" horiz-adv-x="1087" d="M63 1296v54l140 86h819v-140l-84 -456q-25 -115 -139 -115q-117 0 -142 115l-61 315h-104l-64 -317q-12 -59 -49 -87t-90 -28q-119 0 -139 117z" />
<glyph unicode="&#x201e;" horiz-adv-x="1087" d="M63 573v54l140 86h819v-140l-84 -454q-25 -119 -139 -119q-117 0 -142 119l-61 315h-104l-64 -317q-12 -59 -49 -89t-90 -30q-117 0 -139 119z" />
<glyph unicode="&#x2022;" horiz-adv-x="884" d="M70 518v340q0 45 17 85t46 69.5t69 47t85 17.5h309q45 0 85 -18.5t68.5 -49t46 -69.5t17.5 -82v-340q0 -41 -17.5 -80t-46 -69.5t-68.5 -49t-85 -18.5h-309q-47 0 -86 16.5t-69 46t-46 68.5t-16 86z" />
<glyph unicode="&#x2026;" horiz-adv-x="2328" d="M147 139v144q0 66 42 102.5t96 36.5h168q57 0 99 -40t42 -99v-144q0 -53 -40 -96t-99 -43h-172q-61 0 -98.5 43t-37.5 96zM944 139v144q0 66 44 102.5t97 36.5h168q55 0 98.5 -40t43.5 -99v-144q0 -25 -10.5 -50.5t-29 -44.5t-44 -31.5t-56.5 -12.5h-172q-59 0 -99 42 t-40 97zM1733 139v144q0 61 44 100t97 39h168q55 0 98 -40t43 -99v-144q0 -25 -10 -50.5t-28.5 -44.5t-44 -31.5t-56.5 -12.5h-172q-61 0 -100 43t-39 96z" />
<glyph unicode="&#x202f;" horiz-adv-x="385" />
<glyph unicode="&#x2039;" horiz-adv-x="706" d="M47 686v64q0 84 76 129l313 182q23 10 42.5 17t39.5 7q25 0 49.5 -10t44 -27.5t32.5 -43t13 -56.5q0 -84 -65 -119l-191 -110l191 -113q63 -43 63 -117q0 -59 -41 -100t-96 -41q-29 0 -44 5t-38 20l-311 184q-78 41 -78 129z" />
<glyph unicode="&#x203a;" horiz-adv-x="702" d="M68 483q0 76 67 119l189 117l-191 110q-66 41 -65 117q0 63 45 101t94 38q23 0 41 -6t41 -18l313 -182q74 -47 74 -127v-66q0 -82 -74 -127l-311 -188q-45 -27 -84 -27q-23 0 -47.5 9t-45 27.5t-33.5 44.5t-13 58z" />
<glyph unicode="&#x205f;" horiz-adv-x="481" />
<glyph unicode="&#x20ac;" horiz-adv-x="1226" d="M31 539q0 59 40 99t95 40h33q-6 8 -6 31v39q0 10 2 12h-27q-25 0 -48.5 10t-44 28.5t-32.5 44t-12 56.5q0 55 37.5 97t97.5 42h139l127 238q18 29 45 57.5t59.5 51t69.5 37t74 14.5h334q53 0 96 -41t43 -97q0 -29 -11.5 -54t-30.5 -44.5t-45 -32t-52 -12.5h-322 q-4 0 -16 -16l-53 -101h225q57 0 98 -40t41 -99q0 -53 -39 -96t-100 -43h-369q-2 -10 -3 -20.5t-1 -20.5t1 -20.5t3 -20.5h232q53 0 95 -39t42 -98q0 -53 -38 -97.5t-99 -44.5h-90l51 -100q10 -23 33 -23h303q53 0 96 -38.5t43 -98.5q0 -57 -40 -98t-99 -41h-316 q-35 0 -73.5 11.5t-73.5 31.5t-64.5 48t-48.5 61l-129 247h-135q-53 0 -95 40t-42 100z" />
<glyph unicode="&#x2122;" horiz-adv-x="1796" d="M55 1188v129l117 119h684v-252q0 -47 -31.5 -84t-85.5 -37q-49 0 -82.5 33.5t-33.5 87.5v6h-50v-516q0 -49 -34.5 -86t-83.5 -37q-47 0 -82 38t-35 85v516h-49q0 -53 -36 -89t-81 -36q-43 0 -80 31.5t-37 91.5zM913 674v649l101 115h149l152 -230l153 230h250v-764 q0 -47 -33.5 -85t-87.5 -38q-49 0 -82.5 38t-33.5 85v356l-51 -76v-26q0 -49 -33 -86t-80 -37q-53 0 -86 38t-33 85v22l-53 80v-356q0 -20 -8.5 -42t-23.5 -40.5t-35.5 -29.5t-47.5 -11q-49 0 -83 35t-34 88z" />
<glyph unicode="&#xe000;" horiz-adv-x="1433" d="M0 0v1434h1434v-1434h-1434z" />
</font>
</defs>
</svg>
